<?xml version="1.0" encoding="UTF-8"?>
<!-- Generated by @neplex/vectorizer (Using visioncortex VTracer) -->
<svg version="1.1" xmlns="http://www.w3.org/2000/svg" width="288" height="501">
<path d="M0 0 C0.2475 -0.1753125 0.2475 -0.1753125 1.5 -1.0625 C5.13909654 -2.4271612 8.32908344 -1.96379276 12 -1 C16.62734236 1.31367118 18.48140897 3.57801675 20.8046875 8.13671875 C22.72077572 11.12356215 25.39805167 13.12764159 28.11328125 15.37109375 C30.40595363 17.3504817 32.13553011 19.62119359 34 22 C37.83079025 25.9402414 40.57020253 26.29008138 45.78515625 26.671875 C50.29803717 27.34044995 53.08878296 29.87616566 55.875 33.3125 C57.72338776 37.72809298 57.52960259 41.44429239 56 45.9375 C55.67 46.618125 55.34 47.29875 55 48 C55.73863281 48.09796875 56.47726563 48.1959375 57.23828125 48.296875 C62.51932832 49.64141315 66.68601508 53.86477451 69.5 58.4375 C70.84551598 65.33326938 70.08121932 69.83756136 67 76 C67.74765625 76.50789063 68.4953125 77.01578125 69.265625 77.5390625 C79.6868875 84.82303394 79.6868875 84.82303394 82 90 C82.77133852 95.84013452 81.05090049 100.61638621 79 106 C79.68707031 106.44730469 80.37414062 106.89460938 81.08203125 107.35546875 C81.53255859 107.65775391 81.53255859 107.65775391 83.8125 109.1875 C84.70582031 109.77917969 85.59914063 110.37085938 86.51953125 110.98046875 C90.45265265 114.1827109 91.86091184 116.78794601 92.4375 121.8125 C92.27745643 126.49822015 90.32428495 130.0235125 88 134 C87.67 134.66 87.34 135.32 87 136 C87.48210937 136.31453125 87.96421875 136.6290625 88.4609375 136.953125 C89.09257812 137.38109375 89.72421875 137.8090625 90.375 138.25 C91.00148438 138.66765625 91.62796875 139.0853125 92.2734375 139.515625 C94.85631947 141.73620226 95.87206561 143.76554532 96.22265625 147.1484375 C95.96613797 150.71466719 95.73871659 153.13227309 93.3671875 155.91796875 C91.63487368 157.39429287 89.89371864 158.73916905 88 160 C88.33 160.99 88.66 161.98 89 163 C89.12781786 165.67394964 89.04391871 168.32095857 89 171 C89.66 171 90.32 171 91 171 C93.89843159 176.56498865 94.53780192 179.84879233 93 186 C91.375 188 91.375 188 89 189 C85.25 189.1875 85.25 189.1875 82 189 C82.04640625 189.66386719 82.0928125 190.32773438 82.140625 191.01171875 C82.43612135 198.2408258 82.43612135 198.2408258 80.3125 201.9375 C78 204 78 204 75.5 205.3125 C72.31889963 207.45974275 71.50114323 209.66767782 70.08984375 213.16015625 C68.70989317 215.48975024 67.5119136 216.06632645 65 217 C60.90140754 217.33457898 59.48804095 217.32536063 56 215 C55.44570312 215.78246094 54.89140625 216.56492188 54.3203125 217.37109375 C53.59585938 218.38300781 52.87140625 219.39492187 52.125 220.4375 C51.40570313 221.44683594 50.68640625 222.45617187 49.9453125 223.49609375 C48 226 48 226 46 227 C43.6670134 227.04022391 41.33293334 227.04320247 39 227 C38.34 225.68 37.68 224.36 37 223 C37.99 222.01 38.98 221.02 40 220 C37.36 221.65 34.72 223.3 32 225 C32.37382812 226.24136719 32.74765625 227.48273438 33.1328125 228.76171875 C50.92395211 288.11070793 50.92395211 288.11070793 52.9375 304.125 C53.3515625 306.890625 53.3515625 306.890625 54 309 C56.8125 310.875 56.8125 310.875 60 312 C66.97808352 318.64579383 69.48418444 327.93347508 70.03515625 337.3671875 C69.93996935 344.49562867 67.96011808 350.11982467 64 356 C60.30093935 358.46604043 57.29094268 358.79491944 53 358 C49.7383444 356.27282132 47.55524226 353.95184387 45.6875 350.75 C44.71751263 346.87005053 44.32951849 342.98023651 44 339 C43.01 339.66 42.02 340.32 41 341 C37.4375 340.8125 37.4375 340.8125 34 340 C31.53643167 336.3046475 31.74118327 334.78533109 32.3359375 330.5390625 C34.02232109 324.09112526 37.49396007 318.83559212 43 315.125 C44.6640625 313.81933594 44.6640625 313.81933594 46 312 C45.94775391 309.49389648 45.94775391 309.49389648 45.3515625 306.55859375 C45.24602051 306.02234375 45.24602051 306.02234375 44.71191406 303.30859375 C44.47698242 302.21675781 44.24205078 301.12492187 44 300 C43.79858398 299.01644531 43.59716797 298.03289062 43.38964844 297.01953125 C38.5953147 274.22555153 32.12772936 251.82787923 24 230 C23.45730469 230.34933594 22.91460937 230.69867188 22.35546875 231.05859375 C21.64003906 231.51363281 20.92460937 231.96867188 20.1875 232.4375 C19.47980469 232.88996094 18.77210938 233.34242188 18.04296875 233.80859375 C16 235 16 235 13 236 C13.08769653 236.61672577 13.17539307 237.23345154 13.26574707 237.86886597 C14.18237648 244.32483802 15.08928538 250.78212395 15.99072266 257.24023438 C16.32778083 259.64585378 16.66726325 262.05113488 17.00927734 264.45605469 C17.5022513 267.9255565 17.98631064 271.39620707 18.46875 274.8671875 C18.62186646 275.93113739 18.77498291 276.99508728 18.93273926 278.09127808 C21.29030313 295.25510885 21.29030313 295.25510885 18.7322998 298.71432495 C16.82125811 300.13265832 15.32870472 300.59849919 13 301 C21.11043887 374.42395632 21.11043887 374.42395632 26.31958008 401.44946289 C27.12323166 405.64304199 27.89858011 409.84086631 28.65625 414.04296875 C28.7218235 414.39767242 28.7218235 414.39767242 29.05366516 416.19268799 C29.95490914 421.22805971 30.27808637 425.90174991 30 431 C30.43763672 431.05414063 30.43763672 431.05414063 32.65234375 431.328125 C39.93600225 432.78995611 47.43853221 437.07009187 52 443 C53.0625 445.5625 53.0625 445.5625 53 448 C49.88758675 452.18978707 46.2051327 453.57350475 41.20654297 454.5402832 C24.2387522 456.97292749 1.99190149 456.89306099 -14 450 C-16.1519437 446.77208445 -16.20086443 445.71599191 -16 442 C-16.78375 441.9175 -17.5675 441.835 -18.375 441.75 C-21 441 -21 441 -22.13769531 439.20629883 C-23.00739806 436.98107128 -23.30175755 435.32374247 -23.421875 432.94921875 C-23.47456543 432.12615234 -23.52725586 431.30308594 -23.58154297 430.45507812 C-23.63713379 429.54177734 -23.69272461 428.62847656 -23.75 427.6875 C-24.55832569 416.69139023 -26.14477266 405.87952789 -27.875 395 C-29.87995358 382.37268645 -31.77333126 369.74786698 -33.375 357.0625 C-33.46021912 356.38807861 -33.54543823 355.71365723 -33.63323975 355.01879883 C-34.0957082 351.34670181 -34.55129735 347.67380332 -35 344 C-37.19295623 359.71618634 -38.94255348 375.46005545 -40.55371094 391.24462891 C-40.7139397 392.80764315 -40.87441853 394.37063177 -41.03515625 395.93359375 C-41.11337616 396.69534409 -41.19159607 397.45709442 -41.27218628 398.2419281 C-41.80688885 403.36677222 -42.42721293 408.47620939 -43.08984375 413.5859375 C-43.88886924 419.83622202 -44.36848992 426.00625316 -44.56640625 432.29882812 C-44.73969502 436.26563414 -45.27207116 439.41176068 -47 443 C-48.65 443 -50.3 443 -52 443 C-51.87625 443.9075 -51.7525 444.815 -51.625 445.75 C-52 449 -52 449 -54.34375 451.06640625 C-58.80062749 453.81102216 -63.78165693 454.37951987 -68.875 455.1875 C-69.35259766 455.26967773 -69.35259766 455.26967773 -71.76953125 455.68554688 C-102.42461985 460.87883006 -102.42461985 460.87883006 -115 456 C-116.75390625 454.60546875 -116.75390625 454.60546875 -118 453 C-118.08566395 449.05945823 -117.39091745 447.43435273 -114.75 444.5 C-109.43928452 440.51371723 -101.69722219 436 -95 436 C-95.01595215 435.08210693 -95.0319043 434.16421387 -95.04833984 433.21850586 C-95.14707558 422.86856428 -94.60692567 412.64880886 -93.83224487 402.33065796 C-92.63144839 386.29168776 -91.66299933 370.25465136 -90.9375 354.1875 C-89.2296453 316.70783615 -89.2296453 316.70783615 -87 307 C-87.804375 306.855625 -88.60875 306.71125 -89.4375 306.5625 C-92 306 -92 306 -93 305 C-93.28428153 297.61300213 -92.51966874 290.42352231 -91.6875 283.08984375 C-91.62091187 282.48581978 -91.62091187 282.48581978 -91.28393555 279.42909241 C-90.86053812 275.59803713 -90.43037364 271.76777721 -90 267.9375 C-89.71048914 265.32882576 -89.42142194 262.72010225 -89.1328125 260.11132812 C-88.42700865 253.74030612 -87.71565803 247.3699222 -87 241 C-87.38490601 240.84829346 -87.38490601 240.84829346 -89.33276367 240.08056641 C-92.07126448 238.97112892 -94.67734977 237.71014278 -97.3125 236.375 C-97.75400391 236.15199219 -97.75400391 236.15199219 -99.98828125 235.0234375 C-100.65214844 234.68570313 -101.31601563 234.34796875 -102 234 C-102.1131958 234.61166016 -102.2263916 235.22332031 -102.34301758 235.85351562 C-103.32419078 240.97540628 -104.49776174 245.96719305 -105.95385742 250.97338867 C-112.39067039 273.14130129 -116.83441082 296.14746096 -120 319 C-119.62423828 319.1340625 -119.62423828 319.1340625 -117.72265625 319.8125 C-110.69929209 322.87577504 -107.24782958 328.71540345 -104.43359375 335.5703125 C-103.87430307 338.70435576 -104.47791252 340.23510714 -106 343 C-109 345 -109 345 -112.1875 344.625 C-112.6515625 344.521875 -112.6515625 344.521875 -115 344 C-115.01869141 344.32613281 -115.01869141 344.32613281 -115.11328125 345.9765625 C-115.61754651 352.68032417 -116.55582127 357.35213971 -121.25 362.4375 C-124 364 -124 364 -127.4375 364.1875 C-132.22305595 362.59231468 -134.46938818 360.31740163 -137 356 C-140.58020405 346.57841038 -139.67419465 336.23293932 -136 327 C-131.71428571 319.85714286 -131.71428571 319.85714286 -128 318 C-127.31873357 314.96137505 -126.7607344 311.97279932 -126.265625 308.90234375 C-125.93880273 306.97767407 -125.61181041 305.05303326 -125.28466797 303.12841797 C-125.11594177 302.1166449 -124.94721558 301.10487183 -124.77337646 300.06243896 C-120.76498348 276.12941129 -115.66479554 253.04874688 -108 230 C-108.42152344 229.72285156 -108.42152344 229.72285156 -110.5546875 228.3203125 C-111.65039062 227.59585938 -112.74609375 226.87140625 -113.875 226.125 C-114.96554688 225.40570313 -116.05609375 224.68640625 -117.1796875 223.9453125 C-120 222 -120 222 -122 220 C-121.625 216.375 -121.625 216.375 -121 213 C-123.125 212.1875 -123.125 212.1875 -126 212 C-127.42594734 213.29631576 -128.85111496 214.5935574 -130.265625 215.90234375 C-133.13298228 217.71704509 -135.58933881 217.22779649 -138.82421875 216.640625 C-143.68488444 215.20947747 -146.36270609 213.06900914 -148.9375 208.75 C-149.618125 207.8425 -150.29875 206.935 -151 206 C-154.4375 205.8125 -154.4375 205.8125 -158 206 C-161.82564097 204.29971512 -163.4616844 202.84920748 -165 199 C-165.47767971 194.67980848 -165.6359815 190.44862452 -163.875 186.4375 C-162.44504578 182.4540561 -163.50380309 178.87494315 -165 175 C-166.25390625 173.3671875 -166.25390625 173.3671875 -167.625 171.9375 C-170.34231294 168.57661294 -170.65215919 167.11020771 -170.3515625 162.94140625 C-169.23255161 156.76197943 -165.09512177 152.47945358 -161 148 C-161.61875 147.278125 -162.2375 146.55625 -162.875 145.8125 C-166.56113598 140.93379061 -167.62382242 137.13425378 -167 131 C-165.18028725 125.74742375 -162.78622873 122.02288131 -158 119 C-157.34 119 -156.68 119 -156 119 C-156.33 118.5875 -156.33 118.5875 -158 116.5 C-160.62985094 112.54118525 -160.52061469 109.68553223 -160 105 C-158.6038245 102.08072396 -157.27797004 100.27797004 -155 98 C-155.12890625 95.64453125 -155.12890625 95.64453125 -155.5625 92.8125 C-156.14955672 87.40167604 -155.79946549 84.66577582 -153 80 C-152.5771875 79.6390625 -152.5771875 79.6390625 -150.4375 77.8125 C-147.15987097 74.03062034 -147.15515324 70.74775792 -146.52734375 65.88671875 C-145.65189062 61.09442347 -143.41616114 58.41616114 -140 55 C-139.76171875 53.08203125 -139.76171875 53.08203125 -139.6875 50.8125 C-139.18346061 45.7477171 -137.79012555 42.45570271 -134 39 C-129.35938612 36.03391184 -125.56191145 34 -120 34 C-119.98582031 33.41992188 -119.97164062 32.83984375 -119.95703125 32.2421875 C-119.6757396 27.63508641 -119.23003707 23.97116828 -115.91796875 20.46484375 C-112.27408326 17.68183549 -108.1420501 15.73213161 -104.06640625 13.66015625 C-101 12 -101 12 -98 9.375 C-93.25467857 5.6182872 -87.67753253 3.96370967 -82 2 C-80.98292969 1.62617188 -79.96585937 1.25234375 -78.91796875 0.8671875 C-74.26003811 -0.51709711 -69.81609657 -0.19800928 -65 0 C-64.51402344 0.01482422 -64.51402344 0.01482422 -62.0546875 0.08984375 C-56.2043957 0.41663117 -52.69138125 1.22401022 -48 5 C-46.67882624 5.69045066 -45.3473293 6.3620925 -44 7 C-43.76474609 6.72285156 -43.76474609 6.72285156 -42.57421875 5.3203125 C-41.95160156 4.59585937 -41.32898438 3.87140625 -40.6875 3.125 C-40.07261719 2.40570312 -39.45773438 1.68640625 -38.82421875 0.9453125 C-29.7301042 -8.75247989 -10.17877644 -6.78585096 0 0 Z " fill="#0A0A0A" transform="translate(181,24)"/>
<path d="M0 0 C10.20690294 7.93870229 17.94569964 18.71984078 25.69140625 28.98046875 C27.16390429 30.90642643 28.66897717 32.80819993 30.21484375 34.67578125 C30.86582031 35.46339844 31.51679688 36.25101563 32.1875 37.0625 C32.75855469 37.73410156 33.32960937 38.40570313 33.91796875 39.09765625 C35 41 35 41 34.77270508 42.97094727 C33.82641242 45.45582507 32.98343573 46.02650796 30.71875 47.3671875 C30.38206299 47.57126221 30.38206299 47.57126221 28.67822266 48.60400391 C27.95940918 49.02343262 27.2405957 49.44286133 26.5 49.875 C25.03836928 50.75405673 23.57742751 51.63426003 22.1171875 52.515625 C21.40916992 52.93908203 20.70115234 53.36253906 19.97167969 53.79882812 C16.76235796 55.75398698 13.6808348 57.88713862 10.6015625 60.0390625 C9 61 9 61 7 61 C5.3119872 54.12737647 4.35697877 47.28043735 3.5625 40.2578125 C3 37 3 37 1 34 C0.01 34 -0.98 34 -2 34 C-1.71156949 43.93643113 -0.51986404 53.44413099 1.26977539 63.21191406 C2.93535197 72.38560335 4.33437557 81.58866039 5.6875 90.8125 C5.74166077 91.17810028 5.74166077 91.17810028 6.01574707 93.02825928 C7.64480174 104.03753579 9.17989273 114.84665088 9 126 C8.62472168 126.01981934 8.62472168 126.01981934 6.72558594 126.12011719 C-9.44534781 127.00199095 -25.53027869 128.24939177 -41.625 130.0625 C-42.01737854 130.10642883 -42.01737854 130.10642883 -44.00305176 130.32873535 C-57.08310734 131.80251543 -57.08310734 131.80251543 -60.55493164 132.55029297 C-63.54017742 133.09935165 -66.35966851 133.11203949 -69.39453125 133.09765625 C-70.59658203 133.09443359 -71.79863281 133.09121094 -73.03710938 133.08789062 C-74.28298828 133.07951172 -75.52886719 133.07113281 -76.8125 133.0625 C-78.07771484 133.05798828 -79.34292969 133.05347656 -80.64648438 133.04882812 C-83.7643711 133.03706251 -86.88216133 133.02062272 -90 133 C-89.52032789 120.24589677 -88.21069258 107.71166656 -86.53082275 95.06347656 C-83.79505181 74.411677 -81.58618712 53.77088387 -80 33 C-80.66 33.165 -80.66 33.165 -84 34 C-86.21271188 44.96029949 -87.83024498 55.88044635 -89 67 C-92.62675688 65.64210315 -95.86894299 64.01031448 -99.1953125 62.03125 C-100.15824219 61.46019531 -101.12117188 60.88914063 -102.11328125 60.30078125 C-103.10714844 59.70652344 -104.10101563 59.11226562 -105.125 58.5 C-106.12660156 57.90574219 -107.12820312 57.31148437 -108.16015625 56.69921875 C-115.48073564 52.34617624 -115.48073564 52.34617624 -119 50 C-116.20356276 42.59142931 -112.65579685 35.55396627 -106 31 C-103.11375464 28.60853956 -102.11714362 27.46463214 -101.1875 23.77734375 C-99.83796052 19.4845652 -97.98389524 16.81798442 -95.1875 13.375 C-94.76146484 12.8284375 -94.33542969 12.281875 -93.89648438 11.71875 C-91.1411056 8.23388366 -88.19466366 5.08568949 -85 2 C-82.49208516 3.11462882 -80.75605172 4.21757549 -78.6875 6.0625 C-76 8 -76 8 -72.5 8.5 C-68.43036653 9.08137621 -67.04911239 10.35208661 -64 13 C-59.31028654 15.54992025 -54.69102759 15.26302031 -49.5 15.1875 C-48.65824219 15.18685547 -47.81648438 15.18621094 -46.94921875 15.18554688 C-42.81164097 15.15622546 -39.05660571 14.87732147 -35 14 C-34.835 14.165 -34.835 14.165 -34 15 C-29.29983643 15.55954328 -26.95410953 14.49770567 -23.0390625 11.98828125 C-20.55891134 10.78621565 -18.42266847 10.60142625 -15.6875 10.3125 C-8.69022766 9.29489114 -4.71634079 4.97210764 0 0 Z " fill="#FCFCFC" transform="translate(185,192)"/>
<path d="M0 0 C0.70195328 4.83284195 1.39524664 9.66682824 2.08129883 14.50195312 C2.31472755 16.13899405 2.55032594 17.7757274 2.78833008 19.41210938 C3.97845434 27.60459264 5.06200084 35.72884813 5.4921875 44 C5.97793787 53.09297558 7.2977953 62.00685849 8.6875 71 C8.81739319 71.85752869 8.94728638 72.71505737 9.08111572 73.59857178 C11.13679209 87.16741648 13.48591327 100.66645517 16.1706543 114.125 C16.41082275 115.34445312 16.65099121 116.56390625 16.8984375 117.8203125 C17.00502686 118.34761963 17.00502686 118.34761963 17.54443359 121.01611328 C18.0088867 124.05820649 18.08092588 126.92768644 18 130 C4.54839882 132.68211695 -8.26763132 134.66357755 -22 134 C-22.06469482 133.31413818 -22.12938965 132.62827637 -22.19604492 131.92163086 C-23.69332941 116.35629831 -25.65137203 100.98107282 -28.28588867 85.57202148 C-29.35524283 79.27185059 -30.22536297 73.0503591 -30.73803711 66.68188477 C-31.22028777 61.74477058 -32.12812923 56.88068635 -33 52 C-33.10127197 51.42121094 -33.10127197 51.42121094 -33.61376953 48.4921875 C-34.25685518 44.82694265 -34.90861081 41.16333171 -35.5625 37.5 C-35.78357422 36.2521875 -36.00464844 35.004375 -36.23242188 33.71875 C-36.3390918 33.120625 -36.3390918 33.120625 -36.87890625 30.09375 C-37.0704126 29.01802734 -37.26191895 27.94230469 -37.45922852 26.83398438 C-37.89943412 24.52702877 -38.39755854 22.26881987 -39 20 C-40.32 20.33 -41.64 20.66 -43 21 C-45.88892897 31.16734709 -47.61306541 41.03633763 -48.5703125 51.55859375 C-48.89886235 55.15523049 -49.39001793 58.68864313 -50 62.25 C-50.96563112 68.14858387 -51.45951827 74.04677675 -51.9375 80 C-52.54556606 87.54933628 -53.35617438 95.01307656 -54.5 102.5 C-56.19900554 113.6216389 -57.14235618 124.7859606 -58 136 C-63.33405 136.04146146 -68.62168185 136.06988352 -73.9375 135.5625 C-74.38544922 135.52189453 -74.38544922 135.52189453 -76.65234375 135.31640625 C-79 135 -79 135 -82 134 C-84.05893621 133.77674186 -86.12233653 133.59294241 -88.1875 133.4375 C-89.21399658 133.36023682 -90.24049316 133.28297363 -91.2980957 133.20336914 C-91.74390991 133.16981323 -91.74390991 133.16981323 -94 133 C-94.10998734 120.46493538 -93.83588373 108.01435461 -93.125 95.5 C-93.03373065 93.82984073 -92.9425869 92.15967459 -92.8515625 90.48950195 C-92.27038959 79.99354204 -91.57349878 69.50994147 -90.75268555 59.02978516 C-89.9265747 48.41113958 -89.30111694 37.78240016 -88.69726562 27.14916992 C-88.30850155 20.4050002 -87.8362803 13.70504386 -87 7 C-86.11666992 6.93006836 -85.23333984 6.86013672 -84.32324219 6.78808594 C-80.13137829 6.45095905 -75.94048382 6.10382193 -71.75 5.75 C-71.36590469 5.71770798 -71.36590469 5.71770798 -69.42214966 5.55429077 C-59.02130637 4.66805115 -48.75055233 3.4557562 -38.4375 1.8125 C-25.58330885 -0.21242452 -12.98707317 -0.44546689 0 0 Z " fill="#252D36" transform="translate(187,325)"/>
<path d="M0 0 C4.37855495 -0.46913089 6.29584707 -0.46943529 10 2 C12.26171875 2.4140625 12.26171875 2.4140625 14.6875 2.625 C15.49574219 2.69976562 16.30398437 2.77453125 17.13671875 2.8515625 C17.75160156 2.90054688 18.36648437 2.94953125 19 3 C19.01417969 3.60328125 19.02835937 4.2065625 19.04296875 4.828125 C19.42921298 11.30032559 19.42921298 11.30032559 21.9375 14.375 C25.4978691 16.26417544 29.00366218 17.35747859 32.890625 18.38671875 C35 19 35 19 36 20 C36.13177293 21.58127513 36.23045536 23.16536635 36.3125 24.75 C36.72992455 29.31558105 37.51256089 31.81148424 41 35 C43.94742357 36.76224904 46.09377903 37.18000916 49.5 37.25 C53.32526468 37.60290745 53.77486093 37.75838734 56.5625 40.75 C58.78468537 45.77407127 58.78468537 45.77407127 58 49 C54.35343718 52.0940533 50.66577113 52.54257146 46 53 C45.8659375 52.70416016 45.8659375 52.70416016 45.1875 51.20703125 C42.15716218 45.09651453 39.09416213 42.01344882 33 39 C32.34 38.67 31.68 38.34 31 38 C23.75021262 37.28118255 17.56305431 37.08466713 11.578125 41.5859375 C6.82845123 45.84183331 5.00890876 50.07371916 3 56 C-1.29 56 -5.58 56 -10 56 C-10.804375 54.288125 -11.60875 52.57625 -12.4375 50.8125 C-15.60846792 45.06326845 -18.64167497 41.88357905 -25 40 C-31.56568935 39.05536378 -38.23260944 39.49742948 -44 43 C-47.87927684 46.87927684 -50.41487019 51.21272258 -53 56 C-55.64 56 -58.28 56 -61 56 C-61 54.35 -61 52.7 -61 51 C-59.2421875 50.08854167 -57.484375 49.17708333 -55.7265625 48.265625 C-53.5271455 46.65338267 -52.90667951 45.58054939 -52 43 C-51.71121265 40.59162245 -51.50954974 38.17189532 -51.375 35.75 C-51.30023438 34.48671875 -51.22546875 33.2234375 -51.1484375 31.921875 C-51.09945312 30.95765625 -51.05046875 29.9934375 -51 29 C-50.54238281 28.87302734 -50.54238281 28.87302734 -48.2265625 28.23046875 C-47.03804687 27.88628906 -45.84953125 27.54210937 -44.625 27.1875 C-43.44164063 26.85105469 -42.25828125 26.51460937 -41.0390625 26.16796875 C-38 25 -38 25 -36 22 C-35.75054262 20.46445127 -35.54679607 18.92116461 -35.375 17.375 C-34.19097993 11.07564323 -31.01199601 6.92088892 -26 3 C-21.0059547 0.86109651 -16.18534925 2.23491269 -11.109375 3.50390625 C-8.27392159 4.17076289 -5.88984112 4.41283445 -3 4 C-2.525625 3.34 -2.05125 2.68 -1.5625 2 C-1.046875 1.34 -0.53125 0.68 0 0 Z " fill="#F4BA97" transform="translate(145,54)"/>
<path d="M0 0 C1.58414308 10.91298568 0.68627372 20.85384548 -4 31 C-5.304776 32.36129172 -6.63521094 33.69888264 -8 35 C-8.33 35.99 -8.66 36.98 -9 38 C-9.66 38 -10.32 38 -11 38 C-11.0309375 38.2990625 -11.0309375 38.2990625 -11.1875 39.8125 C-12.33554682 42.90339529 -14.10547052 43.5880344 -17 45 C-17.66 45 -18.32 45 -19 45 C-20.55078125 42.98828125 -20.55078125 42.98828125 -22.3125 40.3125 C-27.78796188 32.34103701 -33.02537599 27.59900882 -42.58984375 25.40625 C-58.56965495 23.50258406 -75.65542317 23.12481661 -88.8828125 33.24609375 C-94.14789775 37.60776031 -97.58374108 42.14147938 -101 48 C-107.17057851 46.91107438 -107.17057851 46.91107438 -109.5078125 44.34375 C-110.35661024 43.10359043 -111.1752239 41.84203858 -111.95703125 40.55859375 C-113 39 -113 39 -115 38 C-116.95457921 34.66092719 -118.15412325 31.56993536 -118.9375 27.8125 C-120 24 -120 24 -122 22.5625 C-124.92028846 20.28102464 -125.28037464 17.77944099 -125.95703125 14.22265625 C-126 12 -126 12 -124.1875 9.0625 C-123.465625 8.381875 -122.74375 7.70125 -122 7 C-121.67 6.34 -121.34 5.68 -121 5 C-117.7 5 -114.4 5 -111 5 C-110.85433594 5.40412109 -110.85433594 5.40412109 -110.1171875 7.44921875 C-107.27277584 14.86436739 -105.35217776 19.33483393 -98.0859375 22.953125 C-91.70108652 25.66483777 -86.42900091 25.69216896 -79.875 23.375 C-74.31583522 20.99250081 -71.93245543 18.09192868 -68.75 13 C-68 11 -68 11 -67.5 7.8125 C-67.335 6.884375 -67.17 5.95625 -67 5 C-64.47524538 3.73762269 -62.68799534 3.90143596 -59.875 3.9375 C-58.96492188 3.94652344 -58.05484375 3.95554687 -57.1171875 3.96484375 C-56.76785156 3.97064453 -56.76785156 3.97064453 -55 4 C-54.63648438 4.80824219 -54.27296875 5.61648437 -53.8984375 6.44921875 C-50.40948302 13.86548353 -47.85272035 18.16924646 -40.75 22.3125 C-32.63993565 24.34001609 -25.24518061 23.12536974 -18 19 C-14.11021686 15.52402358 -12.86458823 12.75264268 -11.75 7.8125 C-10.61558857 3.3749494 -10.61558857 3.3749494 -7.8515625 1.69140625 C-2.72069378 0 -2.72069378 0 0 0 Z " fill="#F0B997" transform="translate(202,110)"/>
<path d="M0 0 C0.55171875 0.04060547 0.55171875 0.04060547 3.34375 0.24609375 C9.82395369 0.90636661 15.16253183 1.48213037 19.8671875 6.26953125 C21.69461629 9.06108626 21.93454834 11.72741688 22 15 C21.34 15 20.68 15 20 15 C19.9690625 15.3403125 19.9690625 15.3403125 19.8125 17.0625 C18.7115824 21.04274055 16.8547723 24.01728272 14 27 C11.05472285 28.22121248 9.80511509 28.27603946 6.8125 27.25 C5 26 5 26 3 23 C-1.04793997 22.20761114 -4.94079358 22.31474737 -9 23 C-11.04212746 24.42556205 -12.55684618 25.98789414 -14.26953125 27.78515625 C-16 29 -16 29 -18.38671875 29.05859375 C-20.79359736 28.57872941 -22.8179946 28.12846202 -25 27 C-25.33 26.01 -25.66 25.02 -26 24 C-26.66 24 -27.32 24 -28 24 C-29.94044515 18.9332821 -30.07631076 15.50686869 -28.99609375 10.2109375 C-27.54103354 6.98127444 -25.74107025 5.23692245 -23 3 C-15.71196595 0.60874135 -7.65546706 -0.60757675 0 0 Z " fill="#E9B798" transform="translate(147,145)"/>
<path d="M0 0 C3.375 1.625 3.375 1.625 6 4 C6.94875 4.825 7.8975 5.65 8.875 6.5 C11.87716912 10.30857701 11.63186455 14.48522811 11.41796875 19.15625 C10.61788643 24.59980073 8.20767331 27.08808342 3.9375 30.3125 C-0.58215083 32.90889516 -3.81692619 33.42484212 -9 33 C-14.81648294 31.10096173 -18.07783081 28.49367807 -21 23 C-22.51910761 18.44267716 -22.9653845 14.30111047 -21.09375 9.83984375 C-16.03445783 1.16445494 -9.87177229 -1.44393087 0 0 Z " fill="#EEB897" transform="translate(175,96)"/>
<path d="M0 0 C4.1796989 2.8497947 7.11864324 5.98092971 8.75 10.875 C9.2813682 17.14514482 8.56806538 21.738793 4.75 26.875 C-0.11992283 30.85044721 -4.2804182 31.57340835 -10.52734375 31.32421875 C-16.20949763 30.38670412 -19.90446746 27.72510725 -23.25 23.125 C-24.79861962 18.09198622 -25.35234553 13.65291073 -23.37109375 8.66015625 C-18.17339258 -0.55161117 -9.9862204 -3.4567686 0 0 Z " fill="#F2B894" transform="translate(121.25,99.125)"/>
<path d="M0 0 C3.45353265 3.0622151 5.5402217 6.63195677 7.171875 10.92578125 C7.171875 11.58578125 7.171875 12.24578125 7.171875 12.92578125 C8.161875 12.59578125 9.151875 12.26578125 10.171875 11.92578125 C11.73305928 11.8583726 13.2969002 11.84063669 14.859375 11.86328125 C15.26349609 11.86779297 15.26349609 11.86779297 17.30859375 11.890625 C17.61603516 11.89642578 17.61603516 11.89642578 19.171875 11.92578125 C18.181875 12.25578125 17.191875 12.58578125 16.171875 12.92578125 C16.336875 13.58578125 16.336875 13.58578125 17.171875 16.92578125 C13.871875 17.25578125 10.571875 17.58578125 7.171875 17.92578125 C7.2234375 18.33828125 7.2234375 18.33828125 7.484375 20.42578125 C6.96783788 26.21099698 3.89847227 30.19918398 -0.140625 34.23828125 C-5.75836012 37.76569633 -11.12070172 39.73529785 -17.828125 38.92578125 C-24.84171173 37.0465427 -30.05580212 34.2833324 -33.828125 27.92578125 C-34.77406154 25.56553182 -35.31650298 23.43272913 -35.828125 20.92578125 C-35.168125 20.92578125 -34.508125 20.92578125 -33.828125 20.92578125 C-33.168125 21.91578125 -32.508125 22.90578125 -31.828125 23.92578125 C-31.168125 23.26578125 -30.508125 22.60578125 -29.828125 21.92578125 C-29.56 22.47234375 -29.56 22.47234375 -28.203125 25.23828125 C-25.97051652 29.05457395 -24.16504236 30.58527952 -19.828125 31.92578125 C-13.78243688 32.55702222 -8.82078237 32.79106437 -3.828125 28.92578125 C-3.168125 28.92578125 -2.508125 28.92578125 -1.828125 28.92578125 C0.88284761 22.23871548 2.53281336 16.65045466 -0.015625 9.67578125 C-2.64250533 5.69016971 -5.29754092 3.43597594 -9.828125 1.92578125 C-16.38507243 1.15063824 -20.48397398 2.04865208 -25.828125 5.92578125 C-28.265625 8.67578125 -28.265625 8.67578125 -29.828125 10.92578125 C-29.828125 9.60578125 -29.828125 8.28578125 -29.828125 6.92578125 C-30.818125 6.59578125 -31.808125 6.26578125 -32.828125 5.92578125 C-24.70750603 -5.30158968 -11.81951962 -7.88595338 0 0 Z " fill="#1B0C08" transform="translate(127.828125,97.07421875)"/>
<path d="M0 0 C1.875 0.75 1.875 0.75 4 2 C4.721875 2.391875 5.44375 2.78375 6.1875 3.1875 C8.82980053 5.82980053 8.72650239 8.37615673 9 12 C8.34 12 7.68 12 7 12 C6.938125 12.680625 6.87625 13.36125 6.8125 14.0625 C5.7115824 18.04274055 3.8547723 21.01728272 1 24 C-1.94527715 25.22121248 -3.19488491 25.27603946 -6.1875 24.25 C-8 23 -8 23 -10 20 C-14.04793997 19.20761114 -17.94079358 19.31474737 -22 20 C-24.04212746 21.42556205 -25.55684618 22.98789414 -27.26953125 24.78515625 C-29 26 -29 26 -31.38671875 26.05859375 C-33.79359736 25.57872941 -35.8179946 25.12846202 -38 24 C-38.33 23.01 -38.66 22.02 -39 21 C-39.66 21 -40.32 21 -41 21 C-41 20.34 -41 19.68 -41 19 C-40.34 19 -39.68 19 -39 19 C-39.33 16.69 -39.66 14.38 -40 12 C-38.25 11.3125 -38.25 11.3125 -36 11 C-34.65210653 11.98028616 -33.31787285 12.97971135 -32 14 C-31.01 13.67 -30.02 13.34 -29 13 C-27.32948893 13.6569741 -25.66329643 14.32496875 -24 15 C-16.56958047 15.88140149 -10.16334546 15.45525896 -4 11 C-2.16679961 9.41780016 -0.61463753 7.81646722 1 6 C0 3 0 3 -2 1 C-1.34 0.67 -0.68 0.34 0 0 Z " fill="#EAB799" transform="translate(160,148)"/>
<path d="M0 0 C3.64295316 1.09288595 4.63166487 3.31094802 6.4296875 6.55078125 C9.9162969 13.71487283 10.98155393 22.2252376 8.89453125 30.0078125 C7.77623378 32.72124495 6.57931131 34.67068869 4.5 36.75 C2.4765625 36.58203125 2.4765625 36.58203125 0.5 35.75 C-2.61546062 29.39925335 -3.5144456 22.70685461 -4.5 15.75 C-6.82421875 15.12890625 -6.82421875 15.12890625 -9.5 14.75 C-12.3125 16.6875 -12.3125 16.6875 -14.5 18.75 C-13.49934186 11.99555753 -9.69392336 6.94392336 -4.9375 2.1875 C-2.5 0.75 -2.5 0.75 0 0 Z " fill="#ECBFA0" transform="translate(234.5,339.25)"/>
<path d="M0 0 C0.61939453 0.26103516 1.23878906 0.52207031 1.87695312 0.79101562 C5.21695835 2.25974756 6.6141743 3.07751145 8.6875 6.1875 C5.03078077 8.52362451 1.51683044 8.4780491 -2.68359375 8.453125 C-3.04268074 8.45408173 -3.04268074 8.45408173 -4.85987854 8.45892334 C-6.38209381 8.46028276 -7.90432076 8.45660323 -9.42651367 8.44824219 C-11.71105435 8.43768006 -13.9947829 8.44807118 -16.27929688 8.4609375 C-38.86730214 8.48429857 -38.86730214 8.48429857 -45.3125 4.1875 C-44.9825 3.1975 -44.6525 2.2075 -44.3125 1.1875 C-43.58135986 1.10185791 -42.85021973 1.01621582 -42.09692383 0.92797852 C-38.77270025 0.53740532 -35.44885058 0.14373437 -32.125 -0.25 C-30.97451172 -0.38470703 -29.82402344 -0.51941406 -28.63867188 -0.65820312 C-27.52685547 -0.79033203 -26.41503906 -0.92246094 -25.26953125 -1.05859375 C-24.24835205 -1.17904053 -23.22717285 -1.2994873 -22.17504883 -1.42358398 C-7.68435408 -3.39234106 -7.68435408 -3.39234106 0 0 Z " fill="#EEEEEE" transform="translate(216.3125,463.8125)"/>
<path d="M0 0 C5.31648183 0.32221102 8.43858395 3.34185413 12 7 C15 11.25806452 15 11.25806452 15 14 C12.13275314 13.42655063 11.1385485 13.1385485 9 11 C6.875 11.375 6.875 11.375 5 12 C4.96261719 13.09699219 4.92523438 14.19398438 4.88671875 15.32421875 C4.82103347 16.77867857 4.75458701 18.23310416 4.6875 19.6875 C4.6762207 20.04811523 4.6762207 20.04811523 4.61914062 21.87304688 C4.39828077 26.27016583 3.99071648 29.53022139 1 33 C-0.32 33 -1.64 33 -3 33 C-7.09372499 25.83598127 -7.22687715 17.4333131 -5.42578125 9.45703125 C-4.16552968 5.90298846 -2.48264573 2.83730941 0 0 Z " fill="#EBBD9D" transform="translate(55,348)"/>
<path d="M0 0 C1.66646425 0.17511423 3.33314809 0.34814629 5 0.51953125 C9.6680324 1.00075379 14.33423264 1.49730749 19 2 C19 2.66 19 3.32 19 4 C12.60058772 6.38151644 6.3881419 7.80163391 -0.375 8.6875 C-1.31875488 8.81487549 -2.26250977 8.94225098 -3.23486328 9.07348633 C-12.50653151 10.22876439 -21.67435528 10.29075336 -31 10 C-31 9.01 -31 8.02 -31 7 C-19.82083737 1.16260473 -12.55865311 -1.45009872 0 0 Z " fill="#F3F3F3" transform="translate(104,465)"/>
<path d="M0 0 C1.32 0.66 2.64 1.32 4 2 C2.65600522 5.05874675 1.23316474 6.96880503 -1.3125 9.125 C-1.88613281 9.62257812 -2.45976562 10.12015625 -3.05078125 10.6328125 C-8.90687784 14.74029508 -15.08823459 14.73585335 -22 14 C-26.44944807 12.62294454 -30.13845933 10.57436045 -34 8 C-33.67 6.35 -33.34 4.7 -33 3 C-30.16547159 3.92286972 -27.38144993 4.83025478 -24.65625 6.04296875 C-19.24373824 7.9930649 -12.85050934 8.20374727 -7.51171875 5.94921875 C-4.68154371 4.19523459 -2.35393994 2.35393994 0 0 Z " fill="#190B07" transform="translate(158,150)"/>
<path d="M0 0 C2.54445893 2.26174127 2.67708341 2.94297599 3.125 6.1875 C3.16625 7.445625 3.2075 8.70375 3.25 10 C2.80011719 9.6390625 2.35023438 9.278125 1.88671875 8.90625 C-3.07400896 5.32736829 -7.00840619 4.22815139 -13.125 4.5 C-18.18195541 5.4632296 -21.16759591 8.41759591 -24.75 12 C-25.08 11.01 -25.41 10.02 -25.75 9 C-27.07 9.99 -28.39 10.98 -29.75 12 C-28.20491225 6.16300183 -23.83758335 2.95283049 -18.921875 -0.15625 C-13.13171911 -2.40566308 -5.87015467 -1.56537458 0 0 Z " fill="#1E0C07" transform="translate(179.75,92)"/>
<path d="M0 0 C0.125 5.75 0.125 5.75 -1 8 C-1.01999557 9.56251095 -0.99250524 11.12582952 -0.9375 12.6875 C-0.87828509 17.22073046 -1.51592547 20.73328574 -3 25 C-5.00275715 22.63310519 -6.04408868 20.86222286 -7 17.875 C-8 15 -8 15 -11 13 C-11 12.01 -11 11.02 -11 10 C-9.68 10 -8.36 10 -7 10 C-6.938125 9.0925 -6.87625 8.185 -6.8125 7.25 C-6.01840211 4.07360846 -3.91743617 0 0 0 Z " fill="#130705" transform="translate(155,100)"/>
<path d="M0 0 C2.9375 0.875 2.9375 0.875 4.9375 3.875 C5.29134949 6.70579592 5.3295891 8.24330089 3.8125 10.6875 C1.07762639 12.41958662 -0.89990129 12.27873601 -4.0625 11.875 C-6.37532587 8.40576119 -6.48728586 6.95294425 -6.0625 2.875 C-4.31924047 -0.1272803 -3.48919154 -0.14241598 0 0 Z " fill="#1D0E09" transform="translate(167.0625,107.125)"/>
<path d="M0 0 C0.33 0 0.66 0 1 0 C1.33 3.63 1.66 7.26 2 11 C2.66 11 3.32 11 4 11 C3.34215037 14.29680965 2.10579427 16.84117922 0.4375 19.75 C-0.01753906 20.54921875 -0.47257812 21.3484375 -0.94140625 22.171875 C-1.29074219 22.77515625 -1.64007813 23.3784375 -2 24 C-4.64 24 -7.28 24 -10 24 C-10 22.35 -10 20.7 -10 19 C-9.12109375 18.54427083 -9.12109375 18.54427083 -4.7265625 16.265625 C-2.56675348 14.68241658 -1.91966021 13.5113798 -1 11 C-0.5859375 8.203125 -0.5859375 8.203125 -0.375 5.25 C-0.30023438 4.26515625 -0.22546875 3.2803125 -0.1484375 2.265625 C-0.09945312 1.51796875 -0.05046875 0.7703125 0 0 Z " fill="#D8AC94" transform="translate(94,86)"/>
<path d="M0 0 C2.4375 0.8125 2.4375 0.8125 4.4375 2.8125 C4.77411952 5.9767235 4.93693411 7.99763382 3.25 10.75 C1.4375 11.8125 1.4375 11.8125 -1.125 11.625 C-3.5625 10.8125 -3.5625 10.8125 -5.5625 8.8125 C-5.89911952 5.6482765 -6.06193411 3.62736618 -4.375 0.875 C-2.5625 -0.1875 -2.5625 -0.1875 0 0 Z " fill="#1C0B07" transform="translate(115.5625,109.1875)"/>
<path d="M0 0 C0.66 0.33 1.32 0.66 2 1 C2.44871961 7.28207456 1.82856233 11.8496721 -2 17 C-6.87396374 20.97874591 -11.01903399 21.67109768 -17.265625 21.47265625 C-21.55370825 20.73143043 -24.64696263 18.69011594 -28 16 C-27.67 14.68 -27.34 13.36 -27 12 C-27 12.99 -27 13.98 -27 15 C-26.34 15.165 -26.34 15.165 -23 16 C-23 16.66 -23 17.32 -23 18 C-22.32453125 17.98839844 -21.6490625 17.97679688 -20.953125 17.96484375 C-20.50710937 17.96033203 -20.50710937 17.96033203 -18.25 17.9375 C-17.80914062 17.93169922 -17.80914062 17.93169922 -15.578125 17.90234375 C-13.2181162 17.99173802 -11.25501476 18.33087179 -9 19 C-9 18.34 -9 17.68 -9 17 C-7.34467377 15.98133771 -5.67739862 14.98189187 -4 14 C-3.67 13.34 -3.34 12.68 -3 12 C-2.34 12 -1.68 12 -1 12 C-0.67 8.04 -0.34 4.08 0 0 Z " fill="#E2B89F" transform="translate(128,109)"/>
<path d="M0 0 C0.57105469 0.48984375 1.14210937 0.9796875 1.73046875 1.484375 C1.199375 1.45537109 1.199375 1.45537109 -1.48828125 1.30859375 C-15.33962893 0.77647933 -15.33962893 0.77647933 -20.796875 5.0703125 C-25.37997088 9.47105708 -27.25650679 13.54595285 -29.26953125 19.484375 C-31.57953125 19.154375 -33.88953125 18.824375 -36.26953125 18.484375 C-33.26953125 16.484375 -33.26953125 16.484375 -30.26953125 16.484375 C-30.20765625 15.63875 -30.14578125 14.793125 -30.08203125 13.921875 C-29.0982386 9.75967532 -27.35015985 6.49377519 -24.26953125 3.484375 C-23.27953125 3.484375 -22.28953125 3.484375 -21.26953125 3.484375 C-21.26953125 2.824375 -21.26953125 2.164375 -21.26953125 1.484375 C-16.03560295 -2.00491053 -5.55834767 -3.71194302 0 0 Z " fill="#E2B7A0" transform="translate(177.26953125,90.515625)"/>
<path d="M0 0 C-0.825 0.721875 -1.65 1.44375 -2.5 2.1875 C-5 5 -5 5 -5.5625 7.625 C-5 10 -5 10 -3 11.8125 C-2.34 12.204375 -1.68 12.59625 -1 13 C-1.33 13.66 -1.66 14.32 -2 15 C-2.598125 14.505 -3.19625 14.01 -3.8125 13.5 C-6 12 -6 12 -9 12 C-9 14.31 -9 16.62 -9 19 C-9.66 19 -10.32 19 -11 19 C-13.44164815 14.79493929 -13.00659666 11.67126688 -11.82421875 7.16015625 C-9.56411613 1.23675934 -6.13585395 -0.71347139 0 0 Z " fill="#D9B196" transform="translate(130,148)"/>
<path d="M0 0 C2.91517292 1.07401108 4.77810176 1.77810176 7 4 C6.66302652 10.17784711 6.66302652 10.17784711 4.4375 12.9375 C3.963125 13.288125 3.48875 13.63875 3 14 C1.02 12.35 -0.96 10.7 -3 9 C-2.01 6.03 -1.02 3.06 0 0 Z " fill="#F1F1F0" transform="translate(259,139)"/>
<path d="M0 0 C1.62283808 3.24567617 0.54725234 6.63839624 0.0625 10.125 C-0.03740234 10.87910156 -0.13730469 11.63320312 -0.24023438 12.41015625 C-0.48798404 14.27417753 -0.74328057 16.13719288 -1 18 C-1.99 18 -2.98 18 -4 18 C-4 17.01 -4 16.02 -4 15 C-4.66 15 -5.32 15 -6 15 C-7.52858994 9.90470018 -6.51196822 7.15963923 -4.203125 2.63671875 C-3 1 -3 1 0 0 Z " fill="#0B0200" transform="translate(98,103)"/>
<path d="M0 0 C-3.13132366 2.08754911 -3.73212195 2.15674932 -7.25 2.1875 C-12.04673635 2.64842418 -14.38189427 4.33368015 -17.55859375 7.87890625 C-19.89810273 11.32159833 -21.04224928 14.97744698 -22 19 C-22.33 19 -22.66 19 -23 19 C-23.70675895 13.44689396 -23.23214115 10.70261061 -19.8125 6.1875 C-13.42014453 -1.17069844 -9.43520422 -1.37149203 0 0 Z " fill="#DEB49B" transform="translate(133,57)"/>
<path d="M0 0 C0.33 0.66 0.66 1.32 1 2 C0.46375 2.20625 0.46375 2.20625 -2.25 3.25 C-5.54509777 4.6412635 -7.55176356 6.37041272 -10 9 C-10.66 9 -11.32 9 -12 9 C-12 9.66 -12 10.32 -12 11 C-10.35 11.33 -8.7 11.66 -7 12 C-7.33 12.66 -7.66 13.32 -8 14 C-8.3815625 14.0721875 -8.3815625 14.0721875 -10.3125 14.4375 C-13.26109198 15.05464716 -14.73296884 16.06882531 -17 18 C-15.99934186 11.24555753 -12.19392336 6.19392336 -7.4375 1.4375 C-4.69391633 -0.18051088 -3.13192808 -0.35793464 0 0 Z " fill="#D2B39F" transform="translate(237,340)"/>
<path d="M0 0 C-1.75 3.875 -1.75 3.875 -4 5 C-4.165 4.505 -4.165 4.505 -5 2 C-5.33 2.66 -5.66 3.32 -6 4 C-6.81339844 3.7834375 -7.62679687 3.566875 -8.46484375 3.34375 C-18.15268174 0.9898996 -27.08330921 0.67584667 -37 1 C-37 0.34 -37 -0.32 -37 -1 C-24.36895909 -2.03624948 -12.54642404 -1.81376023 0 0 Z " fill="#E2BDA5" transform="translate(176,134)"/>
<path d="M0 0 C2.625 0.375 2.625 0.375 5 1 C6.15957207 4.47871621 5.77456651 5.34219645 4.5625 8.6875 C4.27503906 9.49574219 3.98757812 10.30398437 3.69140625 11.13671875 C3.46324219 11.75160156 3.23507813 12.36648437 3 13 C-0.875 11.25 -0.875 11.25 -2 9 C-2.1875 5.5 -2.1875 5.5 -2 2 C-1.34 1.34 -0.68 0.68 0 0 Z " fill="#ECECEC" transform="translate(25,212)"/>
<path d="M0 0 C2.7671343 0.0065967 4.99367925 2.23314165 5.00027595 4.00027595 C4.99367925 6.76741025 2.7671343 8.9939552 0 9.0005519 C-2.21370744 8.99521935 -3.9949434 7.21398339 -4.00022076 4.00027595 C-3.9949434 1.78656851 -2.21370744 0.00533255 0 0.00005519 Z " fill="#F0F0EF" transform="translate(22,179.99972405)"/>
<path d="M0 0 C2.16874252 0.50603992 3.99967627 0.99983813 6 2 C6.4140625 4.06640625 6.4140625 4.06640625 6.625 6.5625 C6.69976562 7.38878906 6.77453125 8.21507813 6.8515625 9.06640625 C6.90054688 9.70449219 6.94953125 10.34257813 7 11 C4.39376858 10.64780657 2.39210885 10.23526531 0.125 8.875 C-1.67626472 5.87289213 -0.68453372 3.29820792 0 0 Z " fill="#D3B099" transform="translate(188,75)"/>
<path d="M0 0 C2.60538088 1.69652708 4.61641327 3.43994172 6.6875 5.75 C6.3575 6.74 6.0275 7.73 5.6875 8.75 C5.171875 7.96625 4.65625 7.1825 4.125 6.375 C0.50260345 2.47395756 -3.15093781 1.97516273 -8.3125 1.4375 C-12.14636557 1.836861 -14.84380626 3.08502701 -18.3125 4.75 C-17.35264706 2.35036765 -16.73948572 1.01340028 -14.5078125 -0.36328125 C-9.68555984 -2.31105946 -4.77937941 -1.8035394 0 0 Z " fill="#E4BCA3" transform="translate(121.3125,99.25)"/>
<path d="M0 0 C-1.9375 2.0625 -1.9375 2.0625 -5 4 C-8.08062179 4.05666696 -10.98465651 3.60438257 -14 3 C-14 2.34 -14 1.68 -14 1 C-14.66 0.67 -15.32 0.34 -16 0 C-14.08416353 -0.1958009 -12.16727461 -0.38132214 -10.25 -0.5625 C-9.71632812 -0.61470703 -9.71632812 -0.61470703 -7.015625 -0.87890625 C-4.35858796 -0.98560074 -2.50039428 -0.81930395 0 0 Z " fill="#DFB9A3" transform="translate(152,164)"/>
<path d="M0 0 C4.74238708 -0.18719949 6.96702861 -0.03512501 10.6875 3.15625 C9.60210937 3.12144531 8.51671875 3.08664063 7.3984375 3.05078125 C5.95314058 3.02262612 4.50782679 2.99532781 3.0625 2.96875 C2.34964844 2.94361328 1.63679687 2.91847656 0.90234375 2.89257812 C-3.99455955 2.82518955 -6.93987553 3.75984169 -11.3125 6.15625 C-11.9725 5.82625 -12.6325 5.49625 -13.3125 5.15625 C-11.03108878 2.32730009 -9.70962138 1.24969033 -6.125 0.40625 C-4.08323241 0.2723636 -2.0414978 0.13793904 0 0 Z " fill="#E8C0A8" transform="translate(168.3125,88.84375)"/>
<path d="M0 0 C0.66 0.99 1.32 1.98 2 3 C1.01 3.66 0.02 4.32 -1 5 C-1.54475978 7.59270699 -1.92400149 10.00451945 -2.1875 12.625 C-2.22842773 12.97820312 -2.22842773 12.97820312 -2.43554688 14.765625 C-2.63580725 16.5090683 -2.81949401 18.25440086 -3 20 C-5.70086603 15.94870095 -5.7884172 12.76112132 -5 8 C-3.62405462 5.09469372 -1.94725613 2.55229643 0 0 Z " fill="#D4AC95" transform="translate(102,102)"/>
<path d="M0 0 C0 0.66 0 1.32 0 2 C-4.1205746 3.99785435 -7.45194365 4.17835515 -12 4 C-12.33 3.34 -12.66 2.68 -13 2 C-11.5882217 1.46605821 -10.17029756 0.94834896 -8.75 0.4375 C-7.96109375 0.14746094 -7.1721875 -0.14257812 -6.359375 -0.44140625 C-3.80896548 -1.04522837 -2.44677771 -0.8473932 0 0 Z " fill="#D6A78C" transform="translate(178,125)"/>
</svg>
