<?xml version="1.0" encoding="UTF-8"?>
<!-- Generated by @neplex/vectorizer (Using visioncortex VTracer) -->
<svg version="1.1" xmlns="http://www.w3.org/2000/svg" width="234" height="489">
<path d="M0 0 C3.21110201 2.13109172 6.12436408 4.43766294 9 7 C9.66257813 7.56976563 10.32515625 8.13953125 11.0078125 8.7265625 C33.7033702 29.64207646 37.64631191 62.90245206 39 92 C39.1099169 94.03910362 39.22057884 96.07816723 39.33203125 98.1171875 C39.93171721 109.74899433 40.13084909 121.35443119 40 133 C40.556875 133.14695313 41.11375 133.29390625 41.6875 133.4453125 C48.89212118 135.56288697 55.37176457 138.72226744 59.25 145.4375 C59.8275 146.613125 60.405 147.78875 61 149 C61.65765331 150.17177117 62.32439825 151.33848468 63 152.5 C63.32613281 153.07878906 63.65226563 153.65757812 63.98828125 154.25390625 C64.66628924 155.42405903 65.37271594 156.57817067 66.10546875 157.71484375 C69.26930088 162.75184724 70.65873179 167.38964306 69.59375 173.2265625 C67.13246008 181.753174 61.43079519 189.1662553 54 194 C40.9494001 201 40.9494001 201 37 201 C37.29245605 201.54414551 37.58491211 202.08829102 37.88623047 202.64892578 C39.22067978 205.13838041 40.5478833 207.63162923 41.875 210.125 C42.33519531 210.9809375 42.79539063 211.836875 43.26953125 212.71875 C47.13017769 219.9924317 50.26949234 226.59167412 49 235 C47.5625 237.0625 47.5625 237.0625 45 238 C38.62345231 238.93019406 32.88812779 237.3714666 26.796875 235.55859375 C21.5229079 234.5052735 18.41291337 236.25683764 14 239 C13.34 239 12.68 239 12 239 C11.71636448 246.21497851 12.81704868 253.01929914 14 260.125 C14.37927167 262.41856854 14.75441372 264.7128246 15.125 267.0078125 C15.20878906 267.51127197 15.20878906 267.51127197 15.6328125 270.05908203 C16.62576553 278.01194917 16.62576553 278.01194917 14.8125 280.875 C12.45076295 282.34090576 10.73246924 282.08049828 8 282 C8.20455811 282.80775879 8.40911621 283.61551758 8.61987305 284.44775391 C15.19824659 310.47671947 21.50189894 336.56936514 27.75872803 362.67727661 C29.28560392 369.04268952 30.82646303 375.40440922 32.38671875 381.76171875 C32.7238313 383.13939555 33.06091001 384.51708064 33.39794922 385.89477539 C33.98568797 388.29201522 34.57687117 390.68841462 35.17236328 393.08374023 C35.42099121 394.10024658 35.66961914 395.11675293 35.92578125 396.1640625 C36.13630127 397.01436035 36.34682129 397.8646582 36.5637207 398.74072266 C37 401 37 401 37 405 C37.9178125 405.02578125 38.835625 405.0515625 39.78125 405.078125 C48.23131395 405.46867417 54.67508628 405.93720226 61.0625 411.9375 C62 414 62 414 62 416.5 C60.09762066 421.25594834 55.53226044 423.48835823 51 425.4375 C38.48738446 430.4768701 23.80948233 434.06188875 10.3125 434.25 C9.19488281 434.27578125 8.07726562 434.3015625 6.92578125 434.328125 C4 434 4 434 2.1484375 432.74609375 C0.13299395 429.68179692 0.29572301 426.60782066 0 423 C-1.093125 423.103125 -2.18625 423.20625 -3.3125 423.3125 C-4.529375 423.209375 -5.74625 423.10625 -7 423 C-10.46291011 418.80036856 -11.20478808 413.65109014 -12.3125 408.4609375 C-12.74661804 406.51491803 -13.18137792 404.56904167 -13.61669922 402.62329102 C-13.84194275 401.60357208 -14.06718628 400.58385315 -14.29925537 399.53323364 C-18.7953136 379.26964292 -24.16993381 359.52688613 -30.73339844 339.84423828 C-32.9187458 333.26050911 -34.94978524 326.62676309 -37 320 C-38.9486159 324.81994089 -40.488746 329.62647231 -41.83984375 334.6484375 C-46.61991252 352.36924666 -52.74690932 368.5411746 -61 385 C-62.01310251 387.06182065 -63.0248367 389.12431424 -64.03515625 391.1875 C-67.8541271 398.93828352 -71.65262271 406.62452922 -76.18188477 413.98999023 C-77.18747208 416.46059613 -76.96506422 417.54832896 -76 420 C-74.4765625 421.7109375 -74.4765625 421.7109375 -72.625 423.375 C-69.54336767 426.34883861 -67.4067402 428.86770065 -66 433 C-66 436.68708238 -66.30084505 438.27753988 -68.875 440.9375 C-78.47815608 444.20257307 -89.45130536 439.55362201 -98.19140625 435.53125 C-106.79042414 431.1437848 -117.51873937 425.22189095 -123 417 C-123.39630501 412.54156866 -122.58476785 409.16001561 -121 405 C-121.33 404.67 -121.66 404.34 -122 404 C-122.82347132 397.98575018 -120.25488627 393.74784099 -117.58203125 388.5703125 C-117.12777267 387.66231903 -116.6735141 386.75432556 -116.20549011 385.81881714 C-114.2711118 381.95320628 -112.30938063 378.10168176 -110.34936523 374.24902344 C-99.82108096 353.48060865 -95.05850326 335.0941547 -92.1875 312 C-91.87436116 309.56753878 -91.55991764 307.13524514 -91.24414062 304.703125 C-90.48105609 298.80392909 -89.73404711 292.90287569 -89 287 C-89.804375 286.5875 -90.60875 286.175 -91.4375 285.75 C-94 284 -94 284 -94.86108398 282.19238281 C-95.04265884 279.32675502 -94.68138246 276.75763704 -94.22265625 273.921875 C-94.03896484 272.76171875 -93.85527344 271.6015625 -93.66601562 270.40625 C-93.46685547 269.1996875 -93.26769531 267.993125 -93.0625 266.75 C-92.86720703 265.52796875 -92.67191406 264.3059375 -92.47070312 263.046875 C-91.98753764 260.03003684 -91.49704412 257.01457733 -91 254 C-91.30292969 254.09087891 -91.30292969 254.09087891 -92.8359375 254.55078125 C-95.78551119 255.16305738 -97.34639557 254.32680221 -100 253 C-103.4513537 249.5486463 -103.1818752 245.72331941 -103.25 241 C-103.20998979 231.53758419 -101.57343678 222.30950095 -100 213 C-100.61488281 212.87375244 -101.22976562 212.74750488 -101.86328125 212.61743164 C-102.67152344 212.44590576 -103.47976562 212.27437988 -104.3125 212.09765625 C-105.11300781 211.93015869 -105.91351563 211.76266113 -106.73828125 211.59008789 C-109.94194605 210.754244 -112.64871637 209.35128363 -115 207 C-115.07205511 205.31391034 -115.08386068 203.62499341 -115.0625 201.9375 C-115.05347656 201.01839844 -115.04445313 200.09929687 -115.03515625 199.15234375 C-115.02355469 198.44207031 -115.01195313 197.73179687 -115 197 C-116.65 199.64 -118.3 202.28 -120 205 C-122.85034748 204.69185433 -124.51932597 204.49028752 -126.5625 202.40625 C-128.43832012 199.26629024 -128.99085001 196.33277139 -129.6875 192.75 C-129.93886719 191.48671875 -130.19023437 190.2234375 -130.44921875 188.921875 C-130.63097656 187.95765625 -130.81273437 186.9934375 -131 186 C-131.36351562 186.75925781 -131.72703125 187.51851562 -132.1015625 188.30078125 C-136.71902547 197.42915034 -136.71902547 197.42915034 -140.375 199.1875 C-140.808125 199.3215625 -140.808125 199.3215625 -143 200 C-144.5 199 -144.5 199 -146 197 C-146.30897759 191.7648702 -145.78202946 187.05527169 -144.74784851 181.92720032 C-139.9672356 158.02023038 -138.55300602 134.37662993 -138.44702148 110.07409668 C-138.13387214 39.80418782 -138.13387214 39.80418782 -112.8359375 12.6796875 C-100.41544115 0.75767261 -82.54435588 -10.29858202 -64.83984375 -10.0625 C-63.88142578 -10.05476563 -62.92300781 -10.04703125 -61.93554688 -10.0390625 C-60.94619141 -10.02617187 -59.95683594 -10.01328125 -58.9375 -10 C-56.96750367 -9.97443223 -54.99744166 -9.95341998 -53.02734375 -9.9375 C-52.5928894 -9.93169922 -52.5928894 -9.93169922 -50.39428711 -9.90234375 C-30.83357895 -10.70017013 -17.83008474 -10.23179197 0 0 Z " fill="#0C0B0A" transform="translate(155,29)"/>
<path d="M0 0 C3.10819586 3.04388836 5.97625553 6.15316783 8.75 9.5 C20.02160369 21.95419818 33.97464273 30.03000483 48.8828125 37.44140625 C49.76227539 37.88629395 50.64173828 38.33118164 51.54785156 38.78955078 C53.06593825 39.53892093 54.60250116 40.2533769 56.16308594 40.90966797 C58.79517047 42.11700256 60.65942109 43.22889266 61.85229492 45.9296875 C62.4384776 48.29801946 62.76981752 50.57159932 63 53 C63.07202637 53.74266113 63.14405273 54.48532227 63.21826172 55.25048828 C64.57686275 75.0044605 58.50395035 92.23857576 45.6015625 107.36328125 C33.86452996 119.25892233 15.92400449 127.75551269 -0.8671875 128.3984375 C-2.86976583 128.411264 -4.87257678 128.4030307 -6.875 128.375 C-7.92929199 128.36484863 -8.98358398 128.35469727 -10.06982422 128.34423828 C-29.11119575 127.96523243 -46.28753135 121.28060739 -60.25 108.1875 C-68.39690404 99.66205294 -73.38589902 89.39300489 -73.3125 77.5390625 C-73.291875 76.70117188 -73.27125 75.86328125 -73.25 75 C-73.24484375 74.16210938 -73.2396875 73.32421875 -73.234375 72.4609375 C-73.21369783 70.79125628 -73.16856801 69.12168236 -73.09790039 67.45336914 C-73.03265708 65.81838142 -73.01882235 64.18053522 -73.05639648 62.54467773 C-73.01051476 60.1199663 -72.85015482 58.27406503 -72 56 C-69.50897655 53.65591678 -66.67299299 52.42631059 -63.5625 51.0625 C-61.81676818 50.21939182 -60.07199811 49.37428977 -58.328125 48.52734375 C-57.43802734 48.1082373 -56.54792969 47.68913086 -55.63085938 47.25732422 C-32.94832137 36.41702441 -12.39428989 22.33813278 0 0 Z " fill="#F9BC95" transform="translate(115,47)"/>
<path d="M0 0 C3.31284574 9.97497965 5.74135089 20.06141053 8.06170654 30.30252075 C9.14008111 35.05854909 10.23492915 39.81076135 11.33203125 44.5625 C11.55375 45.52297745 11.77546875 46.4834549 12.00390625 47.47303772 C14.51162734 58.28421739 17.21106162 69.04596308 19.95581055 79.79907227 C21.98970597 87.79292261 23.88961608 95.80283237 25.63400269 103.8653717 C26.74414316 108.97368591 28.02738347 114.00927919 29.484375 119.03125 C30 121 30 121 30 123 C3.80821918 133 3.80821918 133 -4 133 C-6.92177311 122.58473821 -9.41029719 112.08936169 -11.80517578 101.54150391 C-16.40953919 81.29770411 -16.40953919 81.29770411 -19.1875 73.375 C-21.62039483 66.29888316 -23.81617683 59.15641657 -26 52 C-30.68955942 36.69122547 -30.68955942 36.69122547 -32.875 30 C-33.24367188 28.865625 -33.61234375 27.73125 -33.9921875 26.5625 C-35 24 -35 24 -37 22 C-38.96875 21.99047852 -38.96875 21.99047852 -41 23 C-42.34375 25.64819336 -42.34375 25.64819336 -43.5 29.15234375 C-43.70939209 29.77833969 -43.91878418 30.40433563 -44.13452148 31.04930115 C-46.7489157 39.01269083 -48.83874977 47.12756265 -50.9609375 55.23242188 C-54.24326393 67.48862877 -58.81731554 78.99158592 -64.125 90.5 C-64.59292969 91.51884277 -65.06085938 92.53768555 -65.54296875 93.58740234 C-70.00869833 103.20509529 -74.86127494 112.60565209 -79.9140625 121.92675781 C-80.87169306 123.75503989 -81.72582484 125.636735 -82.5625 127.5234375 C-84 130 -84 130 -85.7109375 131.0703125 C-89.35403693 130.95840842 -92.37874219 129.39404086 -95.625 127.875 C-95.97921021 127.71298096 -95.97921021 127.71298096 -97.77172852 126.89306641 C-99.19193513 126.24007185 -100.60971788 125.58177718 -102.02490234 124.91796875 C-103.75031919 124.11604448 -105.49306681 123.35162358 -107.23828125 122.59375 C-108.12902344 122.1915625 -109.01976562 121.789375 -109.9375 121.375 C-110.70964844 121.03210938 -111.48179688 120.68921875 -112.27734375 120.3359375 C-114 119 -114 119 -114.75512695 116.74536133 C-115.06226154 113.30196306 -114.26284301 111.77272229 -112.640625 108.73828125 C-112.10671143 107.71412109 -111.57279785 106.68996094 -111.02270508 105.63476562 C-110.4377124 104.53841797 -109.85271973 103.44207031 -109.25 102.3125 C-104.43966807 92.99886458 -99.91870407 83.6512567 -95.8125 74 C-95.35584961 72.94594971 -94.89919922 71.89189941 -94.42871094 70.8059082 C-90.13893375 60.59770648 -88.73486899 50.69816078 -87.5625 39.75 C-86.23750321 27.80353319 -84.68140797 15.90102948 -83 4 C-82.57609985 4.00523682 -82.57609985 4.00523682 -80.4309082 4.03173828 C-55.23926732 4.29942806 -30.3865866 3.23303652 -5.33203125 0.3671875 C-2 0 -2 0 0 0 Z " fill="#222B34" transform="translate(156,312)"/>
<path d="M0 0 C2.73052457 1.32068229 5.08540025 2.95590395 7.5390625 4.73828125 C8.50070313 5.42535156 9.46234375 6.11242187 10.453125 6.8203125 C12.81194735 8.83841606 14.04318925 9.97061801 14.9140625 12.92578125 C14.5234375 14.86328125 14.5234375 14.86328125 13.6640625 16.92578125 C11.83443875 21.70666765 11.24023169 26.34385206 10.734375 31.421875 C10.46367187 32.24816406 10.19296875 33.07445312 9.9140625 33.92578125 C7.44921875 35.08203125 7.44921875 35.08203125 4.9140625 35.92578125 C3.2265625 38.98828125 3.2265625 38.98828125 1.9140625 41.92578125 C1.5840625 42.09078125 1.5840625 42.09078125 -0.0859375 42.92578125 C-0.7109375 45.98828125 -0.7109375 45.98828125 -1.0859375 48.92578125 C-1.5809375 49.09078125 -1.5809375 49.09078125 -4.0859375 49.92578125 C-4.2509375 50.25578125 -4.2509375 50.25578125 -5.0859375 51.92578125 C-8.0559375 51.92578125 -11.0259375 51.92578125 -14.0859375 51.92578125 C-14.4159375 53.90578125 -14.7459375 55.88578125 -15.0859375 57.92578125 C-15.72660156 57.8071875 -16.36726563 57.68859375 -17.02734375 57.56640625 C-21.59682059 56.88541119 -25.01953986 56.40717446 -29.1484375 58.73828125 C-32.0859375 60.92578125 -32.0859375 60.92578125 -33.0859375 62.92578125 C-33.51088848 67.08539758 -33.55431998 70.7808463 -31.9609375 74.67578125 C-29.58513705 77.52674179 -27.01567394 79.64709735 -24.0859375 81.92578125 C-28.327717 91.11630349 -28.327717 91.11630349 -33.2421875 93.37890625 C-39.28721121 95.48745992 -45.58037334 96.76868577 -51.82421875 98.14282227 C-53.97798657 98.61703508 -56.12970125 99.09981266 -58.28125 99.58398438 C-68.76907638 101.92578125 -68.76907638 101.92578125 -71.0859375 101.92578125 C-70.5121986 92.83654924 -69.47543308 83.92377691 -68.0859375 74.92578125 C-65.4459375 74.59578125 -62.8059375 74.26578125 -60.0859375 73.92578125 C-55.31040138 48.16201788 -55.31040138 48.16201788 -56.0859375 35.92578125 C-57.0759375 36.25578125 -58.0659375 36.58578125 -59.0859375 36.92578125 C-59.7327517 40.94645743 -60.37821305 44.96734967 -61.0234375 48.98828125 C-61.20583984 50.12201172 -61.38824219 51.25574219 -61.57617188 52.42382812 C-62.45731439 57.91895328 -63.32576598 63.41253727 -64.0859375 68.92578125 C-69.33742757 68.15976163 -74.39823273 66.89719939 -79.5234375 65.55078125 C-80.34392578 65.34195313 -81.16441406 65.133125 -82.00976562 64.91796875 C-86.93091385 63.62975118 -91.46399676 62.05324253 -96.0859375 59.92578125 C-95.487294 54.13889412 -93.32812709 49.26321632 -91.0234375 43.98828125 C-90.61859131 43.05822266 -90.21374512 42.12816406 -89.79663086 41.16992188 C-83.67021345 27.27747153 -76.95498099 13.79482474 -66.0859375 2.92578125 C-64.203125 3.09765625 -64.203125 3.09765625 -61.9609375 3.67578125 C-61.23648438 3.85625 -60.51203125 4.03671875 -59.765625 4.22265625 C-57.67838491 4.77032858 -55.60372939 5.36604109 -53.53515625 5.98046875 C-48.07676144 7.33294619 -42.62069401 7.30881964 -37.0234375 7.30078125 C-35.91887207 7.29989502 -34.81430664 7.29900879 -33.67626953 7.2980957 C-23.48427507 7.15117466 -14.72046811 5.55286886 -5.4375 1.2265625 C-2.0859375 -0.07421875 -2.0859375 -0.07421875 0 0 Z " fill="#FAFAFA" transform="translate(143.0859375,173.07421875)"/>
<path d="M0 0 C-0.04640625 0.70125 -0.0928125 1.4025 -0.140625 2.125 C-0.43572107 9.88181091 0.44884065 14.99763452 5.66015625 20.87109375 C11.79620422 26.72994859 19.46585236 31.12566568 28.0625 31.625 C34.48581982 31.24715766 40.17915711 28.66050024 44.85546875 24.25 C46.33794806 22.55155457 47.68552335 20.83043945 49 19 C49.99962363 17.66638447 50.99953337 16.33298323 52 15 C52.34227513 16.5188459 52.67331214 18.04022533 53 19.5625 C53.0928125 19.98595703 53.0928125 19.98595703 53.5625 22.12890625 C54.06850573 25.44956882 54.02762553 28.64522504 54 32 C49.11141286 32.55430438 44.22248883 33.10550886 39.33325195 33.65405273 C37.67593338 33.84041078 36.01870379 34.02756215 34.36157227 34.21557617 C18.97919829 35.95987319 3.82318225 37.16962815 -11.66674805 37.13037109 C-14.19390802 37.12498635 -16.72089208 37.13036236 -19.24804688 37.13671875 C-27.23368442 37.13966038 -35.0653534 37.0212109 -43 36 C-42.55267194 32.2694274 -42.09020898 28.54088161 -41.625 24.8125 C-41.49867187 23.75740234 -41.37234375 22.70230469 -41.2421875 21.61523438 C-41.11328125 20.59365234 -40.984375 19.57207031 -40.8515625 18.51953125 C-40.73635254 17.58214111 -40.62114258 16.64475098 -40.50244141 15.67895508 C-39.96250966 12.80010617 -39.45378982 10.55481773 -38 8 C-35.63671875 7.02099609 -35.63671875 7.02099609 -32.6875 6.5234375 C-31.61113281 6.3275 -30.53476563 6.1315625 -29.42578125 5.9296875 C-28.29527344 5.74664062 -27.16476563 5.56359375 -26 5.375 C-23.79084246 4.99169951 -21.58248973 4.60372927 -19.375 4.2109375 C-18.3025 4.02112305 -17.23 3.83130859 -16.125 3.63574219 C-12.33091173 2.86388236 -8.69621933 1.7891341 -5.0234375 0.57275391 C-3 0 -3 0 0 0 Z " fill="#F9F9F9" transform="translate(110,273)"/>
<path d="M0 0 C4.06501396 3.88474727 7.66961595 7.99650864 8.30078125 13.734375 C8.34343762 24.71127982 5.85075549 32.07800353 -2 40 C-5.50452525 42.65320242 -9.15909992 44.86984564 -13 47 C-13.7734375 47.43570313 -14.546875 47.87140625 -15.34375 48.3203125 C-18.86569279 50.19955809 -20.94046893 51 -25 51 C-25 50.34 -25 49.68 -25 49 C-22.50569473 47.36208286 -20.00588262 45.82554872 -17.4375 44.3125 C-8.39334344 38.7959603 -0.97110691 33.69598489 2 23 C3.05556444 16.58694813 2.14231084 12.10529172 -1.41796875 6.69140625 C-4.24831558 3.66538112 -6.88918631 2.18780467 -10.98046875 1.49609375 C-19.1686175 1.34649298 -24.7575477 2.52822082 -31 8 C-38.88245904 16.28352349 -42.39691144 27.88070485 -44 39 C-44.99 38.67 -45.98 38.34 -47 38 C-46.50163609 25.34155679 -43.28492511 13.49870395 -34.26953125 4.21875 C-24.84788565 -4.26697054 -10.89955893 -7.87062887 0 0 Z " fill="#C6AC96" transform="translate(204,171)"/>
<path d="M0 0 C3.06758433 0.9280087 4.66778998 1.54392896 6.58203125 4.171875 C11.04244229 13.51749814 11.04244229 13.51749814 10 18 C7.44975635 21.10164769 5.82300753 22.72566416 2 24 C-5.16048034 24.47736536 -9.91585394 23.21253956 -15.875 18.9375 C-18.54228506 16.50556362 -18.9432955 15.66627785 -19.25 12.0625 C-19 9 -19 9 -17.7578125 7.328125 C-14.56554605 4.91619035 -10.82539387 5.58917425 -7 6 C-4.125 7 -4.125 7 -2 8 C-1.01 8 -0.02 8 1 8 C0.67 5.36 0.34 2.72 0 0 Z " fill="#F4BD98" transform="translate(133,229)"/>
<path d="M0 0 C4.11814269 0.94337555 7.84278263 2.5954071 11.6875 4.3125 C13.12880083 4.95466374 14.57020634 5.59659259 16.01171875 6.23828125 C16.70185059 6.54588379 17.39198242 6.85348633 18.10302734 7.17041016 C19.64587628 7.84513354 21.2055816 8.4812124 22.76953125 9.10546875 C31.25454518 12.50839027 36.98559294 17.80391892 41 26 C26.36338553 27.33060132 11.78758387 17.57371561 0.828125 8.89453125 C-1.14194195 6.85290204 -1.84162062 5.82254684 -2 3 C-1.34 2.01 -0.68 1.02 0 0 Z " fill="#F3F4F3" transform="translate(41,438)"/>
<path d="M0 0 C-6.21180972 7.54135496 -21.60193001 8.9436724 -30.625 10.875 C-31.66809326 11.1023584 -32.71118652 11.3297168 -33.78588867 11.56396484 C-34.77693604 11.76715332 -35.7679834 11.9703418 -36.7890625 12.1796875 C-37.67287598 12.36257324 -38.55668945 12.54545898 -39.46728516 12.73388672 C-42.21100124 13.02216998 -44.33829969 12.67483935 -47 12 C-47.33 9.69 -47.66 7.38 -48 5 C-14.92342857 -7.46171429 -14.92342857 -7.46171429 0 0 Z " fill="#F3F3F3" transform="translate(209,444)"/>
<path d="M0 0 C1.32 0.33 2.64 0.66 4 1 C3.50826934 5.26166575 0.98723908 8.12394848 -2 11 C-9.88163773 17.11299135 -18.49141661 19.56292875 -28.375 19.4375 C-28.78890991 19.43443848 -28.78890991 19.43443848 -30.88354492 19.41894531 C-41.36590382 19.15229691 -49.35486109 15.75380119 -57.375 9 C-59 7 -59 7 -59 3 C-55.16180416 3.55023087 -52.84680154 4.5696033 -49.75 6.875 C-41.59351847 12.46494451 -33.85542818 14.07623694 -24 13 C-14.96491107 11.12957808 -5.32289794 7.9843469 0 0 Z " fill="#190B07" transform="translate(144,134)"/>
<path d="M0 0 C0.5654361 5.42818658 -0.29493425 8.56302861 -3.375 13.078125 C-6.14119055 16.34967728 -9.42635587 18.67785472 -13 21 C-13.94875 21.61875 -14.8975 22.2375 -15.875 22.875 C-18 24 -18 24 -20 24 C-20.4802131 16.15651937 -18.45766806 11.49415562 -13.5 5.6875 C-9.17711045 0.86216934 -6.54723146 -0.24706534 0 0 Z " fill="#F5F5F4" transform="translate(192,194)"/>
<path d="M0 0 C2.31 0.66 4.62 1.32 7 2 C6.45596557 12.0932704 5.46124662 21.99826344 4 32 C1.69 32 -0.62 32 -3 32 C-3.53731343 7.07462687 -3.53731343 7.07462687 0 0 Z " fill="#F0F0F0" transform="translate(62,244)"/>
<path d="M0 0 C0.49914468 11.09210402 -0.75982298 18.13691295 -7.84765625 26.828125 C-11.70635716 30.72184135 -16.23221981 33.35580007 -21 36 C-21.7734375 36.43570313 -22.546875 36.87140625 -23.34375 37.3203125 C-26.86569279 39.19955809 -28.94046893 40 -33 40 C-33 39.34 -33 38.68 -33 38 C-30.50569473 36.36208286 -28.00588262 34.82554872 -25.4375 33.3125 C-16.53526828 27.88252824 -8.69321495 22.67492471 -6 12 C-5.70403866 7.97298507 -5.75462663 4.02821288 -6 0 C-3.50907189 -1.24546405 -2.58919267 -0.7767578 0 0 Z " fill="#C6AB94" transform="translate(212,182)"/>
<path d="M0 0 C2 2.125 2 2.125 3 5.125 C2.28457031 4.80402344 1.56914062 4.48304688 0.83203125 4.15234375 C-4.38857474 2.25852392 -9.99013797 2.10968695 -15.28125 3.89453125 C-23.45209527 8.34135665 -26.61212637 16.40843672 -29.19262695 24.89746094 C-30.17800814 28.29464631 -31.102926 31.70341688 -32 35.125 C-32.99 34.795 -33.98 34.465 -35 34.125 C-34.72936391 23.22574644 -31.20630645 11.40736413 -23.40625 3.51171875 C-16.51091752 -2.82412404 -8.35593771 -5.22246107 0 0 Z " fill="#C9AE99" transform="translate(199,178.875)"/>
<path d="M0 0 C1.34554945 2.91118213 2.67424529 5.82975653 4 8.75 C4.3815625 9.575 4.763125 10.4 5.15625 11.25 C5.5171875 12.04921875 5.878125 12.8484375 6.25 13.671875 C6.58515625 14.4050293 6.9203125 15.13818359 7.265625 15.89355469 C8 18 8 18 8 22 C2.43109483 21.52013969 -2.67067568 20.70084819 -8 19 C-8.27599507 17.23303157 -8.51996915 15.46103785 -8.75 13.6875 C-8.88921875 12.70136719 -9.0284375 11.71523437 -9.171875 10.69921875 C-9 8 -9 8 -7.0546875 6.27734375 C-6.37664062 5.85582031 -5.69859375 5.43429688 -5 5 C-4.375 2.875 -4.375 2.875 -4 1 C-2 0 -2 0 0 0 Z " fill="#EFEFEF" transform="translate(189,238)"/>
<path d="M0 0 C0.33 0.66 0.66 1.32 1 2 C0.690625 2.7425 0.38125 3.485 0.0625 4.25 C-1.1855913 7.48035396 -1.42974557 9.56203545 -1 13 C0.4375 15.9375 0.4375 15.9375 3 18 C7.12609558 18.67706202 10.54087097 17.99460163 14 15.63671875 C18.24820885 11.65402295 20.67708551 7.29624505 23 2 C23.66 2 24.32 2 25 2 C23.91632042 9.58575709 21.51709181 14.59481674 16 20 C11.69971677 22.99026317 7.15045795 23.65551283 2 23 C-2.02264445 20.87482935 -4.31929919 19.21717129 -6 15 C-6.59623132 10.6715155 -6.44425869 7.01544843 -4.6875 3 C-3 1 -3 1 0 0 Z " fill="#CAB19C" transform="translate(129,267)"/>
<path d="M0 0 C1.89603625 1.28441166 3.34641381 2.67634055 4.9375 4.3125 C4.03126275 5.92258152 3.11204201 7.52535925 2.1875 9.125 C1.67703125 10.01832031 1.1665625 10.91164063 0.640625 11.83203125 C-1.07204728 14.32640487 -2.46286491 15.78573018 -5.0625 17.3125 C-7.8125 17 -7.8125 17 -10.0625 16.3125 C-10.44410272 11.54246598 -10.5234004 8.21784008 -8.3125 3.875 C-3.79834906 -1.26611635 -3.79834906 -1.26611635 0 0 Z " fill="#F5F5F4" transform="translate(143.0625,263.6875)"/>
<path d="M0 0 C2.4073459 2.4073459 2.37394558 3.18056702 2.5 6.5 C2.32197294 13.75722082 -0.98357705 18.88666386 -5.9453125 24.0078125 C-11.8962104 29.08034909 -18.69236973 31.4726201 -26 34 C-27.67053046 34.65692482 -29.3386904 35.32009366 -31 36 C-31 35.34 -31 34.68 -31 34 C-30.17757812 33.59910156 -29.35515625 33.19820312 -28.5078125 32.78515625 C-17.10974058 26.98082632 -6.47460874 19.84472475 -2.0390625 7.27734375 C-1.29869557 4.86266078 -0.61719432 2.4487059 0 0 Z " fill="#CBB39F" transform="translate(217,191)"/>
<path d="M0 0 C5.05485927 0.73094706 9.59903179 2.68380904 14.3125 4.5625 C14.73047852 4.72717773 14.73047852 4.72717773 16.84570312 5.56054688 C18.89863546 6.36998877 20.94997286 7.18323457 23 8 C23 8.66 23 9.32 23 10 C17.11454223 12.69975127 10.13762592 13.43883608 3.921875 11.27734375 C1.29981429 9.70538017 0.10931377 8.29879096 -0.9375 5.4375 C-1 3 -1 3 0 0 Z " fill="#EEC2A6" transform="translate(147,252)"/>
<path d="M0 0 C3.81365565 0.69842944 6.81728426 2.40537528 10.19140625 4.2734375 C10.77792465 4.59784821 11.36444305 4.92225891 11.96873474 5.25650024 C13.20464328 5.94180105 14.43924445 6.62946429 15.67260742 7.31933594 C17.55577631 8.37124425 19.44449793 9.41261665 21.33398438 10.453125 C22.53680738 11.12176831 23.73929299 11.79101901 24.94140625 12.4609375 C26.03138916 13.06728027 27.12137207 13.67362305 28.24438477 14.29833984 C30.56763789 15.73300577 32.34931312 16.8414924 34 19 C34 19.99 34 20.98 34 22 C28.83805067 21.43444778 24.81321783 18.94817067 20.375 16.4375 C19.5804541 15.99075928 18.7859082 15.54401855 17.96728516 15.08374023 C4.77140498 7.55070123 4.77140498 7.55070123 0 3 C0 2.01 0 1.02 0 0 Z " fill="#CBB09A" transform="translate(151,212)"/>
<path d="M0 0 C3.14066418 5.15783873 2.64752944 11.12549062 3 17 C-0.465 17.33 -0.465 17.33 -18 19 C-18 18.01 -18 17.02 -18 16 C-17.34773437 15.72027344 -16.69546875 15.44054687 -16.0234375 15.15234375 C-8.33518924 11.6257284 -3.63005792 7.68026143 0 0 Z " fill="#EEEEEE" transform="translate(161,288)"/>
<path d="M0 0 C0.99 0 1.98 0 3 0 C1.04499969 11.17370098 -1.02748632 20.64870721 -10.3203125 27.84765625 C-15.43295408 31.35516617 -19.99083064 31.2356537 -26 31 C-26.33 30.34 -26.66 29.68 -27 29 C-26.443125 28.92523438 -25.88625 28.85046875 -25.3125 28.7734375 C-17.97617103 27.50940785 -12.85236946 24.76143871 -8.30859375 18.76953125 C-4.56703774 12.87118857 -2.14158925 6.62632908 0 0 Z " fill="#C5AD98" transform="translate(159,269)"/>
<path d="M0 0 C3.52696896 3.30461657 6.07918906 6.1736806 7 11 C4.25 11.375 4.25 11.375 1 11 C-1.0625 8.1875 -1.0625 8.1875 -3 5 C-7.19113587 1.75927041 -11.20765187 1.30975509 -16.3125 0.8125 C-17.05306641 0.73064453 -17.79363281 0.64878906 -18.55664062 0.56445312 C-20.36994923 0.36557412 -22.18484969 0.18130173 -24 0 C-23.67 -0.99 -23.34 -1.98 -23 -3 C-14.57420103 -4.72836902 -7.22566191 -5.20672696 0 0 Z " fill="#C5A890" transform="translate(204,171)"/>
<path d="M0 0 C4.5669258 0.53578459 7.72261273 2.52700029 11.4375 5.0625 C17.53245707 9.1282584 23.77495259 12.72158339 30.234375 16.17578125 C32.97744351 17.98512164 33.94853744 18.94671449 35 22 C23.77545922 20.66175371 7.35425416 10.82510499 0 2 C0 1.34 0 0.68 0 0 Z " fill="#C2AB98" transform="translate(146,219)"/>
<path d="M0 0 C0.66 0 1.32 0 2 0 C5.91770533 7.83541065 3.45012199 21.43639732 0.875 29.5 C-2.44576755 39.22262256 -6.99290926 47.49240278 -14 55 C-14.165 54.505 -14.165 54.505 -15 52 C-14.34 52 -13.68 52 -13 52 C-12.896875 51.443125 -12.79375 50.88625 -12.6875 50.3125 C-11.85821592 47.5230899 -10.65700944 45.3860936 -9 43 C-8.34 43 -7.68 43 -7 43 C-6.87753906 42.29488281 -6.75507813 41.58976562 -6.62890625 40.86328125 C-5.96594799 37.84496817 -5.01824425 35.08110558 -3.9375 32.1875 C-3.57527344 31.21167969 -3.21304688 30.23585937 -2.83984375 29.23046875 C-2.56269531 28.49441406 -2.28554687 27.75835937 -2 27 C-1.34 27 -0.68 27 0 27 C-0.0928125 26.71125 -0.0928125 26.71125 -0.5625 25.25 C-1 23 -1 23 -0.53344727 21.14355469 C0.04279246 18.82804679 0.11375842 16.83624554 0.09765625 14.453125 C0.09443359 13.60878906 0.09121094 12.76445313 0.08789062 11.89453125 C0.07951172 11.02183594 0.07113281 10.14914063 0.0625 9.25 C0.05798828 8.36183594 0.05347656 7.47367187 0.04882812 6.55859375 C0.037074 4.37232671 0.02064249 2.18619821 0 0 Z " fill="#E9C0A4" transform="translate(175,98)"/>
<path d="M0 0 C1.68762851 1.6454378 3.3540349 3.31288577 5 5 C5 5.33 5 5.66 5 6 C4.071875 6.226875 3.14375 6.45375 2.1875 6.6875 C-1.62598617 8.25775901 -2.16298451 9.40946972 -4 13 C-6.84550148 17.00477986 -10.19578686 20.00169534 -13.9140625 23.16015625 C-15.95194934 24.95761824 -17.81451872 26.84546071 -19.6875 28.8125 C-22.31547887 31.49411109 -24.41725126 32.7743228 -28 34 C-29.70294787 35.28667172 -31.37946188 36.61096733 -33 38 C-32.74950083 34.7656137 -31.95853276 33.96442948 -29.4453125 31.80859375 C-28.34349901 31.01133289 -27.23636519 30.2213911 -26.125 29.4375 C-14.98006183 21.17304288 -6.73996004 12.14737784 0 0 Z " fill="#E6BEA3" transform="translate(115,47)"/>
<path d="M0 0 C2.82331888 1.45228273 5.41407765 3.16228869 8 5 C7.53439347 9.74918662 6.83067342 13.10782405 4 17 C3.67 17 3.34 17 3 17 C2.96261719 16.38511719 2.92523438 15.77023438 2.88671875 15.13671875 C2.85384766 14.73259766 2.85384766 14.73259766 2.6875 12.6875 C2.62949219 11.88699219 2.57148438 11.08648437 2.51171875 10.26171875 C1.90429862 7.57701451 1.20078992 6.62353355 -1 5 C-6.12748137 4.43027985 -8.75453725 5.21012448 -13 8 C-13.66 7.67 -14.32 7.34 -15 7 C-13.87720538 6.01830524 -12.75168527 5.03972702 -11.625 4.0625 C-11.31175781 3.78986328 -11.31175781 3.78986328 -9.7265625 2.41015625 C-6.45050066 -0.26554131 -4.19530515 -0.46614502 0 0 Z " fill="#B7A392" transform="translate(194,185)"/>
<path d="M0 0 C0.66 0.33 1.32 0.66 2 1 C1.67 1.66 1.34 2.32 1 3 C0.29448161 8.57475188 0.85437762 13.32533764 3.578125 18.26953125 C6.07776501 21.31167554 9.36928423 22.66051263 13 24 C13 24.33 13 24.66 13 25 C8.96385598 25.32289152 6.48204325 25.23629571 2.8125 23.4375 C-1.41108387 19.77706065 -3.62948431 16.70325226 -4.3828125 11.20703125 C-4.59852864 5.76379401 -4.59852864 5.76379401 -4 3 C-1.96875 1.171875 -1.96875 1.171875 0 0 Z " fill="#C1A894" transform="translate(118,270)"/>
<path d="M0 0 C1.8125 1.125 1.8125 1.125 3 3 C3.39769128 6.18153026 3.55198782 8.12844028 1.8125 10.875 C-0.68036381 12.42229478 -2.11967335 12.50405716 -5 12 C-7.2855347 9.87208838 -7.92303658 8.52591672 -8.375 5.4375 C-8 3 -8 3 -6.8125 1.1875 C-4.35092224 -0.42525784 -2.88934264 -0.4334014 0 0 Z " fill="#1A0B07" transform="translate(144,96)"/>
<path d="M0 0 C1.875 1.625 1.875 1.625 3 4 C2.77962372 7.67293796 2.63033454 9.36966546 0 12 C-2.80984248 12.36023622 -4.38241919 12.38332602 -6.8125 10.875 C-8.55198782 8.12844028 -8.39769128 6.18153026 -8 3 C-5.91857964 -0.2864532 -3.74411467 -0.65522007 0 0 Z " fill="#190B08" transform="translate(93,99)"/>
<path d="M0 0 C0.66 1.32 1.32 2.64 2 4 C-4.85640899 10.43960601 -10.49732645 13.40470364 -20.05859375 13.10546875 C-20.69925781 13.07066406 -21.33992187 13.03585937 -22 13 C-22 12.67 -22 12.34 -22 12 C-20.02 11.34 -18.04 10.68 -16 10 C-17.32 10 -18.64 10 -20 10 C-20 9.34 -20 8.68 -20 8 C-19.67386719 7.95101563 -19.67386719 7.95101563 -18.0234375 7.703125 C-12.40949238 6.74262701 -8.61307331 5.51472252 -4 2 C-2.6808418 1.30570621 -1.35350594 0.62469505 0 0 Z " fill="#1D1814" transform="translate(155,292)"/>
<path d="M0 0 C0.31461385 7.09629025 0.44572039 12.68284595 -3 19 C-6.01399879 14.47900181 -6.12108347 11.13967935 -6.0625 5.75 C-6.05798828 5.21117187 -6.05798828 5.21117187 -6.03515625 2.484375 C-6.02355469 1.66453125 -6.01195312 0.8446875 -6 0 C-3.50907189 -1.24546405 -2.58919267 -0.7767578 0 0 Z " fill="#DBBDA2" transform="translate(212,182)"/>
<path d="M0 0 C0.75539062 -0.02578125 1.51078125 -0.0515625 2.2890625 -0.078125 C4.375 0.25 4.375 0.25 6.1484375 1.515625 C7.375 3.25 7.375 3.25 7.375 7.25 C1.4620696 6.60729017 -3.96744531 5.05996216 -9.625 3.25 C-9.625 2.59 -9.625 1.93 -9.625 1.25 C-6.41683224 0.42208574 -3.29977612 0.10765991 0 0 Z " fill="#DCB9A1" transform="translate(168.625,246.75)"/>
<path d="M0 0 C0.99 0.66 1.98 1.32 3 2 C2.43152344 2.30292969 1.86304688 2.60585937 1.27734375 2.91796875 C-3.7567752 5.64933546 -8.40657645 8.57936544 -13 12 C-13 11.01 -13 10.02 -13 9 C-13.66 8.67 -14.32 8.34 -15 8 C-13.75482035 6.86966702 -12.50363348 5.74594964 -11.25 4.625 C-10.55390625 3.99851563 -9.8578125 3.37203125 -9.140625 2.7265625 C-4.07577375 -1.35859125 -4.07577375 -1.35859125 0 0 Z " fill="#D1B49D" transform="translate(182,170)"/>
<path d="M0 0 C0.33 0 0.66 0 1 0 C1 1.65 1 3.3 1 5 C1.66 5 2.32 5 3 5 C3.2236337 6.41433206 3.42826476 7.83167618 3.625 9.25 C3.74101562 10.03890625 3.85703125 10.8278125 3.9765625 11.640625 C4.00319395 14.32152459 3.36592084 15.72694089 2 18 C-0.5625 16.0625 -0.5625 16.0625 -3 13 C-3.39160858 8.21556476 -2.28284932 4.17733008 0 0 Z " fill="#241B15" transform="translate(130,267)"/>
<path d="M0 0 C0.66 0.33 1.32 0.66 2 1 C0.65990447 5.0202866 -1.85060236 5.99138349 -5.375 7.9375 C-6.0026123 8.28796387 -6.63022461 8.63842773 -7.27685547 8.99951172 C-18.29768827 15.01417662 -18.29768827 15.01417662 -24 16 C-26.3046875 15.0859375 -26.3046875 15.0859375 -28 14 C-27.40832031 13.80664062 -26.81664063 13.61328125 -26.20703125 13.4140625 C-19.42236996 11.17833399 -19.42236996 11.17833399 -16.1875 9.8125 C-14 9 -14 9 -10 9 C-10 8.34 -10 7.68 -10 7 C-8.68 7 -7.36 7 -6 7 C-6 6.34 -6 5.68 -6 5 C-5.01 5 -4.02 5 -3 5 C-3 4.34 -3 3.68 -3 3 C-2.34 3 -1.68 3 -1 3 C-0.67 2.01 -0.34 1.02 0 0 Z " fill="#E7BDA0" transform="translate(152,157)"/>
<path d="M0 0 C2.35408863 0.91547891 4.65517499 1.81652168 6.88671875 3.00390625 C13.88085131 6.30058611 22.40336201 6.45119345 30 7 C27.39400012 9.60599988 26.1946257 9.3277682 22.5625 9.375 C14.27589407 9.24552178 6.84943739 6.66840008 0 2 C0 1.34 0 0.68 0 0 Z " fill="#D1AB94" transform="translate(92,139)"/>
<path d="M0 0 C4.55700425 0.52484692 7.192874 2.31507303 10.8125 5.0625 C11.30041016 5.42923828 11.30041016 5.42923828 13.76953125 7.28515625 C14.13755859 7.56810547 14.13755859 7.56810547 16 9 C15.01 9.66 14.02 10.32 13 11 C8.1625679 9.89430123 3.52368646 6.43625007 0 3 C0 2.01 0 1.02 0 0 Z " fill="#C8B3A2" transform="translate(142,226)"/>
<path d="M0 0 C0.66 0.33 1.32 0.66 2 1 C2.3125 3.6875 2.3125 3.6875 2 7 C-0.55024365 10.10164769 -2.17699247 11.72566416 -6 13 C-11.24689773 13.25804415 -15.05295901 12.97881639 -20 11 C-19.67 10.34 -19.34 9.68 -19 9 C-18.38125 9.165 -17.7625 9.33 -17.125 9.5 C-14.30708173 9.95086692 -11.66075487 10.16756136 -8.8125 10.25 C-7.95269531 10.27578125 -7.09289062 10.3015625 -6.20703125 10.328125 C-5.47871094 10.21984375 -4.75039062 10.1115625 -4 10 C-3.34 9.01 -2.68 8.02 -2 7 C-1.34 7 -0.68 7 0 7 C0 4.69 0 2.38 0 0 Z " fill="#D3AC94" transform="translate(141,240)"/>
<path d="M0 0 C1 2 1 2 0.3671875 3.953125 C-1.3786342 6.56686949 -3.05550684 7.39463533 -5.875 8.75 C-6.73867187 9.17796875 -7.60234375 9.6059375 -8.4921875 10.046875 C-11 11 -11 11 -15 11 C-15 10.34 -15 9.68 -15 9 C-12.52589781 7.3682707 -10.06340341 5.85299836 -7.5 4.375 C-7.14228516 4.16488281 -7.14228516 4.16488281 -5.33203125 3.1015625 C-3.55853967 2.06111411 -1.77974734 1.02971096 0 0 Z " fill="#D2BCA8" transform="translate(194,211)"/>
<path d="M0 0 C0.66 0 1.32 0 2 0 C0.99586692 6.60929383 -0.78951775 10.79229827 -5 16 C-6.32 15.34 -7.64 14.68 -9 14 C-8.60167969 13.49210937 -8.20335937 12.98421875 -7.79296875 12.4609375 C-4.71433825 8.46096502 -2.08404386 4.63120857 0 0 Z " fill="#B3A08F" transform="translate(152,269)"/>
<path d="M0 0 C0.99 0 1.98 0 3 0 C2.52417032 2.29236186 2.04423615 4.58387209 1.5625 6.875 C1.42908203 7.51308594 1.42908203 7.51308594 0.75390625 10.7421875 C0 14 0 14 -1 16 C-1.99 16 -2.98 16 -4 16 C-5.35304209 11.94087374 -4.15216503 10.22850409 -2.5625 6.3125 C-2.32595703 5.72275391 -2.32595703 5.72275391 -1.12890625 2.73828125 C-0.75636719 1.83464844 -0.38382813 0.93101562 0 0 Z " fill="#AD9A8B" transform="translate(159,269)"/>
<path d="M0 0 C3.73487777 0.4979837 5.81237635 0.87491756 9 3 C10.01511648 5.98767237 10.29046485 8.86074524 10 12 C7.44088362 14.84346264 5.60679835 15.79773388 2 17 C1.01 16.01 0.02 15.02 -1 14 C1.31 13.34 3.62 12.68 6 12 C6.625 9.1875 6.625 9.1875 7 6 C5 3 5 3 1.875 2.3125 C0.92625 2.209375 -0.0225 2.10625 -1 2 C-0.67 1.34 -0.34 0.68 0 0 Z " fill="#EDC1A6" transform="translate(88,97)"/>
<path d="M0 0 C0.99 0.33 1.98 0.66 3 1 C4.1875 3.5625 4.1875 3.5625 5 6 C5.66 6 6.32 6 7 6 C7 6.99 7 7.98 7 9 C7.99 9 8.98 9 10 9 C11.6875 10.3125 11.6875 10.3125 13 12 C13 12.99 13 13.98 13 15 C13.99 15.33 14.98 15.66 16 16 C15.34 16.66 14.68 17.32 14 18 C8.49278644 12.81674018 3.45327606 7.80243325 0 1 C0 0.67 0 0.34 0 0 Z " fill="#E5BCA3" transform="translate(46,142)"/>
<path d="M0 0 C2.48076864 2.48076864 2.35091557 3.44218209 2.4375 6.875 C2.38551532 10.87204419 2.37018337 11.61130746 -0.5 14.625 C-1.325 15.07875 -2.15 15.5325 -3 16 C-2.52013969 10.43109483 -1.70084819 5.32932432 0 0 Z " fill="#C7AD98" transform="translate(217,191)"/>
<path d="M0 0 C1.13732426 3.40401948 0.83989957 5.77456664 0.0625 9.25 C-0.13214844 10.14203125 -0.32679688 11.0340625 -0.52734375 11.953125 C-0.68332031 12.62859375 -0.83929688 13.3040625 -1 14 C-1.99 13.67 -2.98 13.34 -4 13 C-3.91306859 11.20741442 -3.80489496 9.41584856 -3.6875 7.625 C-3.65849609 7.12613281 -3.65849609 7.12613281 -3.51171875 4.6015625 C-3.34285156 3.74304688 -3.17398438 2.88453125 -3 2 C-2.01 1.34 -1.02 0.68 0 0 Z " fill="#CBB4A1" transform="translate(161,196)"/>
<path d="M0 0 C0.33 0.66 0.66 1.32 1 2 C1.66 2.33 2.32 2.66 3 3 C3 4.65 3 6.3 3 8 C5.97 8.99 8.94 9.98 12 11 C12 11.33 12 11.66 12 12 C8.14682601 12.36696895 6.18102249 12.09221901 2.6875 10.3125 C0 8 0 8 -0.9375 5.4375 C-1 3 -1 3 0 0 Z " fill="#D6B49F" transform="translate(147,252)"/>
<path d="M0 0 C0.66 0.33 1.32 0.66 2 1 C2.35820896 8.28358209 2.35820896 8.28358209 1 11 C-2.32927855 12.66463928 -5.30898479 12.23435017 -9 12 C-9.66 11.67 -10.32 11.34 -11 11 C-10.67 9.68 -10.34 8.36 -10 7 C-9.67 7.495 -9.67 7.495 -8 10 C-5.5 10.3125 -5.5 10.3125 -3 10 C-1 8 -1 8 -0.9375 4.4375 C-0.958125 3.303125 -0.97875 2.16875 -1 1 C-0.67 0.67 -0.34 0.34 0 0 Z " fill="#E9B89B" transform="translate(147,97)"/>
<path d="M0 0 C1.68762851 1.6454378 3.3540349 3.31288577 5 5 C5 5.33 5 5.66 5 6 C4.071875 6.268125 3.14375 6.53625 2.1875 6.8125 C-0.76240366 7.91148371 -2.05615186 8.62418561 -4 11 C-5 8 -5 8 -4.00390625 5.95703125 C-3.52824219 5.24933594 -3.05257812 4.54164062 -2.5625 3.8125 C-2.08941406 3.09707031 -1.61632812 2.38164063 -1.12890625 1.64453125 C-0.75636719 1.10183594 -0.38382812 0.55914062 0 0 Z " fill="#DDBA9F" transform="translate(115,47)"/>
<path d="M0 0 C0.40412109 0.01353516 0.40412109 0.01353516 2.44921875 0.08203125 C3.06410156 0.11683594 3.67898437 0.15164062 4.3125 0.1875 C3.9825 0.8475 3.6525 1.5075 3.3125 2.1875 C0.66389573 2.78105614 -1.97947322 2.92959269 -4.6875 3.1875 C-4.6875 6.1575 -4.6875 9.1275 -4.6875 12.1875 C-7.6875 9.1875 -7.6875 9.1875 -8.0625 6.1875 C-7.6875 3.1875 -7.6875 3.1875 -6.45703125 1.51171875 C-4.1640315 -0.2042347 -2.83015347 -0.12305015 0 0 Z " fill="#D9B097" transform="translate(121.6875,234.8125)"/>
<path d="M0 0 C3.73487777 0.4979837 5.81237635 0.87491756 9 3 C9.1875 5.625 9.1875 5.625 9 8 C8.01 8 7.02 8 6 8 C4.62131719 6.37064759 3.28725907 4.70250393 2 3 C1.34 2.67 0.68 2.34 0 2 C0 1.34 0 0.68 0 0 Z " fill="#D8B99E" transform="translate(191,187)"/>
<path d="M0 0 C0.33 0.66 0.66 1.32 1 2 C-1.85160391 2.81434143 -4.36626131 3.11881242 -7.328125 3.09765625 C-8.12734375 3.09443359 -8.9265625 3.09121094 -9.75 3.08789062 C-10.575 3.07951172 -11.4 3.07113281 -12.25 3.0625 C-13.09046875 3.05798828 -13.9309375 3.05347656 -14.796875 3.04882812 C-16.86461401 3.03707961 -18.93231624 3.01914522 -21 3 C-21 2.67 -21 2.34 -21 2 C-13.94546999 0.79556805 -7.16562789 -0.28100502 0 0 Z " fill="#EBBFA5" transform="translate(123,172)"/>
</svg>
