<?xml version="1.0" encoding="UTF-8"?>
<!-- Generated by @neplex/vectorizer (Using visioncortex VTracer) -->
<svg version="1.1" xmlns="http://www.w3.org/2000/svg" width="346" height="493">
<path d="M0 0 C0.33 0.33 0.33 0.33 2 2 C4.9425963 1.69347955 7.34542308 1.32728846 10 0 C26.46135039 -1.22755791 26.46135039 -1.22755791 33 4 C37 8.2 37 8.2 37 11 C37.99 10.67 38.98 10.34 40 10 C46.74331462 9.3006933 52.51076258 9.18020518 58.109375 13.30859375 C67.84407542 22.01753028 67.84407542 22.01753028 68.21875 26.78125 C68.1465625 27.5134375 68.074375 28.245625 68 29 C68.86625 28.9175 69.7325 28.835 70.625 28.75 C74.82685182 29.06124828 76.67992153 30.47385334 80 33 C80.78375 33.53625 81.5675 34.0725 82.375 34.625 C82.643125 34.851875 82.643125 34.851875 84 36 C84 36.66 84 37.32 84 38 C84.598125 38.2475 85.19625 38.495 85.8125 38.75 C89.92638399 41.10079085 91.44777137 44.36569405 92.68359375 48.87109375 C93.07525605 51.50635242 92.89667731 53.96692096 92.75 56.625 C92.62317398 61.49111411 92.62317398 61.49111411 94.29296875 63.74609375 C95.9375 65.0625 95.9375 65.0625 99 67 C100.34832104 69.69664208 100.16910682 71.86587521 100.1875 74.875 C100.20167969 75.92429687 100.21585937 76.97359375 100.23046875 78.0546875 C100.00504937 80.93547071 99.48964317 82.56240208 98 85 C98.99 85.33 99.98 85.66 101 86 C105.17466052 94.5039381 104.90933606 102.28206558 102.046875 111.1875 C100.72929301 113.46868673 99.40973049 114.04407385 97 115 C97.02320313 115.88042969 97.04640625 116.76085937 97.0703125 117.66796875 C97.08835937 118.82941406 97.10640625 119.99085938 97.125 121.1875 C97.14820313 122.33605469 97.17140625 123.48460937 97.1953125 124.66796875 C96.91447008 129.45914048 96.03167585 132.04569984 92.5 135.3125 C90 137 90 137 88 137 C87.9690625 137.6084375 87.9690625 137.6084375 87.8125 140.6875 C87.26217036 145.20179824 85.51023306 147.07480578 82 150 C80.00972419 151.83717767 78.84339443 153.26309735 77.4375 155.625 C76 158 76 158 74 159 C71.6670134 159.04022391 69.33293334 159.04320247 67 159 C66.938125 159.53625 66.87625 160.0725 66.8125 160.625 C65.63481858 164.06745339 63.72113409 166.63891419 61 169 C57.3125 170.4375 57.3125 170.4375 54 171 C53.34 170.67 52.68 170.34 52 170 C52.28875 170.60328125 52.5775 171.2065625 52.875 171.828125 C53.24625 172.62734375 53.6175 173.4265625 54 174.25 C54.37125 175.03890625 54.7425 175.8278125 55.125 176.640625 C56 179 56 179 56 183 C64.13027384 177.79265184 71.63371621 172.24558135 79 166 C79.65871094 165.46503906 80.31742187 164.93007812 80.99609375 164.37890625 C89.7099576 157.21762393 96.28491346 147.97909281 103 139 C103.67417969 138.12214844 104.34835937 137.24429688 105.04296875 136.33984375 C105.60628906 135.56769531 106.16960937 134.79554688 106.75 134 C107.23984375 133.34 107.7296875 132.68 108.234375 132 C109 130 109 130 108.265625 127.5625 C107.84796875 126.716875 107.4303125 125.87125 107 125 C105.35064551 121.3296055 104.72735647 118.53054836 104.75 114.5 C104.74484375 113.5821875 104.7396875 112.664375 104.734375 111.71875 C105.09534816 108.02408349 106.1881392 105.15980114 108.3125 102.125 C110 101 110 101 112.4375 101.1875 C114.79185384 101.93400244 116.81226801 102.87129751 119 104 C119.38671875 103.44570312 119.7734375 102.89140625 120.171875 102.3203125 C120.69265625 101.59585938 121.2134375 100.87140625 121.75 100.125 C122.26046875 99.40570313 122.7709375 98.68640625 123.296875 97.9453125 C125.8622109 95.01518113 128.0649008 94.1422977 131.875 93.5625 C136.29756265 94.18165877 137.85550157 95.85550157 141 99 C143.39137084 106.17411252 142.23735038 111.49133006 139 118.125 C135.45380734 125.02363943 131.19706412 129.58668813 124.5 133.4375 C120.93863252 134.23880768 117.64745946 134.12364269 114 134 C113.88076172 134.34482422 113.88076172 134.34482422 113.27734375 136.08984375 C111.75778434 139.5518369 109.76321498 142.51120974 107.5625 145.5625 C107.12220459 146.17456299 106.68190918 146.78662598 106.22827148 147.41723633 C101.6006714 153.72581969 96.42457965 159.37593085 91 165 C90.58041016 165.45697266 90.58041016 165.45697266 88.45703125 167.76953125 C83.08715771 173.44811159 77.42603853 178.10833114 71.0625 182.625 C70.32821777 183.14642578 69.59393555 183.66785156 68.83740234 184.20507812 C65.55328727 186.47082179 62.95803746 188.20718962 59 189 C59.27714844 189.86882812 59.55429688 190.73765625 59.83984375 191.6328125 C60.20207031 192.78523437 60.56429687 193.93765625 60.9375 195.125 C61.29714844 196.26195312 61.65679687 197.39890625 62.02734375 198.5703125 C63.87482958 205.08474043 63.87482958 205.08474043 64 208 C61.27399126 211.36199724 58.74893304 212.74598076 54.67578125 214.0703125 C53.64646484 214.40933594 52.61714844 214.74835938 51.55664062 215.09765625 C51.02135742 215.26716797 51.02135742 215.26716797 48.3125 216.125 C47.26126953 216.47175781 46.21003906 216.81851563 45.12695312 217.17578125 C40.38145412 218.71725635 35.67369884 220.13416187 30.79296875 221.1796875 C27 222 27 222 26 223 C26.19846826 224.93623418 26.47847206 226.86412714 26.78857422 228.78564453 C26.98562958 230.02428253 27.18268494 231.26292053 27.38571167 232.53909302 C27.60860479 233.90368232 27.83159929 235.26825507 28.0546875 236.6328125 C28.27843202 238.02700794 28.50166122 239.42128616 28.72439575 240.81564331 C29.31421639 244.49958729 29.91070868 248.18242057 30.50866699 251.86505127 C31.23008396 256.31555209 31.94378555 260.76729501 32.65863228 265.2188549 C33.21597541 268.68862482 33.77444236 272.15820118 34.33639526 275.62722778 C34.53975494 276.88477875 34.74311462 278.14232971 34.95263672 279.43798828 C35.13108124 280.53861603 35.30952576 281.63924377 35.49337769 282.77322388 C36.33555196 288.13719576 37.14947639 293.37512431 37.1875 298.8125 C37.20167969 299.74707031 37.21585938 300.68164062 37.23046875 301.64453125 C37 304 37 304 35 306 C32.375 306.125 32.375 306.125 30 306 C30.12760712 306.7242215 30.25521423 307.44844299 30.38668823 308.1946106 C31.6477953 315.52583947 32.62714562 322.84977235 33.4453125 330.2421875 C33.715847 332.61102057 33.9872872 334.97975034 34.25952148 337.34838867 C34.40042206 338.57705658 34.54132263 339.80572449 34.68649292 341.07162476 C37.27394482 363.51379494 40.37634789 385.75909918 44.51025391 407.97021484 C44.67688034 408.87265427 44.84350677 409.77509369 45.0151825 410.70487976 C45.323234 412.36270062 45.63730706 414.01942074 45.95906067 415.67463684 C46.80748855 420.20157969 47.14649247 424.39328759 47 429 C47.87269531 429.10699219 48.74539062 429.21398437 49.64453125 429.32421875 C53.12376247 430.02492539 55.58961935 431.10585724 58.6875 432.8125 C59.61949219 433.31394531 60.55148438 433.81539063 61.51171875 434.33203125 C64.04268305 436.02861171 65.46086163 437.38550337 67 440 C67.1875 443.25 67.1875 443.25 67 446 C62.72061575 448.36662917 59.09110936 449.54676494 54.25 450.1875 C53.68539062 450.26677734 53.68539062 450.26677734 50.828125 450.66796875 C42.66775729 451.37575574 34.64134672 450.95112706 26.5 450.1875 C26.06365234 450.15237305 26.06365234 450.15237305 23.85546875 449.97460938 C17.77086269 449.41121992 11.61384622 448.52990621 6 446 C3.8480563 442.77208445 3.79913557 441.71599191 4 438 C3.195625 437.855625 2.39125 437.71125 1.5625 437.5625 C-1 437 -1 437 -2 436 C-2.30232203 433.91399711 -2.54367938 431.8191451 -2.76171875 429.72265625 C-2.90946548 428.34754434 -3.05751146 426.97246456 -3.20581055 425.59741211 C-3.28390961 424.86021942 -3.36200867 424.12302673 -3.44247437 423.36349487 C-5.23494577 406.53069486 -7.51574263 389.78749965 -9.98120117 373.04125977 C-11.15692002 365.03666693 -12.30921572 357.06469839 -13 349 C-15.07072468 364.01696272 -16.84563375 379.06423323 -18.5625 394.125 C-18.66823334 395.04696167 -18.77396667 395.96892334 -18.88290405 396.91882324 C-19.19635708 399.65656599 -19.50713912 402.39459387 -19.81640625 405.1328125 C-19.91723007 406.02214478 -20.01805389 406.91147705 -20.12193298 407.82775879 C-20.64545348 412.52686639 -21.11874862 417.22590896 -21.52685547 421.93652344 C-21.61152573 422.89928192 -21.69619598 423.86204041 -21.78343201 424.85397339 C-21.94245003 426.69619495 -22.09406662 428.53907495 -22.23719788 430.38259888 C-22.30837326 431.20750824 -22.37954865 432.0324176 -22.45288086 432.88232422 C-22.48178154 433.24474716 -22.48178154 433.24474716 -22.6280365 435.0788269 C-23 437 -23 437 -25 440 C-26.32 440 -27.64 440 -29 440 C-29.020625 440.928125 -29.04125 441.85625 -29.0625 442.8125 C-29.371875 443.864375 -29.68125 444.91625 -30 446 C-35.63166371 449.05239226 -41.54247631 450.11726282 -47.8125 451.1875 C-48.82135254 451.36039551 -49.83020508 451.53329102 -50.86962891 451.71142578 C-62.39737947 453.55724796 -75.823037 455.11782847 -87 451 C-89.0625 448.375 -89.0625 448.375 -90 446 C-87.60366415 440.62468978 -84.02246023 439.08791275 -78.9375 436.75 C-78.20466797 436.399375 -77.47183594 436.04875 -76.71679688 435.6875 C-74.81664381 434.78017255 -72.9088073 433.88897663 -71 433 C-70.34 432.67 -69.68 432.34 -69 432 C-68.94376465 431.0273671 -68.8875293 430.05473419 -68.82958984 429.05262756 C-68.13184825 417.05224346 -67.38446367 405.05521282 -66.625 393.05859375 C-66.56096985 392.04710833 -66.4969397 391.0356229 -66.43096924 389.9934864 C-66.09321396 384.66090499 -65.75482067 379.32836443 -65.41601562 373.99584961 C-65.13734374 369.60758609 -64.86007075 365.21923748 -64.58398438 360.83081055 C-64.24783323 355.48779203 -63.90928731 350.1449303 -63.56903076 344.80217171 C-63.44062487 342.77971703 -63.31304884 340.75720948 -63.18634033 338.73464775 C-63.00933633 335.91205853 -62.82924696 333.08968164 -62.6484375 330.26733398 C-62.59749939 329.44383453 -62.54656128 328.62033508 -62.49407959 327.7718811 C-62.17265729 322.81574318 -61.66120291 317.92268114 -61 313 C-61.639375 312.855625 -62.27875 312.71125 -62.9375 312.5625 C-65 312 -65 312 -66 311 C-66.42803639 301.81242408 -65.16518472 292.81723121 -64.03125 283.72265625 C-63.82889519 282.06268668 -63.62712283 280.40264602 -63.42590332 278.74253845 C-62.89838918 274.40140766 -62.36406875 270.06114386 -61.82794189 265.72106934 C-60.96818934 258.75120113 -60.11908781 251.78002688 -59.26963806 244.80889702 C-58.9725149 242.37845282 -58.67259011 239.94836719 -58.37219238 237.51832581 C-58.19013555 236.03444013 -58.00812612 234.55054865 -57.82617188 233.06665039 C-57.74622986 232.41887886 -57.74622986 232.41887886 -57.3416748 229.14076233 C-57 226 -57 226 -57 223 C-58.23492187 222.78085938 -59.46984375 222.56171875 -60.7421875 222.3359375 C-69.68618098 220.68681651 -78.46276603 218.79730939 -87.125 216 C-87.88796387 215.7632959 -88.65092773 215.5265918 -89.43701172 215.28271484 C-94.63749242 213.52700209 -94.63749242 213.52700209 -96.25683594 211.17285156 C-97.1389923 208.59361646 -96.95926748 207.30286608 -96.3203125 204.671875 C-96.13339844 203.87265625 -95.94648437 203.0734375 -95.75390625 202.25 C-95.54636719 201.425 -95.33882813 200.6 -95.125 199.75 C-94.92519531 198.90953125 -94.72539063 198.0690625 -94.51953125 197.203125 C-94.02538729 195.13242649 -93.51431964 193.06577972 -93 191 C-93.70769531 190.74476563 -94.41539063 190.48953125 -95.14453125 190.2265625 C-116.44226623 181.07815103 -138.66137414 158.36938519 -149.58984375 138.04296875 C-151 136 -151 136 -153.05078125 135.43359375 C-153.42396484 135.43423828 -153.42396484 135.43423828 -155.3125 135.4375 C-162.0775176 134.99013593 -165.59033601 131.59769792 -170.125 126.8125 C-175.73075622 120.24023409 -178.79204836 114.07206988 -178.3828125 105.30078125 C-177.78251237 101.69285498 -176.50068025 99.632295 -174 97 C-170.27556231 94.93086795 -168.64344489 94.83913878 -164.5 95.875 C-160.06573051 98.03781741 -157.62049097 101.95887657 -155 106 C-154.278125 105.484375 -153.55625 104.96875 -152.8125 104.4375 C-150 103 -150 103 -147.375 103.0625 C-144.4432554 104.21976761 -143.6671366 105.35573612 -142 108 C-140.02121612 115.13865071 -141.48917104 121.22573374 -144 128 C-144.33 128.99 -144.66 129.98 -145 131 C-135.68802599 147.81056361 -120.62211874 163.63783235 -105.25 175 C-104.94916504 175.22244385 -104.94916504 175.22244385 -103.42675781 176.34814453 C-99.15327738 179.40313396 -94.74295946 181.74343779 -90 184 C-89.855625 182.948125 -89.71125 181.89625 -89.5625 180.8125 C-89.12473034 177.84539451 -88.62195134 174.93205634 -88 172 C-89.010625 171.7525 -90.02125 171.505 -91.0625 171.25 C-96.34079107 169.73731902 -100.88405502 167.67391746 -104 163 C-106.171875 162.515625 -106.171875 162.515625 -108.75 162.25 C-113.71054868 161.39103053 -115.89035243 159.8888329 -118.81640625 155.84375 C-119.20699219 155.2353125 -119.59757812 154.626875 -120 154 C-120.309375 153.54625 -120.309375 153.54625 -121.875 151.25 C-123.51549849 146.51078215 -123.23859356 141.96628069 -123 137 C-123.38542969 136.93490234 -123.38542969 136.93490234 -125.3359375 136.60546875 C-128.80994204 135.81592226 -130.4549531 134.47807198 -133 132 C-136.68337402 126.08029175 -137.44038561 120.72179951 -136 114 C-135.37451305 108.84717892 -135.44828227 105.31895645 -138.5 101 C-141.53250498 96.62835465 -141.93111451 93.20734413 -141 88 C-139.53854068 82.9315347 -137.67781583 78.64853311 -134.25 74.625 C-131.14096968 70.64920971 -131.80192312 66.71945594 -132.0078125 61.875 C-131.99385805 56.73976422 -130.25844505 53.48725325 -126.9375 49.5625 C-125 48 -125 48 -123 48 C-122.773125 47.38125 -122.54625 46.7625 -122.3125 46.125 C-121 44 -121 44 -118.4375 43.125 C-117.633125 42.75375 -116.82875 42.3825 -116 42 C-115.85046875 41.09378906 -115.7009375 40.18757813 -115.546875 39.25390625 C-114.48391851 32.92931513 -110.18702717 27.58210476 -105.0625 23.875 C-101.18072852 22.76592244 -98.0275624 22.79167781 -94 23 C-93.9071875 22.6596875 -93.9071875 22.6596875 -93.4375 20.9375 C-90.74567235 15.43680871 -87.46917502 12.05052174 -81.77734375 9.62890625 C-76.15557421 7.86101572 -71.53045482 6.6179275 -65.6875 7.75 C-62.32962529 8.33832185 -61.37097143 8.2427555 -58.45703125 6.3359375 C-56.20048562 4.30540518 -54.10405427 2.18567706 -52 0 C-48.21426132 -1.89286934 -43.7707211 -1.5409663 -39.80078125 -0.328125 C-37.86089559 0.43205201 -35.9299483 1.21493629 -34 2 C-31 2 -31 2 -29.6015625 0.60546875 C-29.07304687 0.07566406 -28.54453125 -0.45414063 -28 -1 C-18.17713882 -5.30858351 -9.31076027 -5.39354824 0 0 Z " fill="#0A0909" transform="translate(191,22)"/>
<path d="M0 0 C1.28751357 3.78834888 2.56909069 7.57864846 3.84521484 11.37084961 C4.28011228 12.66046159 4.71662422 13.94953029 5.15478516 15.23803711 C5.78452574 17.0908453 6.40797257 18.94578889 7.03125 20.80078125 C7.21977539 21.3585022 7.21977539 21.3585022 8.17382812 24.1809082 C9 27 9 27 9 30 C-20.73384596 41.42205135 -20.73384596 41.42205135 -28 39 C-27.46574315 51.1940869 -25.56266012 63.09153141 -23.625 75.125 C-23.31714561 77.05980638 -23.00985121 78.99470195 -22.703125 80.9296875 C-22.55188171 81.88341248 -22.40063843 82.83713745 -22.24481201 83.81976318 C-22.09441467 84.76869446 -21.94401733 85.71762573 -21.7890625 86.6953125 C-21.63979309 87.6369928 -21.49052368 88.5786731 -21.33673096 89.54888916 C-21.03863609 91.43085358 -20.74088331 93.31287223 -20.44348145 95.19494629 C-20.14615688 97.07554665 -19.84788791 98.95599793 -19.54870605 100.83630371 C-19.11804896 103.55409436 -18.69477685 106.27293866 -18.2734375 108.9921875 C-18.1443399 109.7991507 -18.01524231 110.60611389 -17.88223267 111.43753052 C-17.1807226 116.01881951 -16.87439981 120.36512187 -17 125 C-18.21655273 125.10546143 -19.43310547 125.21092285 -20.68652344 125.31958008 C-26.37465724 125.81371705 -32.06235746 126.31274455 -37.75 126.8125 C-38.26315262 126.85743591 -38.26315262 126.85743591 -40.86001587 127.08483887 C-53.15534638 128.1643337 -65.42656567 129.33217612 -77.6875 130.75 C-87.83666647 131.91311244 -97.7919071 132.36457475 -108 132 C-106.47583677 114.98134788 -104.83194395 97.98166246 -102.9375 81 C-102.85568481 80.2639856 -102.77386963 79.52797119 -102.6895752 78.76965332 C-101.9759652 72.36721466 -101.25733309 65.96613334 -100.43847656 59.57617188 C-100.34627335 58.85550537 -100.25407013 58.13483887 -100.15907288 57.39233398 C-99.90302406 55.40763646 -99.64246115 53.42352279 -99.3815918 51.43945312 C-98.91613867 47.2441213 -98.84948809 43.21433353 -99 39 C-100.051875 39.20625 -101.10375 39.4125 -102.1875 39.625 C-111.72327501 40.7833952 -121.16147166 37.87151251 -130.125 34.90234375 C-132.74363685 34.0804618 -135.30070654 33.48130784 -138 33 C-137.54325133 25.81658914 -136.19394293 19.3020752 -134.0625 12.4375 C-133.79759766 11.53708984 -133.53269531 10.63667969 -133.25976562 9.70898438 C-131.76870821 4.80662439 -131.76870821 4.80662439 -131 3 C-127.88194356 1.44097178 -125.70510137 2.81494748 -122.4375 3.8125 C-121.15410223 4.19165246 -119.87024755 4.56926182 -118.5859375 4.9453125 C-117.40257813 5.29335937 -116.21921875 5.64140625 -115 6 C-108.24632795 7.91390706 -101.65825523 8.36233731 -94.6484375 8.65625 C-90.87502177 9.01177525 -87.63187972 9.94170392 -84 11 C-69.08941913 13.37110154 -54.34183662 12.78061221 -40 8 C-38.10040217 7.82711993 -36.20049283 7.65689428 -34.29907227 7.50537109 C-23.90664289 6.63354151 -14.59238214 4.02960619 -4.79907227 0.51904297 C-3 0 -3 0 0 0 Z " fill="#FCFCFC" transform="translate(239,198)"/>
<path d="M0 0 C0.13051758 1.04937744 0.26103516 2.09875488 0.39550781 3.17993164 C10.61754948 85.32693631 10.61754948 85.32693631 14.64257812 104.0300293 C15.83270259 109.66593246 16.52783953 115.26015787 17 121 C4.58934722 123.75934886 -7.28550956 125.58583206 -20 126 C-20.04463379 125.08758545 -20.08926758 124.1751709 -20.13525391 123.23510742 C-20.65133988 114.12787916 -21.77564368 105.30290166 -23.375 96.3125 C-23.71658139 94.33549725 -24.05502991 92.35797412 -24.39329529 90.38040161 C-24.72474312 88.44361351 -25.05839717 86.50720338 -25.39208984 84.57080078 C-27.10163392 74.52911741 -28.67474879 64.46987188 -29.71142578 54.33496094 C-30.51100378 46.51878382 -31.54399432 38.75456724 -32.8125 31 C-32.95357178 30.03723145 -33.09464355 29.07446289 -33.23999023 28.08251953 C-33.39411377 27.18903809 -33.5482373 26.29555664 -33.70703125 25.375 C-33.8356958 24.57835937 -33.96436035 23.78171875 -34.09692383 22.9609375 C-35 21 -35 21 -37.58081055 19.7265625 C-37.97997681 19.60667969 -37.97997681 19.60667969 -40 19 C-43.54449951 36.38676256 -45.50378505 53.78410293 -47.1875 71.4375 C-47.57493451 75.42644355 -47.96758016 79.41487386 -48.35993958 83.40333557 C-48.60078763 85.86054513 -48.83911744 88.31800328 -49.07450867 90.77574158 C-49.9612875 99.96057303 -49.9612875 99.96057303 -50.56176758 104.00073242 C-50.9448703 106.6226917 -51.17484537 109.15985334 -51.28125 111.8046875 C-51.31863281 112.63484375 -51.35601562 113.465 -51.39453125 114.3203125 C-51.46580972 116.04683539 -51.53609641 117.77339947 -51.60546875 119.5 C-51.64285156 120.32242188 -51.68023437 121.14484375 -51.71875 121.9921875 C-51.74904297 122.73839355 -51.77933594 123.48459961 -51.81054688 124.25341797 C-52 126 -52 126 -53 127 C-55.53711875 126.96040511 -58.03260755 126.85266682 -60.5625 126.6875 C-61.31523193 126.64117432 -62.06796387 126.59484863 -62.84350586 126.54711914 C-70.60531946 126.02891036 -78.29723986 125.06781197 -86 124 C-86.06980076 116.69875254 -85.88659984 109.45555974 -85.44921875 102.16796875 C-85.4199807 101.66056656 -85.4199807 101.66056656 -85.27201843 99.09280396 C-85.0806123 95.79082505 -84.88431082 92.48916085 -84.6875 89.1875 C-84.55217465 86.88371188 -84.41692171 84.5799195 -84.28173828 82.27612305 C-83.35758987 66.61877531 -82.38563583 50.96449266 -81.375 35.3125 C-81.31283295 34.34186615 -81.25066589 33.3712323 -81.18661499 32.3711853 C-81.00962238 29.61838787 -80.82959327 26.86580751 -80.6484375 24.11328125 C-80.59749435 23.31858429 -80.54655121 22.52388733 -80.49406433 21.70510864 C-80.14282375 16.44895525 -79.61167655 11.23240211 -79 6 C-77.9076001 5.91959473 -76.8152002 5.83918945 -75.68969727 5.75634766 C-71.54993059 5.45064693 -67.41054262 5.14004417 -63.27124023 4.828125 C-61.49594596 4.69499793 -59.72055772 4.56311673 -57.94506836 4.43261719 C-48.20517932 3.71584075 -38.5117408 2.87654153 -28.81896973 1.67608643 C-23.06914939 0.97559982 -17.34851497 0.58556006 -11.5625 0.375 C-10.65435547 0.33632813 -9.74621094 0.29765625 -8.81054688 0.2578125 C-2.63685826 0 -2.63685826 0 0 0 Z " fill="#242C35" transform="translate(215,329)"/>
<path d="M0 0 C0.90625 1.70703125 0.90625 1.70703125 1.5 3.8125 C2.4581151 6.81991683 2.81899666 7.83910815 5.25 10 C7 12 7 12 7.0625 15.3125 C3.95893523 31.91657154 -3.50155082 46.55327785 -17 57 C-29.48858461 65.20814607 -42.93142916 68.57841083 -57.8125 68.4375 C-58.95106445 68.42920166 -60.08962891 68.42090332 -61.26269531 68.41235352 C-79.30297529 68.05139377 -96.97045815 61.93630721 -110 49 C-118.35403575 38.90755218 -123.56438615 28.13820363 -123.3984375 14.87890625 C-122.78421591 10.44085416 -120.9140759 8.34052604 -118 5 C-117.67 4.01 -117.34 3.02 -117 2 C-113.37 2.33 -109.74 2.66 -106 3 C-105.62875 4.340625 -105.2575 5.68125 -104.875 7.0625 C-102.71665315 13.46694042 -99.52456931 17.52336512 -93.6875 20.9375 C-87.18280341 22.81173461 -81.1356327 22.7890409 -74.8515625 20.09765625 C-68.89166993 16.56447099 -66.3599558 11.32290976 -64.640625 4.8203125 C-64 3 -64 3 -62 2 C-60.45386986 2.08651631 -58.91090613 2.24002636 -57.375 2.4375 C-56.55773437 2.53933594 -55.74046875 2.64117187 -54.8984375 2.74609375 C-54.27195312 2.82988281 -53.64546875 2.91367188 -53 3 C-52.79246094 3.65226563 -52.58492188 4.30453125 -52.37109375 4.9765625 C-49.89055728 12.01339819 -46.77794777 16.61102612 -40 20 C-25.25436083 21.1666459 -25.25436083 21.1666459 -19 16 C-16.16514169 12.62881714 -14.95379971 10.07479683 -14.3125 5.8125 C-13.88671875 3.7734375 -13.88671875 3.7734375 -13 2 C-9.04312703 -0.41938978 -4.41994645 -1.95166467 0 0 Z " fill="#DCA584" transform="translate(230,137)"/>
<path d="M0 0 C2 0 2 0 4.5 2.4375 C5.325 3.283125 6.15 4.12875 7 5 C9.67211451 6.33605725 11.89310529 6.11094769 14.875 6.1875 C18.15234375 6.42578125 18.15234375 6.42578125 21 7 C23.4375 9.875 23.4375 9.875 25 13 C29.21537245 16.49273717 33.72534549 16.66674296 39 17 C39.03738281 17.32033203 39.03738281 17.32033203 39.2265625 18.94140625 C40.22299598 25.4963755 42.0341994 29.55226003 47 34 C47.495 34.33 47.495 34.33 50 36 C50 37.32 50 38.64 50 40 C40.54464814 42.72442342 40.54464814 42.72442342 37 41 C35.64303184 39.06587979 34.48993367 37.06016663 33.3203125 35.0078125 C31.07897306 31.59938507 27.989412 29.60547322 24.11328125 28.42578125 C18.31124341 27.25679396 12.8713914 27.06596558 7.625 30.0625 C3.74774232 32.80628518 2.04323251 35.75636325 0 40 C-0.66 40.99 -1.32 41.98 -2 43 C-4.8203125 43.51171875 -4.8203125 43.51171875 -8.125 43.6875 C-8.67285156 43.72037109 -8.67285156 43.72037109 -11.4453125 43.88671875 C-12.28835937 43.92410156 -13.13140625 43.96148437 -14 44 C-14.30292969 43.46890625 -14.60585937 42.9378125 -14.91796875 42.390625 C-18.3039922 36.68126854 -21.7658017 32.65261221 -28 30 C-34.44516081 29.0492387 -39.79195042 29.5056196 -45.171875 33.2890625 C-47.29684809 35.27781937 -48.83191413 37.4305936 -50.5 39.8125 C-53.39628742 43.8273536 -53.39628742 43.8273536 -56.14453125 44.61328125 C-59.01822855 44.62881475 -61.41784292 44.29107854 -64 43 C-64.375 40.8125 -64.375 40.8125 -64 38 C-62.53932555 36.73408214 -61.07057475 35.47370299 -59.53125 34.3046875 C-54.86545246 30.32923755 -54.4917073 24.7038047 -54 19 C-52.9275 18.773125 -51.855 18.54625 -50.75 18.3125 C-46.0153821 16.65538374 -44.20124963 14.40249925 -42 10 C-41.43152344 10.03480469 -40.86304688 10.06960937 -40.27734375 10.10546875 C-33.48065443 10.34375001 -28.79327934 9.50678915 -23.5625 4.8125 C-23.3046875 4.5134375 -23.3046875 4.5134375 -22 3 C-20.989375 3.33 -19.97875 3.66 -18.9375 4 C-12.41313021 5.82840202 -7.93211106 5.31094571 -2 2 C-1.34 2 -0.68 2 0 2 C0 1.34 0 0.68 0 0 Z " fill="#DBA685" transform="translate(179,91)"/>
<path d="M0 0 C4.15903672 1.43966656 7.35524593 3.539027 10.0859375 7.0625 C12.52471054 12.23186508 11.59211611 18.19075634 9.875 23.4375 C6.97615106 27.39926021 3.61953253 29.46015582 -1 31 C-6.53522067 31.65120243 -9.80758063 30.57428014 -14.265625 27.47265625 C-17.602945 24.63894085 -18.75477326 21.90283533 -19.30859375 17.60546875 C-19.59088182 11.89982797 -18.96113378 8.37809523 -15 4 C-10.20662513 -0.2360057 -6.14861504 -0.89575147 0 0 Z " fill="#D6A485" transform="translate(201,123)"/>
<path d="M0 0 C4.46560729 2.15306066 7.06687518 4.42154648 9 9 C10.25416092 13.744 10.49280066 17.73444179 8.5625 22.3125 C6.02551222 26.66534547 2.79380257 28.64486147 -2 30 C-6.70598796 30.77624544 -10.60419414 30.51533671 -14.875 28.3125 C-18.13670081 25.8988414 -19.60255731 24.78131552 -21 21 C-21.66554045 16.03340439 -21.60156287 12.22626276 -19.375 7.6875 C-13.20032754 0.70037064 -9.53968869 -1.53316425 0 0 Z " fill="#D2A488" transform="translate(151,125)"/>
<path d="M0 0 C2.53589054 1.39732744 4.26027854 2.46122643 6.0625 4.6875 C5.0725 4.6875 4.0825 4.6875 3.0625 4.6875 C2.7325 5.6775 2.4025 6.6675 2.0625 7.6875 C1.258125 7.1925 0.45375 6.6975 -0.375 6.1875 C-4.76321666 4.33982983 -8.24205664 3.93017043 -12.9375 4.6875 C-17.32049083 6.87899542 -20.13824724 9.08940962 -21.9375 13.6875 C-22.6569304 19.65277706 -22.43946737 24.61568519 -18.9375 29.6875 C-16.25 32.0625 -16.25 32.0625 -13.9375 33.6875 C-14.9275 35.0075 -15.9175 36.3275 -16.9375 37.6875 C-22.28322422 33.50996255 -25.91610028 30.2570491 -27.9375 23.6875 C-27.9375 22.6975 -27.9375 21.7075 -27.9375 20.6875 C-29.39573212 20.6604957 -30.85410675 20.64110213 -32.3125 20.625 C-32.71855469 20.61919922 -32.71855469 20.61919922 -34.7734375 20.58984375 C-36.9375 20.6875 -36.9375 20.6875 -38.9375 21.6875 C-39.164375 22.863125 -39.39125 24.03875 -39.625 25.25 C-40.8703829 30.61769685 -43.79755434 34.14246779 -47.9375 37.6875 C-53.07076098 40.80710373 -59.02649633 41.5852264 -64.9375 40.6875 C-65.9275 40.0275 -66.9175 39.3675 -67.9375 38.6875 C-67.6075 37.3675 -67.2775 36.0475 -66.9375 34.6875 C-66.23625 34.73390625 -65.535 34.7803125 -64.8125 34.828125 C-58.40748082 35.07179421 -53.04694676 34.90997679 -47.9375 30.6875 C-44.88013165 25.96247618 -44.56687687 22.16278088 -45.4296875 16.765625 C-46.38739717 12.84638234 -47.97974481 10.55546564 -50.9375 7.875 C-55.5723327 6.04037872 -60.02298709 6.00492876 -64.9375 6.6875 C-67.39577834 7.77120667 -68.88198574 8.90975793 -70.9375 10.6875 C-71.2675 9.6975 -71.5975 8.7075 -71.9375 7.6875 C-73.5875 9.0075 -75.2375 10.3275 -76.9375 11.6875 C-75.17452034 6.92745491 -71.32275691 4.11965216 -67.0703125 1.56640625 C-62.25464094 -0.41807379 -56.44223324 -0.29499637 -51.6171875 1.59765625 C-46.83918346 4.42267385 -41.89684258 8.3566149 -40.30859375 13.87109375 C-40.18613281 14.47050781 -40.06367188 15.06992188 -39.9375 15.6875 C-35.78943725 15.42661555 -31.89709247 14.98790235 -27.9375 13.6875 C-26.30167636 11.76172879 -25.63940045 10.08900076 -24.7890625 7.72265625 C-20.82802513 -1.74385967 -8.56045534 -3.46060961 0 0 Z " fill="#180906" transform="translate(204.9375,119.3125)"/>
<path d="M0 0 C2.375 0.8125 2.375 0.8125 3.375 2.8125 C3.30317515 11.79060568 -0.0490648 17.42954125 -5.80859375 24.078125 C-8.37880812 26.53226517 -10.65875912 27.61925182 -14.125 28.3125 C-16.625 27.8125 -16.625 27.8125 -18.875 25 C-21.21208304 20.74317018 -21.74379512 17.91008486 -21.6875 13.125 C-21.67847656 12.13113281 -21.66945313 11.13726562 -21.66015625 10.11328125 C-21.64855469 9.35402344 -21.63695312 8.59476563 -21.625 7.8125 C-20.965 7.8125 -20.305 7.8125 -19.625 7.8125 C-18.635 10.1225 -17.645 12.4325 -16.625 14.8125 C-14.84765625 14.6484375 -14.84765625 14.6484375 -12.625 13.8125 C-10.80859375 11.4140625 -10.80859375 11.4140625 -9.0625 8.4375 C-3.8995683 -0.27854059 -3.8995683 -0.27854059 0 0 Z " fill="#D9A98B" transform="translate(323.625,122.1875)"/>
<path d="M0 0 C2.125 -0.4375 2.125 -0.4375 5 0 C9.43448235 3.81070606 12.29249734 8.89739883 15 14 C16.32 14 17.64 14 19 14 C19.99 12.02 20.98 10.04 22 8 C22.33 8 22.66 8 23 8 C23.5564472 20.73645814 23.5564472 20.73645814 20 26 C19 27 19 27 15.9375 27.5 C10.36868004 26.79284826 7.6693258 24.10007274 4 20 C-0.27217642 14.08279013 -1.26693206 9.20716571 -1 2 C-0.67 1.34 -0.34 0.68 0 0 Z " fill="#DBA686" transform="translate(20,124)"/>
<path d="M0 0 C0 0.66 0 1.32 0 2 C-6.98715473 3.29121786 -13.97485949 3.22102651 -21.0625 3.25 C-21.67963867 3.2603125 -21.67963867 3.2603125 -24.80273438 3.3125 C-33.63945062 3.34949306 -41.44824252 2.18216692 -50 0 C-50 -0.99 -50 -1.98 -50 -3 C-49.05640625 -3.12117188 -48.1128125 -3.24234375 -47.140625 -3.3671875 C-40.92229981 -4.17881629 -34.73678786 -5.01821344 -28.5625 -6.125 C-17.51857711 -7.93379163 -9.59420843 -6.39613896 0 0 Z " fill="#F2F3F2" transform="translate(251,463)"/>
<path d="M0 0 C0 0.99 0 1.98 0 3 C-37.30340545 11.45453915 -37.30340545 11.45453915 -46 6 C-43.730384 4.85170023 -41.45939222 3.70628022 -39.1875 2.5625 C-38.54490234 2.23701172 -37.90230469 1.91152344 -37.24023438 1.57617188 C-25.30946267 -4.42012271 -12.8346241 -1.47585 0 0 Z " fill="#EEEEEE" transform="translate(156,461)"/>
<path d="M0 0 C0.721875 0.12375 1.44375 0.2475 2.1875 0.375 C1.91289762 4.90593934 -0.05107648 7.55657744 -3.01953125 10.79296875 C-7.8886281 15.08923068 -13.88173109 15.99814506 -20.22265625 15.79296875 C-27.05053007 14.69103436 -33.67857343 10.93441849 -37.8125 5.375 C-37.625 3.0625 -37.625 3.0625 -36.8125 1.375 C-33.44392767 1.96727645 -31.77031337 3.11052838 -29.25 5.375 C-24.43259764 9.11186351 -19.82049563 9.76201812 -13.8125 9.375 C-9.74289396 8.09382773 -7.78132702 6.47433078 -5.25 3.1875 C-2.8125 0.375 -2.8125 0.375 0 0 Z " fill="#1A0906" transform="translate(189.8125,170.625)"/>
<path d="M0 0 C2.7671343 0.0065967 4.99367925 2.23314165 5.00027595 5.00027595 C4.99367925 7.76741025 2.7671343 9.9939552 0 10.0005519 C-2.7671343 9.9939552 -4.99367925 7.76741025 -5.00027595 5.00027595 C-4.99367925 2.23314165 -2.7671343 0.0065967 0 0 Z " fill="#0A0101" transform="translate(194,132.99972405)"/>
<path d="M0 0 C2.7671343 0.0065967 4.99367925 2.23314165 5.00027595 4.00027595 C4.99367925 6.76741025 2.7671343 8.9939552 0 9.0005519 C-2.21370744 8.99521935 -3.9949434 7.21398339 -4.00022076 4.00027595 C-3.9949434 1.78656851 -2.21370744 0.00533255 0 0.00005519 Z " fill="#120502" transform="translate(146,134.99972405)"/>
<path d="M0 0 C0.68359375 1.734375 0.68359375 1.734375 1 4 C-0.21484375 6.140625 -0.21484375 6.140625 -1.9375 8.25 C-2.50339844 8.95640625 -3.06929688 9.6628125 -3.65234375 10.390625 C-3.87470703 10.65617188 -3.87470703 10.65617188 -5 12 C-2.75 11.875 -2.75 11.875 0 11 C1.39712274 9.04402816 2.73779907 7.04563599 4 5 C4.66 5 5.32 5 6 5 C6 4.34 6 3.68 6 3 C6.66 3 7.32 3 8 3 C7.07477312 7.40213209 5.40446207 10.97750197 2 14 C-1.49455011 14.83012302 -4.74106071 14.62946964 -8 13 C-8.375 10.8125 -8.375 10.8125 -8 8 C-5.125 5.375 -5.125 5.375 -2 3 C-1.34 2.01 -0.68 1.02 0 0 Z " fill="#C59E87" transform="translate(123,121)"/>
<path d="M0 0 C5.24883751 1.81690529 7.90424948 4.53847719 11 9 C11 10.32 11 11.64 11 13 C10.34 13 9.68 13 9 13 C8.01 10.69 7.02 8.38 6 6 C5.34 6 4.68 6 4 6 C3.67 5.34 3.34 4.68 3 4 C-1.01410243 2.81938164 -4.85508493 2.49975163 -9 3 C-11.60626836 4.74259268 -13.81004179 6.76344693 -16 9 C-16.33 8.01 -16.66 7.02 -17 6 C-11.04294086 0.94944986 -7.95771831 -0.72587295 0 0 Z " fill="#CBA58E" transform="translate(201,123)"/>
<path d="M0 0 C1.65 0.66 3.3 1.32 5 2 C2.73604414 4.26395586 0.95702102 4.83094518 -2 6 C-2.825 6.515625 -3.65 7.03125 -4.5 7.5625 C-9.71775749 10.56271056 -15.14905813 10.11472435 -21 10 C-20.67 9.01 -20.34 8.02 -20 7 C-19.43152344 7.03480469 -18.86304688 7.06960937 -18.27734375 7.10546875 C-11.48065443 7.34375001 -6.79327934 6.50678915 -1.5625 1.8125 C-1.046875 1.214375 -0.53125 0.61625 0 0 Z " fill="#C6A28E" transform="translate(157,94)"/>
<path d="M0 0 C0.66 0 1.32 0 2 0 C2 1.98 2 3.96 2 6 C2.99 6.33 3.98 6.66 5 7 C5.78808478 8.93737509 6.56550829 10.88158572 7.234375 12.86328125 C8 15 8 15 9.75 18.375 C9.95625 18.808125 9.95625 18.808125 11 21 C10.67 21.66 10.34 22.32 10 23 C4.51935084 15.80758645 0 9.27678873 0 0 Z " fill="#D4AD97" transform="translate(108,160)"/>
<path d="M0 0 C2.12024286 2.04541076 3.93908728 4.18040393 5.75 6.5 C10.2978385 11.77060013 15.16565472 13.03636103 21.9375 13.6875 C23.62424306 13.80327913 25.31160805 13.91145865 27 14 C27 14.33 27 14.66 27 15 C10.76948466 15.47971967 10.76948466 15.47971967 6.05859375 11.26171875 C2.64491625 7.59977379 0.68779279 5.05263162 0 0 Z " fill="#D2AD97" transform="translate(124,146)"/>
<path d="M0 0 C0 0.66 0 1.32 0 2 C-0.94101563 1.96519531 -1.88203125 1.93039063 -2.8515625 1.89453125 C-4.09679687 1.86746094 -5.34203125 1.84039062 -6.625 1.8125 C-7.85476562 1.77769531 -9.08453125 1.74289063 -10.3515625 1.70703125 C-14.27982511 2.0224699 -16.59394692 3.09720495 -20 5 C-20.66 5 -21.32 5 -22 5 C-21.375 3.125 -21.375 3.125 -20 1 C-17.25 -0.1875 -17.25 -0.1875 -14 -1 C-13.05125 -1.2475 -12.1025 -1.495 -11.125 -1.75 C-7.00352538 -2.07971797 -3.96016437 -1.16073783 0 0 Z " fill="#D5AF99" transform="translate(154,119)"/>
<path d="M0 0 C2.91517292 1.07401108 4.77810176 1.77810176 7 4 C4.87790224 4.69640673 2.75221473 5.38188357 0.625 6.0625 C0.03332031 6.25392578 0.03332031 6.25392578 -2.9609375 7.22265625 C-6 8 -6 8 -8 7 C-5.36 4.69 -2.72 2.38 0 0 Z " fill="#E1E1E1" transform="translate(223,191)"/>
<path d="M0 0 C0.66 0.33 1.32 0.66 2 1 C-2.09513649 5.09513649 -4.93247958 6.71175292 -10.7421875 7.0859375 C-14.10573436 6.95791322 -16.84065836 6.14274059 -20 5 C-20 4.01 -20 3.02 -20 2 C-19.5875 2.165 -19.5875 2.165 -17.5 3 C-12.36303508 4.46770426 -8.02705308 4.99196214 -3.0625 2.5625 C-1 1 -1 1 0 0 Z " fill="#CAA38E" transform="translate(183,174)"/>
<path d="M0 0 C0.66 0 1.32 0 2 0 C2.680625 0.78375 3.36125 1.5675 4.0625 2.375 C7.82732904 5.73931531 11.11185793 6.28648035 16 7 C16 7.33 16 7.66 16 8 C10.45388388 8.31996824 7.46359312 8.455685 3 5 C0.28136599 4.73077605 -2.25846729 4.86292336 -5 5 C-3.625 3.5 -3.625 3.5 -2 2 C-1.34 2 -0.68 2 0 2 C0 1.34 0 0.68 0 0 Z " fill="#C5A18E" transform="translate(179,91)"/>
<path d="M0 0 C1.90625 0.26171875 1.90625 0.26171875 4 1 C4.90625 2.70703125 4.90625 2.70703125 5.5 4.8125 C6.45394298 7.77446659 6.92211698 8.92211698 9.1875 11.1875 C11 13 11 13 11.25 15.75 C11.1675 16.4925 11.085 17.235 11 18 C8.81647238 15.81647238 7.57055361 13.65785996 6 11 C5.6390625 10.4740625 5.6390625 10.4740625 3.8125 7.8125 C2 5 2 5 2 3 C1.34 3 0.68 3 0 3 C0 2.01 0 1.02 0 0 Z " fill="#BD9B89" transform="translate(226,136)"/>
<path d="M0 0 C2.5625 0.3125 2.5625 0.3125 4.375 1.4375 C6.05356106 4.08785957 5.76700238 6.24496424 5.5625 9.3125 C5.2325 9.4775 5.2325 9.4775 3.5625 10.3125 C3.2325 8.0025 2.9025 5.6925 2.5625 3.3125 C0.9125 3.6425 -0.7375 3.9725 -2.4375 4.3125 C-2.7675 5.9625 -3.0975 7.6125 -3.4375 9.3125 C-3.7675 9.3125 -4.0975 9.3125 -4.4375 9.3125 C-4.5625 5.9375 -4.5625 5.9375 -4.4375 2.3125 C-2.4375 0.3125 -2.4375 0.3125 0 0 Z " fill="#240E09" transform="translate(193.4375,132.6875)"/>
<path d="M0 0 C0.66 0.33 1.32 0.66 2 1 C1.67 2.32 1.34 3.64 1 5 C-0.98 5.165 -0.98 5.165 -11 6 C-11.33 4.68 -11.66 3.36 -12 2 C-11.34 1.67 -10.68 1.34 -10 1 C-10 1.66 -10 2.32 -10 3 C-8.5199159 2.88637738 -7.04089926 2.75877092 -5.5625 2.625 C-5.15064453 2.59019531 -5.15064453 2.59019531 -3.06640625 2.4140625 C-2.72544922 2.34574219 -2.72544922 2.34574219 -1 2 C-0.67 1.34 -0.34 0.68 0 0 Z " fill="#D2AB95" transform="translate(176,129)"/>
<path d="M0 0 C2.1875 -0.375 2.1875 -0.375 5 0 C7.19925447 1.82787641 8.37675026 3.56512539 10 6 C9.67 6.99 9.34 7.98 9 9 C8.7009375 8.505 8.7009375 8.505 7.1875 6 C6.465625 5.01 5.74375 4.02 5 3 C4.01 3 3.02 3 2 3 C1.34 4.98 0.68 6.96 0 9 C-0.33 9 -0.66 9 -1 9 C-1.125 2.25 -1.125 2.25 0 0 Z " fill="#D3AE96" transform="translate(20,124)"/>
</svg>
