<?xml version="1.0" encoding="UTF-8"?>
<!-- Generated by @neplex/vectorizer (Using visioncortex VTracer) -->
<svg version="1.1" xmlns="http://www.w3.org/2000/svg" width="334" height="501">
<path d="M0 0 C0.33 0.99 0.66 1.98 1 3 C1.99 2.484375 2.98 1.96875 4 1.4375 C8.22304644 -0.34556405 11.64188943 -0.42888871 16 1 C20.80615471 4.13871328 23.90337394 8.22899444 27.33203125 12.79296875 C28.75132551 14.67095765 30.21548009 16.46663902 31.75 18.25 C33.78676479 20.73937919 35.35097454 23.25162423 37 26 C39.54476281 27.27238141 41.79753972 27.35464708 44.625 27.6875 C50.65436243 28.67306886 54.90530819 30.37353004 59 35 C60.71221246 38.42442492 61.3888553 40.47407816 60.43359375 44.22265625 C59.71696609 46.1855929 58.86721938 48.09878827 58 50 C58.66386719 50.29132813 59.32773437 50.58265625 60.01171875 50.8828125 C65.72568699 53.53542841 69.46143941 55.74923267 73 61 C75.23591655 67.70774965 73.62804716 72.758388 71 79 C74 78 74 78 75.39453125 75.734375 C75.86246094 74.74953125 76.33039063 73.7646875 76.8125 72.75 C77.33070313 71.66589844 77.84890625 70.58179687 78.3828125 69.46484375 C78.91648437 68.32144531 79.45015625 67.17804688 80 66 C80.53367187 64.88753906 81.06734375 63.77507812 81.6171875 62.62890625 C88.48423638 48.126109 88.48423638 48.126109 89 44 C88.03275905 41.74284486 86.87721014 40.00300032 85.421875 38.02734375 C81.54748095 32.50313905 80.35219436 26.50139927 81.42578125 19.88671875 C82 18 82 18 83.75 15.9375 C86.43883643 14.81715149 88.11602499 14.55631154 91 15 C92.65234375 16.5234375 92.65234375 16.5234375 94 18 C94.18175781 17.62617187 94.18175781 17.62617187 95.1015625 15.734375 C100.40186604 5.35121626 100.40186604 5.35121626 106 3 C109.0980601 2.32172649 110.71294479 2.4782452 114 3 C117.08673558 5.42529224 118.75906446 8.27719337 120 12 C121.09973881 21.5010222 118.64913411 30.73356809 113.0625 38.5 C109.37712206 42.96319641 105.61115931 46.27348944 100 48 C98.68 48 97.36 48 96 48 C95.87399414 48.7319458 95.74798828 49.4638916 95.61816406 50.21801758 C95.02893695 52.8697723 94.23017217 55.04569938 93.109375 57.51171875 C92.73151855 58.34767578 92.35366211 59.18363281 91.96435547 60.04492188 C91.56361816 60.91697266 91.16288086 61.78902344 90.75 62.6875 C90.54769775 63.13448242 90.54769775 63.13448242 89.52392578 65.39648438 C87.09021709 70.74148176 84.56066448 76.00326315 81.6796875 81.125 C80.81297849 83.5159214 81.08049683 84.65335129 82 87 C82.70125 87.86625 83.4025 88.7325 84.125 89.625 C87.82126309 96.27827356 84.94236963 104.00746932 83 111 C83.845625 111.165 84.69125 111.33 85.5625 111.5 C90.36526976 113.59575408 93.25687761 116.55126856 96 121 C97.52328407 126.29571242 95.61622835 130.5896275 93.0703125 135.23828125 C92.0897112 136.85233667 91.04759854 138.42860218 90 140 C90.721875 140.20625 91.44375 140.4125 92.1875 140.625 C95.95992464 142.46929649 97.69213669 144.50523557 100 148 C100.53886591 151.83941962 100.4091593 154.0955426 98.8125 157.625 C96.74620504 160.33255891 94.47237421 162.66126764 92 165 C92.66 165.99 93.32 166.98 94 168 C94.103125 169.010625 94.20625 170.02125 94.3125 171.0625 C94.95655359 174.75117055 95.78957662 176.67278165 97.5625 179.875 C100.1065436 184.72711794 100.95544481 188.57888921 100 194 C98.45441817 198.17307095 96.88149141 200.7462308 93 203 C92.34 203 91.68 203 91 203 C90.95681641 203.41121094 90.95681641 203.41121094 90.73828125 205.4921875 C89.61076155 214.45027979 87.82044947 221.8856698 81.5625 228.625 C76.67260251 230.51232885 72.24266877 230.24575817 67.046875 230.04296875 C64 230 64 230 62 231 C61.401875 232.134375 60.80375 233.26875 60.1875 234.4375 C58.79851037 236.92440423 58.13235163 237.91415029 55.6875 239.5 C51.45549939 240.28734895 47.70377065 240.06485665 44 237.75 C43 236 43 236 43.3125 233.3125 C43.4259375 232.9309375 43.4259375 232.9309375 44 231 C45.98 231 47.96 231 50 231 C49.4534375 230.79375 49.4534375 230.79375 46.6875 229.75 C43.49495052 228.37345538 41.63994358 227.18341988 40 224 C40 222.68 40 221.36 40 220 C39.01 220.33 38.02 220.66 37 221 C35.0625 221.16796875 35.0625 221.16796875 33 221.1875 C32.319375 221.20167969 31.63875 221.21585938 30.9375 221.23046875 C29 221 29 221 26 219 C25.278125 219.969375 24.55625 220.93875 23.8125 221.9375 C21.51464605 225.02318959 19.7254732 225.36096865 16 226 C16.17958252 226.91209229 16.35916504 227.82418457 16.54418945 228.76391602 C18.55780475 239.21665216 20.24910911 249.69741303 21.78979492 260.22973633 C22.19074399 262.95958658 22.60205678 265.68775572 23.01367188 268.41601562 C23.27406742 270.18219891 23.53385507 271.94847195 23.79296875 273.71484375 C23.85388451 274.11493401 23.85388451 274.11493401 24.16215515 276.13963318 C26.10019924 289.62588584 26.10019924 289.62588584 23.8125 294.5625 C21.44230775 296.44230765 19.95031547 296.11105934 17 296 C17.17305664 297.15701416 17.34611328 298.31402832 17.52441406 299.50610352 C19.1032496 310.2251074 20.50994347 320.95688581 21.796875 331.71484375 C28.59374696 388.34016774 28.59374696 388.34016774 34.33813477 415.578125 C35 419 35 419 35.36303711 422.25 C36.17170119 429.20141191 36.17170119 429.20141191 38.57226562 431.51586914 C40.61103836 432.70165985 42.60049315 433.55953176 44.8125 434.375 C56.18462898 439.00618375 56.18462898 439.00618375 58.9375 445.0625 C59.02661095 447.82493952 58.7619168 448.81522316 57 451 C42.50712158 458.6527816 20.92792555 455.885123 5.3125 453.6875 C4.88573975 453.62868652 4.88573975 453.62868652 2.72607422 453.33105469 C-1.99554907 452.58768658 -5.85019566 451.51189404 -10 449 C-12.10831259 446.02919589 -12 444.80885177 -12 441 C-12.804375 440.855625 -13.60875 440.71125 -14.4375 440.5625 C-17 440 -17 440 -18 439 C-18.30228912 436.81735385 -18.54365526 434.6262568 -18.76171875 432.43359375 C-18.90913759 431.00329024 -19.05702896 429.57303538 -19.20532227 428.14282227 C-19.24436172 427.76033829 -19.24436172 427.76033829 -19.44192505 425.82473755 C-21.37777867 407.00627735 -24.07570145 388.34156813 -26.97535706 369.65092468 C-27.98961046 363.10730279 -28.94960058 356.55680055 -29.875 350 C-29.99496338 349.15187744 -30.11492676 348.30375488 -30.23852539 347.42993164 C-30.49368889 345.62014266 -30.74711712 343.81010906 -31 342 C-34.06971224 366.1827712 -36.66230264 390.40576916 -39.14320374 414.65533447 C-40.07634268 423.77224911 -41.03500027 432.88640942 -42 442 C-43.98 442.33 -45.96 442.66 -48 443 C-48.20625 444.093125 -48.4125 445.18625 -48.625 446.3125 C-50 450 -50 450 -52.47265625 451.59765625 C-56.86128969 453.3424175 -61.18160915 454.26038259 -65.8125 455.125 C-66.66392578 455.29386719 -67.51535156 455.46273438 -68.39257812 455.63671875 C-81.65196958 458.20174954 -98.00099805 460.71087861 -111 456 C-113.265625 454.42578125 -113.265625 454.42578125 -115 453 C-115.1822337 450.0235162 -115.21153409 448.661233 -114 446 C-109.19699331 441.82121079 -103.66610005 439.21958593 -97.79077148 436.89526367 C-96.89285385 436.53913498 -95.99493622 436.18300629 -95.06980896 435.81608582 C-94.386772 435.5467775 -93.70373505 435.27746918 -93 435 C-92.41153616 426.54201812 -91.82927166 418.08361619 -91.25 409.625 C-91.16140717 408.3321106 -91.07281433 407.03922119 -90.98153687 405.70715332 C-89.88723438 389.68588668 -88.84068642 373.66261523 -87.87890625 357.6328125 C-87.85631807 357.25677446 -87.85631807 357.25677446 -87.74200821 355.3537941 C-87.29930132 347.97587153 -86.86112626 340.5976994 -86.43155766 333.21899986 C-86.31006042 331.13803821 -86.18735469 329.05715164 -86.06419373 326.97628784 C-85.91398069 324.4338915 -85.76608975 321.89135645 -85.62098694 319.34866333 C-85.29443584 313.84872405 -84.90721431 308.43636434 -84 303 C-84.61875 302.896875 -85.2375 302.79375 -85.875 302.6875 C-88 302 -88 302 -90 299 C-90.09205627 297.1020813 -90.09205627 297.1020813 -89.86547852 294.91845703 C-89.78466537 294.08611542 -89.70385223 293.2537738 -89.62059021 292.39620972 C-89.5202095 291.48428864 -89.4198288 290.57236755 -89.31640625 289.6328125 C-89.21920792 288.66860382 -89.12200958 287.70439514 -89.02186584 286.71096802 C-88.6923222 283.47273505 -88.34614414 280.23649753 -88 277 C-87.75939348 274.6703361 -87.51966696 272.34058117 -87.28076172 270.01074219 C-86.64849346 263.88367162 -85.9983385 257.75865942 -85.34057617 251.63427734 C-84.93135991 247.81773468 -84.52710944 244.00068511 -84.12304688 240.18359375 C-83.86227629 237.74475988 -83.60121963 235.30595657 -83.33984375 232.8671875 C-83.22003647 231.7319162 -83.10022919 230.5966449 -82.97679138 229.42697144 C-82.86319778 228.37712067 -82.74960419 227.3272699 -82.63256836 226.24560547 C-82.53423203 225.32601044 -82.43589569 224.40641541 -82.33457947 223.45895386 C-82.03293636 221.24206202 -81.59337245 219.15479714 -81 217 C-82.65 217 -84.3 217 -86 217 C-86.04125 217.721875 -86.0825 218.44375 -86.125 219.1875 C-87.10492026 222.33724369 -88.43662122 224.03754774 -91.046875 226.05859375 C-95.69851634 228.30068488 -101.24266392 227.58577869 -106 226 C-106.0825 226.763125 -106.165 227.52625 -106.25 228.3125 C-107 231 -107 231 -108.5 232.8125 C-112.22103568 234.57999195 -115.94568653 234.57492106 -120 234 C-120.495 233.67 -120.495 233.67 -123 232 C-125.3046875 231.83984375 -125.3046875 231.83984375 -127.875 231.9375 C-130.79567337 232.0098782 -133.12450747 231.97406094 -136 231.375 C-136.66 231.25125 -137.32 231.1275 -138 231 C-138.66 231.66 -139.32 232.32 -140 233 C-143.06432153 233 -145.14944557 232.77590471 -147.46875 230.66015625 C-151.52029784 225.84305432 -152.22284009 223.23952261 -152 217 C-151.67 216.34 -151.34 215.68 -151 215 C-151.86625 214.979375 -152.7325 214.95875 -153.625 214.9375 C-158.36866257 213.61981595 -160.56013817 211.21646025 -163 207 C-164.36095074 203.03956133 -164.69650375 199.64991462 -163.046875 195.7421875 C-162.85351562 195.37222656 -162.85351562 195.37222656 -161.875 193.5 C-160.08066866 189.95464877 -159.7876546 188.12181685 -161 184.3125 C-162.15953579 181.48460258 -163.38731867 179.45775386 -165.1875 176.9375 C-167.49396672 173.19943324 -167.90407503 170.22157068 -167 166 C-164.94344913 161.2353955 -162.15123467 157.10307388 -159 153 C-159.18046875 152.69707031 -159.18046875 152.69707031 -160.09375 151.1640625 C-163.47374866 145.06128715 -165.30714971 139.99567161 -164 133 C-161.77633776 128.55267553 -159.00728765 125.89415219 -155 123 C-155.50603992 120.83125748 -155.99983813 119.00032373 -157 117 C-157.35642508 111.56451749 -157.36303488 108.48404651 -154 104 C-153.443125 103.236875 -152.88625 102.47375 -152.3125 101.6875 C-151.879375 101.130625 -151.44625 100.57375 -151 100 C-151.33427002 99.43321533 -151.66854004 98.86643066 -152.01293945 98.2824707 C-153.13751493 95.68201161 -153.04892151 94.27333945 -152.79296875 91.48046875 C-152.66146546 84.90168483 -155.32982395 80.04089297 -158.3125 74.3125 C-159.30957848 72.32992202 -160.30569655 70.34686069 -161.30078125 68.36328125 C-161.77515625 67.4395874 -162.24953125 66.51589355 -162.73828125 65.56420898 C-163.81515292 63.37566736 -164.72173916 61.20833892 -165.58203125 58.9296875 C-167 56 -167 56 -169.0859375 54.58203125 C-169.46363281 54.45505859 -169.46363281 54.45505859 -171.375 53.8125 C-179.55177244 50.6289747 -183.1257799 45.72617456 -187 38 C-189.69122734 31.51293709 -190.93574058 25.01181607 -190 18 C-188.6875 15.0625 -188.6875 15.0625 -187 13 C-186.566875 12.4225 -186.13375 11.845 -185.6875 11.25 C-183.12814948 9.3541848 -181.16489173 9.1241134 -178 9 C-170.71839433 11.62137804 -167.92269811 16.79161662 -164.734375 23.42578125 C-164.49203125 23.94527344 -164.2496875 24.46476562 -164 25 C-163.278125 24.484375 -162.55625 23.96875 -161.8125 23.4375 C-159 22 -159 22 -156.375 22.0625 C-153.33028258 23.26436214 -152.43981816 24.04458378 -151 27 C-150.14953215 33.92523824 -152.08643704 39.72463363 -155 46 C-155.56074219 46.62390625 -156.12148437 47.2478125 -156.69921875 47.890625 C-158 50 -158 50 -157.9375 53.17578125 C-156.80009979 57.81542627 -155.03162969 61.87916641 -153 66.1875 C-152.26793352 67.76297873 -151.53866167 69.33975971 -150.8125 70.91796875 C-150.65072266 71.26226929 -150.65072266 71.26226929 -149.83203125 73.00463867 C-149.00586595 74.9859324 -148.4638596 76.90706781 -148 79 C-145.37765289 77.16435702 -144.14333657 75.62930644 -143.4296875 72.49609375 C-143.14072278 70.56528402 -142.85298296 68.63429061 -142.56640625 66.703125 C-141.71957355 62.66168893 -139.92858328 59.92858328 -137 57 C-136.72947385 55.27392556 -136.48366394 53.54394983 -136.25 51.8125 C-135.49696034 47.71320665 -134.78323622 44.39345132 -131.83203125 41.24609375 C-129.32144239 39.53846508 -126.66851056 38.70335046 -123.8125 37.6875 C-118.28304215 35.58872768 -118.28304215 35.58872768 -117.0234375 32.96875 C-116.79760065 31.43516024 -116.61328024 29.89493895 -116.46875 28.3515625 C-115.5807631 23.89682822 -112.30800786 20.93324444 -109 18 C-106.17252822 16.44489052 -103.78379108 15.95195357 -100.625 15.25 C-97.25520423 14.08800146 -96.24719254 13.50371602 -93.8125 11.1875 C-84.62100286 2.7602397 -73.20499667 1.73473271 -61.375 2.1875 C-55.47964158 2.62594877 -51.70638761 3.44151181 -47 7 C-47 7.66 -47 8.32 -47 9 C-46.319375 8.278125 -45.63875 7.55625 -44.9375 6.8125 C-36.66055415 -1.30215279 -36.66055415 -1.30215279 -30.25 -1.375 C-27.50952215 -1.25043283 -25.64207524 -0.88069175 -23 0 C-21.30824337 -1.30135125 -19.64295195 -2.63755204 -18 -4 C-11.70235258 -6.82308332 -4.92772594 -4.08640687 0 0 Z " fill="#0A0A0A" transform="translate(202,24)"/>
<path d="M0 0 C9.77117933 4.19079926 17.57832612 15.78025744 24 24 C22.44064367 27.74061812 20.12945322 30.11465636 17.2734375 32.95703125 C16.8069278 33.42308273 16.34041809 33.88913422 15.85977173 34.36930847 C14.8719326 35.35413345 13.88167105 36.33653381 12.88916016 37.31665039 C11.39566953 38.79208043 9.9101425 40.2751574 8.42578125 41.75976562 C-4.58637707 54.72425138 -4.58637707 54.72425138 -11 59 C-12.32 58.34 -13.64 57.68 -15 57 C-15.33 57.33 -15.66 57.66 -16 58 C-15.86099135 66.93234825 -14.21839314 75.85383494 -12.85711479 84.66760635 C-12.48726704 87.06502889 -12.12315965 89.46326403 -11.76051331 91.86178589 C-10.72995124 98.67194441 -9.69028267 105.48069479 -8.64477539 112.28857422 C-8.00193032 116.47712019 -7.36635497 120.66671927 -6.73506355 124.85702133 C-6.4950614 126.44010611 -6.25229892 128.02277522 -6.00658989 129.60498428 C-4.73708523 137.78214538 -3.68870183 145.69495463 -4 154 C-4.38837036 154.01981934 -4.38837036 154.01981934 -6.35375977 154.12011719 C-24.08061253 155.05891036 -41.55396133 156.6523019 -59.13671875 159.09765625 C-70.21935882 160.59956678 -81.06799039 161.14141755 -92.25 161.0625 C-92.86681641 161.06024414 -92.86681641 161.06024414 -95.98828125 161.04882812 C-98.99224069 161.03718487 -101.99609266 161.02083376 -105 161 C-105.26461474 154.24742393 -104.23972134 147.740239 -103.3125 141.0625 C-101.37795361 126.73650867 -99.80908448 112.37765009 -98.3125 98 C-98.2042691 96.97029083 -98.09603821 95.94058167 -97.98452759 94.87966919 C-96.76634811 83.26280873 -95.64839022 71.66411385 -95 60 C-95.99 59.67 -96.98 59.34 -98 59 C-98.33 59.99 -98.66 60.98 -99 62 C-101.9409958 60.62953039 -104.41381419 59.0443382 -106.9765625 57.05859375 C-107.35095459 56.7687561 -107.35095459 56.7687561 -109.24560547 55.30200195 C-110.03080566 54.68671631 -110.81600586 54.07143066 -111.625 53.4375 C-112.42953613 52.80996826 -113.23407227 52.18243652 -114.06298828 51.53588867 C-119.24707316 47.46148439 -124.24263224 43.27975509 -129.0546875 38.76953125 C-130.95485071 37.04106954 -132.92075929 35.50581783 -135 34 C-134.67793587 28.5560773 -131.42959929 25.5905812 -127.9375 21.75 C-127.35202393 21.0912085 -126.76654785 20.43241699 -126.16333008 19.75366211 C-124.45009968 17.82854893 -122.72545831 15.91414818 -121 14 C-119.3949 12.18832648 -117.79053279 10.37600292 -116.1875 8.5625 C-115.12602399 7.37408459 -114.06400255 6.1861539 -113 5 C-106.61229349 10.29218956 -100.88542905 16.09841733 -95.140625 22.07421875 C-94.42132813 22.80769531 -93.70203125 23.54117188 -92.9609375 24.296875 C-92.31946777 24.96041992 -91.67799805 25.62396484 -91.01708984 26.30761719 C-88.790859 28.17547391 -86.73625479 29.06636353 -84 30 C-84 29.01 -84 28.02 -84 27 C-83.34773438 27.13277344 -82.69546875 27.26554687 -82.0234375 27.40234375 C-81.14945313 27.57894531 -80.27546875 27.75554687 -79.375 27.9375 C-78.51648438 28.11152344 -77.65796875 28.28554687 -76.7734375 28.46484375 C-75.85820312 28.64144531 -74.94296875 28.81804687 -74 29 C-73.06671875 29.18304688 -72.1334375 29.36609375 -71.171875 29.5546875 C-57.70942554 31.44473582 -43.49436663 30.3997643 -31.05859375 24.8046875 C-29 24 -29 24 -26 24 C-26 24.66 -26 25.32 -26 26 C-18.51075768 21.10731447 -12.85760465 14.657159 -7 8 C-6.25492188 7.15695313 -5.50984375 6.31390625 -4.7421875 5.4453125 C-3.15295133 3.63731508 -1.57141399 1.82348381 0 0 Z " fill="#FCFCFC" transform="translate(224,160)"/>
<path d="M0 0 C2.18945821 1.01653417 3.94003719 1.94646178 5.75 3.5625 C9.46892154 5.93847765 13.62039687 6 18 6 C17.96519531 6.88042969 17.93039063 7.76085937 17.89453125 8.66796875 C17.88099609 9.24869141 17.88099609 9.24869141 17.8125 12.1875 C17.77769531 13.33605469 17.74289063 14.48460938 17.70703125 15.66796875 C18.03145928 19.35779688 18.68508045 21.13073165 21 24 C23.0859375 25.109375 23.0859375 25.109375 25.375 25.75 C26.16519531 25.97816406 26.95539063 26.20632812 27.76953125 26.44140625 C30.16927565 27.04239303 32.55682742 27.60593991 35 28 C34.94199219 28.59167969 34.88398438 29.18335937 34.82421875 29.79296875 C34.45243772 36.30444792 34.45243772 36.30444792 37.3125 39.9375 C40.70251167 42.53913686 42.94172627 44.20738291 47.1875 44.625 C48.445625 44.74875 49.70375 44.8725 51 45 C50.67773438 45.8559375 50.35546875 46.711875 50.0234375 47.59375 C48.29403823 53.34961321 47.63386024 60.37266339 49.79296875 66.10546875 C51.51337771 68.77506886 53.35560572 70.23707048 56 72 C55 74 54 76 53 78 C52.64878049 85.14146341 52.64878049 85.14146341 54.125 88.75 C55 91 55 91 54.5 93 C52.81018265 95.25308979 50.81873018 96.79992575 48.62109375 98.5390625 C46.88249697 100.1058943 45.65870222 101.71300265 44.3125 103.625 C34.82580678 116.56808532 24.65451765 123.61720343 8.67504883 126.61401367 C-7.8648537 129.00057805 -27.18838373 128.30061963 -41 118 C-43.54552402 115.72082576 -45.90456463 113.2954443 -48.25 110.8125 C-49.43791035 109.56442608 -50.63046953 108.32075676 -51.828125 107.08203125 C-52.3427832 106.53780518 -52.85744141 105.9935791 -53.38769531 105.43286133 C-55 104 -55 104 -57.17089844 103.0144043 C-57.77450195 102.67965088 -58.37810547 102.34489746 -59 102 C-59.144375 100.906875 -59.28875 99.81375 -59.4375 98.6875 C-60.11984235 94.21436685 -61.61428154 92.86483869 -65 90 C-64.67773438 89.46246094 -64.35546875 88.92492187 -64.0234375 88.37109375 C-62.0654664 83.83487827 -62.43246083 78.83728149 -63 74 C-65 70.75 -65 70.75 -67 69 C-66.195625 68.05125 -65.39125 67.1025 -64.5625 66.125 C-62.22957768 62.94784336 -61.74673691 60.8530598 -61.6875 56.9375 C-61.54345787 53.77337444 -61.46266523 52.48219998 -59.2421875 50.16796875 C-57.0625 48.625 -57.0625 48.625 -54.91015625 47.3515625 C-52.06212685 45.33639242 -51.23758153 43.22825169 -50.5859375 39.859375 C-50.51632813 39.16328125 -50.44671875 38.4671875 -50.375 37.75 C-50.25125 36.5125 -50.1275 35.275 -50 34 C-49.45730469 33.82984375 -48.91460937 33.6596875 -48.35546875 33.484375 C-47.64003906 33.24203125 -46.92460938 32.9996875 -46.1875 32.75 C-45.83365234 32.63398437 -45.83365234 32.63398437 -44.04296875 32.046875 C-41.39571717 30.69034838 -40.44191822 29.61617498 -39 27 C-38.52666434 24.41765989 -38.17418475 21.97604085 -37.9375 19.375 C-37.25667539 12.25667539 -37.25667539 12.25667539 -35 10 C-33.08972135 9.7998211 -31.16973489 9.68708098 -29.25 9.625 C-23.81689248 9.26713064 -21.12181057 8.48768586 -17 5 C-14 3 -14 3 -12.1875 3.1875 C-9.34008213 4.24511235 -6.68982288 5.59395622 -4 7 C-3.896875 6.401875 -3.79375 5.80375 -3.6875 5.1875 C-2.91123545 2.71756736 -1.92911079 1.67748765 0 0 Z " fill="#F5BA97" transform="translate(171,57)"/>
<path d="M0 0 C0.39960938 0.00161133 0.39960938 0.00161133 2.421875 0.00976562 C2.834375 0.01395508 2.834375 0.01395508 4.921875 0.03515625 C5.76234375 0.03966797 6.6028125 0.04417969 7.46875 0.04882812 C9.53648901 0.06057664 11.60419124 0.07851103 13.671875 0.09765625 C13.77733643 0.99669678 13.88279785 1.8957373 13.99145508 2.82202148 C15.13198367 12.54095886 16.27563826 22.25952459 17.42193604 31.9777832 C17.64533159 33.87252662 17.8683458 35.76731499 18.09130859 37.66210938 C18.80509748 43.71951776 19.53235914 49.77508982 20.27441406 55.82910156 C20.5564292 58.14827768 20.8339665 60.46800027 21.10839844 62.78808594 C22.95215585 78.33723669 25.19688199 93.6349201 28.56640625 108.93359375 C30.30803767 116.88078741 31.83601739 124.93530304 31.671875 133.09765625 C17.96955378 136.61708807 4.80717031 138.26976881 -9.328125 138.09765625 C-9.34794434 137.77192627 -9.34794434 137.77192627 -9.44824219 136.12353516 C-10.5986458 117.90457408 -12.19991636 99.60417804 -16.31884766 81.77929688 C-17.30683115 77.38528459 -17.94574035 73.00840703 -18.4765625 68.5390625 C-18.67945159 66.91859024 -18.88258475 65.29814852 -19.0859375 63.67773438 C-19.39399167 61.18439054 -19.6994334 58.69079108 -20 56.1965332 C-21.44170319 44.30603871 -23.52310704 32.74381786 -26.328125 21.09765625 C-27.648125 21.09765625 -28.968125 21.09765625 -30.328125 21.09765625 C-32.4186493 27.56197253 -33.7504174 34.0717387 -34.74609375 40.77734375 C-34.87383179 41.63554718 -35.00156982 42.49375061 -35.13317871 43.37796021 C-36.8855291 55.53432111 -38.07755553 67.75675214 -39.328125 79.97265625 C-39.59096669 82.50776659 -39.85415225 85.0428413 -40.11767578 87.57788086 C-41.89836141 104.74658556 -43.65439973 121.9181591 -45.328125 139.09765625 C-58.00915482 139.50672173 -69.85911964 138.42004306 -82.328125 136.09765625 C-82.43232844 126.65690322 -82.14840377 117.30967634 -81.5234375 107.890625 C-81.39574515 105.88108932 -81.2680529 103.87155363 -81.1403656 101.86201763 C-80.960729 99.05315987 -80.77693439 96.24457952 -80.59328461 93.43598175 C-80.3576034 89.81932526 -80.12639587 86.20238326 -79.89501953 82.58544922 C-79.80271421 81.14312678 -79.71039859 79.700805 -79.61807251 78.25848389 C-79.57272999 77.55010124 -79.52738747 76.8417186 -79.48067093 76.11186981 C-79.34447693 73.9878991 -79.20764163 71.86397055 -79.07064819 69.74005127 C-78.58652653 62.22379959 -78.11716812 54.70707392 -77.6875 47.1875 C-77.64425598 46.43197845 -77.60101196 45.67645691 -77.55645752 44.89804077 C-77.47620866 43.49408121 -77.39598644 42.09012012 -77.3157959 40.68615723 C-76.67050203 29.44070553 -75.80471892 18.2663613 -74.328125 7.09765625 C-73.57829346 7.04754395 -72.82846191 6.99743164 -72.0559082 6.94580078 C-68.5837337 6.71046243 -65.11220545 6.46659531 -61.640625 6.22265625 C-60.46177734 6.14402344 -59.28292969 6.06539063 -58.06835938 5.984375 C-51.15961844 5.49224551 -44.40544043 4.68477946 -37.5715332 3.5703125 C-31.99400065 2.75750836 -26.38679491 2.40946693 -20.765625 2.03515625 C-18.493272 1.88077404 -16.22112276 1.72335453 -13.94921875 1.5625 C-12.9636499 1.49667725 -11.97808105 1.43085449 -10.96264648 1.36303711 C-8.328125 1.09765625 -8.328125 1.09765625 -6.24731445 0.57470703 C-4.09804123 0.04046458 -2.2126053 -0.01580432 0 0 Z " fill="#232B34" transform="translate(199.328125,320.90234375)"/>
<path d="M0 0 C0.165 0.33 0.165 0.33 1 2 C-6.39517262 3.96422045 -13.30271796 4.3470148 -20.9375 4.3125 C-21.52809204 4.31185547 -21.52809204 4.31185547 -24.5168457 4.30859375 C-34.24880187 4.20277567 -43.50749076 3.08462948 -53 1 C-53.33 -0.32 -53.66 -1.64 -54 -3 C-53.43152344 -3.05478516 -53.43152344 -3.05478516 -50.5546875 -3.33203125 C-43.04679028 -4.09229363 -35.72513982 -4.94583643 -28.375 -6.6875 C-17.12191855 -9.17244819 -9.7289822 -5.71594205 0 0 Z " fill="#EDEEEE" transform="translate(251,468)"/>
<path d="M0 0 C4.55555556 0.55555556 4.55555556 0.55555556 6 2 C6.99856335 11.93652383 5.35461072 20.1777 -1 28 C-3.10336981 30.37772239 -5.05666459 31.78529015 -8 33 C-10.5 33 -10.5 33 -13 32 C-17.39298879 26.72841345 -19.41588171 20.86204818 -19 14 C-18.278125 14.804375 -17.55625 15.60875 -16.8125 16.4375 C-13.88586627 19.10398851 -12.75647576 19.4507338 -9 20 C-8.82984375 19.3709375 -8.6596875 18.741875 -8.484375 18.09375 C-4.68907563 4.68907563 -4.68907563 4.68907563 0 0 Z " fill="#EBB798" transform="translate(309,33)"/>
<path d="M0 0 C4.27006739 1.78747007 5.80210086 5.0172919 7.6875 9.125 C8.8824647 12.75274143 9.84539015 16.4005467 10.6875 20.125 C15.11840471 18.91657144 17.66862756 17.60831435 20.6875 14.125 C21.28609388 21.30812658 19.05080522 25.99933826 14.75 31.6875 C12.6875 33.125 12.6875 33.125 10.375 33.3125 C4.06901372 30.52613397 0.26873034 25.11362651 -2.5859375 19.01953125 C-4.08037276 15.12275114 -4.47185109 11.67729827 -4.5 7.5 C-4.51417969 6.53835937 -4.52835938 5.57671875 -4.54296875 4.5859375 C-4.23032923 1.24758333 -3.40016745 0.18379284 0 0 Z " fill="#EDBA9B" transform="translate(23.3125,39.875)"/>
<path d="M0 0 C0.825 0.165 0.825 0.165 5 1 C4.57749348 5.78840718 2.49339908 8.8543601 -1 12 C-11.84559977 19.5462911 -22.0120217 20.27640011 -35 19 C-41.14197701 17.28081712 -46.01083808 14.01862306 -50 9 C-50.8125 6.6875 -50.8125 6.6875 -51 5 C-49.24609375 4.32421875 -49.24609375 4.32421875 -47 4 C-45.03515625 5.14453125 -45.03515625 5.14453125 -43.0625 6.8125 C-35.53651307 13.11158647 -27.53400915 12.78768604 -18.13330078 12.23828125 C-11.41264726 11.48761086 -6.73984549 8.13566585 -2.375 3.1875 C-1.59125 2.135625 -0.8075 1.08375 0 0 Z " fill="#1B0D09" transform="translate(189,147)"/>
<path d="M0 0 C2.95645832 0.22155196 5.91515489 0.39307461 8.875 0.5625 C10.24742936 0.64658997 11.61982848 0.73117607 12.9921875 0.81640625 C13.48847656 0.84669922 13.48847656 0.84669922 16 1 C15.67 2.32 15.34 3.64 15 5 C11.66749315 5.65014606 8.33385757 6.2943192 5 6.9375 C4.06542969 7.11990234 3.13085938 7.30230469 2.16796875 7.49023438 C-6.56165993 9.16900912 -14.97405983 10.18058933 -23.875 10.1875 C-24.72835937 10.19974609 -25.58171875 10.21199219 -26.4609375 10.22460938 C-27.275625 10.22654297 -28.0903125 10.22847656 -28.9296875 10.23046875 C-29.66429199 10.23457764 -30.39889648 10.23868652 -31.15576172 10.24291992 C-33 10 -33 10 -35 8 C-23.71626165 0.03500822 -13.51966526 -1.56050701 0 0 Z " fill="#EAEAEB" transform="translate(131,465)"/>
<path d="M0 0 C3.0625 0.375 3.0625 0.375 5 1.9375 C6.52076219 5.42630737 6.00385898 7.74404394 5.0625 11.375 C2.0625 13.375 2.0625 13.375 -0.4375 13.1875 C-4.42818323 11.89052795 -4.42818323 11.89052795 -5.9375 9.375 C-5.48090474 0.69968997 -5.48090474 0.69968997 0 0 Z " fill="#1A0D0A" transform="translate(138.9375,110.625)"/>
<path d="M0 0 C2 2 2 2 2.25 5.4375 C2 9 2 9 0 12 C-3.5 12.375 -3.5 12.375 -7 12 C-9.31282587 8.53076119 -9.42478586 7.07794425 -9 3 C-6.78679539 -0.68867435 -4.02162985 -0.42783296 0 0 Z " fill="#0F0503" transform="translate(192,110)"/>
<path d="M0 0 C6.26221692 2.20023838 6.26221692 2.20023838 8 5 C7.875 8.5625 7.875 8.5625 7 12 C6.01 12.66 5.02 13.32 4 14 C1.4375 12.625 1.4375 12.625 -1 10 C-1.15019141 6.57778137 -0.64674116 3.35537 0 0 Z " fill="#F4F4F3" transform="translate(283,142)"/>
<path d="M0 0 C1.67542976 0.28604898 3.34385343 0.61781233 5 1 C5.375 3.1875 5.375 3.1875 5 6 C2.0625 8.6875 2.0625 8.6875 -1 11 C-1.33 11.66 -1.66 12.32 -2 13 C-2.66 13 -3.32 13 -4 13 C-4.75 10.375 -4.75 10.375 -5 7 C-3.51571399 4.37776138 -2.1352735 2.1352735 0 0 Z " fill="#EEEEEE" transform="translate(47,184)"/>
<path d="M0 0 C1.87547965 1.78170566 3.45805382 3.58297759 5.0625 5.625 C7 8 7 8 9 9 C8 11 7 13 6 15 C5.64878049 22.14146341 5.64878049 22.14146341 7.125 25.75 C8 28 8 28 7.4375 30.125 C5.62218977 32.49279595 3.6203654 33.62086032 1 35 C1.33 33.35 1.66 31.7 2 30 C2.66 30 3.32 30 4 30 C3.90460938 28.98679688 3.80921875 27.97359375 3.7109375 26.9296875 C3.59831177 25.57817872 3.48636886 24.22661293 3.375 22.875 C3.31054688 22.20984375 3.24609375 21.5446875 3.1796875 20.859375 C2.82645616 16.35567539 3.56158999 13.22262854 5 9 C3.1875 6.375 3.1875 6.375 1 4 C0.25 1.6875 0.25 1.6875 0 0 Z " fill="#DFB39C" transform="translate(218,120)"/>
<path d="M0 0 C0.66 0.33 1.32 0.66 2 1 C2 4.3 2 7.6 2 11 C1.34 11 0.68 11 0 11 C-1.44559461 16.38812535 -0.19026815 19.00618861 2 24 C2.1875 27.9375 2.1875 27.9375 2 31 C1.34 31 0.68 31 0 31 C-0.09796875 30.40832031 -0.1959375 29.81664062 -0.296875 29.20703125 C-1.25769801 24.12957861 -2.2985201 20.82486256 -6 17 C-5.195625 16.05125 -4.39125 15.1025 -3.5625 14.125 C-0.34415116 9.69749749 -0.11834408 5.3470006 0 0 Z " fill="#E7C1AA" transform="translate(110,109)"/>
<path d="M0 0 C1.98 0 3.96 0 6 0 C5.94199219 0.59167969 5.88398438 1.18335937 5.82421875 1.79296875 C5.45243772 8.30444792 5.45243772 8.30444792 8.3125 11.9375 C11.70251167 14.53913686 13.94172627 16.20738291 18.1875 16.625 C19.445625 16.74875 20.70375 16.8725 22 17 C22 17.33 22 17.66 22 18 C17.30869064 19.11697842 14.39192376 19.0557941 10 17 C4.76516778 13.0115564 3.15797848 7.97675413 1 2 C0.67 1.34 0.34 0.68 0 0 Z " fill="#DAB39D" transform="translate(200,85)"/>
<path d="M0 0 C0.66 0 1.32 0 2 0 C5.65083143 4.4024732 6.45374191 7.32822615 6 13 C3.13275314 12.42655063 2.1385485 12.1385485 0 10 C-0.1953125 7.6171875 -0.1953125 7.6171875 -0.125 4.875 C-0.10695312 3.96492187 -0.08890625 3.05484375 -0.0703125 2.1171875 C-0.04710937 1.41851562 -0.02390625 0.71984375 0 0 Z " fill="#E9EAE9" transform="translate(46,219)"/>
<path d="M0 0 C0.26554688 0.57234375 0.53109375 1.1446875 0.8046875 1.734375 C2.05676891 4.1076012 3.4936352 6.12213286 5.125 8.25 C5.66382813 8.95640625 6.20265625 9.6628125 6.7578125 10.390625 C7.16773438 10.92171875 7.57765625 11.4528125 8 12 C5.8125 12.75 5.8125 12.75 3 13 C0.1875 11.4375 0.1875 11.4375 -2 9 C-2.58763244 4.8865729 -2.33043558 3.49565336 0 0 Z " fill="#C9AC9D" transform="translate(214,83)"/>
<path d="M0 0 C2 1 2 1 2.8125 3.375 C4.30179088 6.66711668 5.83506315 7.37893478 9 9 C9.99 9.66 10.98 10.32 12 11 C10.20759337 10.88610125 8.41605165 10.75852313 6.625 10.625 C6.12613281 10.59019531 6.12613281 10.59019531 3.6015625 10.4140625 C1 10 1 10 -1 8 C-1.1875 4.4375 -1.1875 4.4375 -1 1 C-0.67 0.67 -0.34 0.34 0 0 Z " fill="#BDA498" transform="translate(196,68)"/>
<path d="M0 0 C0.33 0.99 0.66 1.98 1 3 C-0.109375 4.82421875 -0.109375 4.82421875 -1.75 6.6875 C-2.28109375 7.31011719 -2.8121875 7.93273437 -3.359375 8.57421875 C-5 10 -5 10 -8 10 C-8 10.66 -8 11.32 -8 12 C-9.65 12.66 -11.3 13.32 -13 14 C-13 13.01 -13 12.02 -13 11 C-11.42578125 9.82421875 -11.42578125 9.82421875 -9.3125 8.6875 C-5.21901187 6.30266145 -2.8162746 3.784369 0 0 Z " fill="#E1B8A0" transform="translate(193,152)"/>
<path d="M0 0 C0.66 0.33 1.32 0.66 2 1 C-2.20788009 6.75545909 -6.41509524 11.55487173 -12 16 C-11.67 14.68 -11.34 13.36 -11 12 C-10.34 12 -9.68 12 -9 12 C-8.731875 11.195625 -8.46375 10.39125 -8.1875 9.5625 C-7.795625 8.716875 -7.40375 7.87125 -7 7 C-6.01 6.67 -5.02 6.34 -4 6 C-3.65657551 4.66923011 -3.32380126 3.33568021 -3 2 C-2.01 1.34 -1.02 0.68 0 0 Z " fill="#E5BCA3" transform="translate(217,155)"/>
<path d="M0 0 C0.99 0.33 1.98 0.66 3 1 C-2.4380948 6.28703661 -10.24497161 11 -18 11 C-18 10.34 -18 9.68 -18 9 C-16.23141309 8.32739649 -14.46003984 7.66211605 -12.6875 7 C-11.70136719 6.62875 -10.71523437 6.2575 -9.69921875 5.875 C-7 5 -7 5 -4 5 C-4 4.34 -4 3.68 -4 3 C-2.68 2.67 -1.36 2.34 0 2 C0 1.34 0 0.68 0 0 Z " fill="#DFB69E" transform="translate(202,171)"/>
<path d="M0 0 C6.52538298 -0.47746705 11.33572308 2.054576 17 5 C12.19066291 6.14817507 9.24464324 5.75636919 4.625 4.0625 C3.56539062 3.68222656 2.50578125 3.30195313 1.4140625 2.91015625 C0.61742187 2.60980469 -0.17921875 2.30945313 -1 2 C-0.67 1.34 -0.34 0.68 0 0 Z " fill="#DBB29C" transform="translate(137,177)"/>
<path d="M0 0 C-1 3 -1 3 -3.6875 4.6875 C-9.44386496 7.00939511 -15.91696494 6.22779743 -22 6 C-22 5.67 -22 5.34 -22 5 C-20.12612523 4.6603981 -18.25083303 4.32861309 -16.375 4 C-15.33085937 3.814375 -14.28671875 3.62875 -13.2109375 3.4375 C-10.09425135 3.01284203 -7.14069188 2.92454794 -4 3 C-4 2.34 -4 1.68 -4 1 C-2 0 -2 0 0 0 Z " fill="#EBC2AA" transform="translate(181,154)"/>
<path d="M0 0 C0.556875 0.23525391 0.556875 0.23525391 3.375 1.42578125 C8.19791022 3.23437258 12.89396751 3.76003645 18 4.1875 C18.87011719 4.26935547 19.74023438 4.35121094 20.63671875 4.43554688 C22.75691206 4.63358691 24.87835199 4.81820556 27 5 C27 5.33 27 5.66 27 6 C24.16607074 6.08174796 21.33455181 6.14084985 18.5 6.1875 C17.70851562 6.21263672 16.91703125 6.23777344 16.1015625 6.26367188 C10.39269215 6.3338629 6.16755173 5.49648614 1 3 C0.67 2.01 0.34 1.02 0 0 Z " fill="#EBC0A8" transform="translate(146,162)"/>
<path d="M0 0 C1.87547965 1.78170566 3.45805382 3.58297759 5.0625 5.625 C7 8 7 8 9 9 C8.731875 9.515625 8.46375 10.03125 8.1875 10.5625 C6.67650593 13.66401415 5.34427274 16.82262806 4 20 C3.67 20 3.34 20 3 20 C3.26041667 18.046875 3.52083333 16.09375 3.78125 14.140625 C4.35003557 8.57465196 3.11979812 6.4847098 0 2 C0 1.34 0 0.68 0 0 Z " fill="#E6C2AE" transform="translate(218,120)"/>
<path d="M0 0 C-0.66498383 4.38889325 -2.18757677 7.9811485 -4 12 C-4.66 12 -5.32 12 -6 12 C-6.32644414 7.83783725 -6.40650982 5.63686538 -4.125 2.0625 C-2 0 -2 0 0 0 Z " fill="#DCDCDB" transform="translate(51,154)"/>
<path d="M0 0 C3 1 3 1 4 3 C4.46153846 8.42307692 4.46153846 8.42307692 2.5 10.875 C2.2525 11.060625 2.2525 11.060625 1 12 C0.03929566 9.11788698 -0.10581883 7.30149956 -0.0625 4.3125 C-0.05347656 3.50425781 -0.04445313 2.69601563 -0.03515625 1.86328125 C-0.02355469 1.24839844 -0.01195313 0.63351563 0 0 Z " fill="#D0B2A0" transform="translate(99,132)"/>
<path d="M0 0 C0.3609375 0.391875 0.3609375 0.391875 2.1875 2.375 C4.83299041 4.84412438 6.60373611 5.93260278 10 7 C10 7.33 10 7.66 10 8 C7.36 8.66 4.72 9.32 2 10 C0.39644899 6.49223216 -0.22036864 3.85645121 0 0 Z " fill="#E8C3AD" transform="translate(290,47)"/>
</svg>
