<svg height="100" viewBox="0 0 100 100" width="100" xmlns="http://www.w3.org/2000/svg"><g id="Full---Rounded---Align-Center" fill="none" fill-rule="evenodd"><path id="Combined-Shape" d="m9.5 45.5h81c2.4852814 0 4.5 2.0147186 4.5 4.5s-2.0147186 4.5-4.5 4.5h-81c-2.48528137 0-4.5-2.0147186-4.5-4.5s2.01471863-4.5 4.5-4.5zm45.2279221-19.863961 5.0459415-5.0459416c1.7573593-1.7573593 4.6066017-1.7573593 6.363961 0 1.7573594 1.7573593 1.7573594 4.6066017 0 6.3639611l-12.727922 12.727922c-.8786797.8786797-2.0303301 1.3180195-3.1819805 1.3180195-1.1516505 0-2.3033009-.4393398-3.1819806-1.3180195l-12.727922-12.727922c-1.7573593-1.7573594-1.7573593-4.6066018 0-6.3639611s4.6066017-1.7573593 6.363961 0l5.0459416 5.0459416v-16.136039c0-2.48528137 2.0147186-4.5 4.5-4.5 2.4852813 0 4.5 2.01471863 4.5 4.5zm0 48.727922v16.136039c0 2.4852814-2.0147187 4.5-4.5 4.5-2.4852814 0-4.5-2.0147186-4.5-4.5v-16.136039l-5.0459416 5.0459416c-1.7573593 1.7573593-4.6066017 1.7573593-6.363961 0s-1.7573593-4.6066017 0-6.3639611l12.727922-12.727922c.8786797-.8786797 2.0303301-1.3180195 3.1819806-1.3180195 1.1516504 0 2.3033008.4393398 3.1819805 1.3180195l12.727922 12.727922c1.7573594 1.7573594 1.7573594 4.6066018 0 6.3639611-1.7573593 1.7573593-4.6066017 1.7573593-6.363961 0z" fill="#000"/></g></svg>