<svg id="Capa_1" enable-background="new 0 0 512 512" height="512" viewBox="0 0 512 512" width="512" xmlns="http://www.w3.org/2000/svg"><g id="XMLID_424_"><path id="XMLID_425_" d="m471.877 0h-431.754c-22.124 0-40.123 17.999-40.123 40.123v431.754c0 22.124 17.999 40.123 40.123 40.123h431.754c22.124 0 40.123-17.999 40.123-40.123v-431.754c0-22.124-17.999-40.123-40.123-40.123zm-225.877 180.652v90.449h-103v-90.449zm123 0v90.449h-103v-90.449zm123 0v90.449h-103v-90.449zm-369 90.45h-103v-90.449h103zm-103 20h103v90.449h-103zm123 0h103v90.449h-103zm103 110.449v90.449h-103v-90.449zm20 0h103v90.449h-103zm0-20v-90.449h103v90.449zm123-90.449h103v90.449h-103zm-348.877-271.102h431.754c11.096 0 20.123 9.027 20.123 20.123v120.529h-472v-120.529c0-11.096 9.027-20.123 20.123-20.123zm-20.123 451.877v-70.326h103v90.449h-82.877c-11.096 0-20.123-9.027-20.123-20.123zm451.877 20.123h-82.877v-90.449h103v70.326c0 11.096-9.027 20.123-20.123 20.123z"/><path id="XMLID_440_" d="m80.285 60.163h10.001v70.327c0 5.522 4.478 10 10 10s10-4.478 10-10v-70.327h10.163c5.522 0 10-4.478 10-10 0-5.523-4.478-10-10-10h-40.164c-5.522 0-10 4.477-10 10s4.478 10 10 10z"/><path id="XMLID_441_" d="m137.129 139.894c5.197 1.879 10.927-.809 12.806-6.001l4.749-13.127h31.982l4.696 13.1c1.864 5.201 7.594 7.903 12.788 6.038 5.198-1.863 7.902-7.589 6.038-12.788-30.062-83.851-28.411-79.259-28.49-79.461-1.777-4.552-6.061-7.491-10.914-7.491h-.01c-4.985.004-9.337 3.123-10.995 7.729l-28.651 79.195c-1.879 5.193.808 10.927 6.001 12.806zm33.619-63.531 8.748 24.402h-17.576z"/><path id="XMLID_444_" d="m240.983 140.49s21.966-.096 28.02-.096c17.722 0 32.14-14.186 32.14-31.621 0-9.96-4.709-18.853-12.045-24.653 12.353-18.72-1.237-43.957-24.268-43.957h-23.891c-5.522 0-10 4.477-10 10v80.327c0 5.456 3.11 8.611 10.044 10zm28.02-20.095c-3.32 0-11.411.028-18.063.055v-23.279c9.566-.037 5.686-.01 18.063-.02 6.693 0 12.14 5.214 12.14 11.622s-5.447 11.622-12.14 11.622zm-4.173-60.232c4.922 0 8.927 3.806 8.927 8.483s-4.005 8.483-8.927 8.483c-.235 0-.674-.002-13.891.021v-16.987z"/><path id="XMLID_448_" d="m329.726 140.296c2.173.349 28.013.146 31.755.126 5.523-.029 9.977-4.529 9.948-10.052-.029-5.506-4.5-9.948-9.999-9.948-4.833.021-11.863.061-20.123.067v-70.326c0-5.523-4.478-10-10-10s-10 4.477-10 10v80.259c0 4.912 3.568 9.098 8.419 9.874z"/><path id="XMLID_449_" d="m401.592 140.49h30.123c5.522 0 10-4.478 10-10s-4.478-10-10-10h-20.123v-20.163h17.9c5.522 0 10-4.478 10-10s-4.478-10-10-10h-17.9v-20.164h20.123c5.522 0 10-4.478 10-10 0-5.523-4.478-10-10-10h-30.123c-5.522 0-10 4.477-10 10v80.327c0 5.523 4.477 10 10 10z"/></g></svg>